SplineFontDB: 3.2
FontName: Kenig-Sans-Black
FullName: Kenig Sans Black
FamilyName: Kenig Sans
Weight: Black
Copyright: Copyright (c) 2023-2024, Kenig Type Foundry
Version: 1.0
ItalicAngle: 0
UnderlinePosition: -200
UnderlineWidth: 100
Ascent: 1536
Descent: 512
InvalidEm: 0
sfntRevision: 0x00010000
LayerCount: 2
Layer: 0 1 "Warstwa t+AUIA-a" 1
Layer: 1 1 "Plan pierwszy" 0
XUID: [1021 925 798089043 2727]
StyleMap: 0x0040
FSType: 0
OS2Version: 3
OS2_WeightWidthSlopeOnly: 0
OS2_UseTypoMetrics: 0
CreationTime: 1221222574
ModificationTime: 1731694722
PfmFamily: 17
TTFWeight: 400
TTFWidth: 5
LineGap: 0
VLineGap: 0
Panose: 2 0 0 0 0 0 0 0 0 0
OS2TypoAscent: 1536
OS2TypoAOffset: 0
OS2TypoDescent: -512
OS2TypoDOffset: 0
OS2TypoLinegap: 102
OS2WinAscent: 1946
OS2WinAOffset: 0
OS2WinDescent: 512
OS2WinDOffset: 0
HheadAscent: 1900
HheadAOffset: 0
HheadDescent: -500
HheadDOffset: 0
OS2SubXSize: 1434
OS2SubYSize: 1331
OS2SubXOff: 0
OS2SubYOff: 287
OS2SupXSize: 1434
OS2SupYSize: 1331
OS2SupXOff: 0
OS2SupYOff: 977
OS2StrikeYSize: 102
OS2StrikeYPos: 512
OS2CapHeight: 1456
OS2XHeight: 1082
OS2Vendor: 'GOOG'
OS2CodePages: 2000019f.00000000
OS2UnicodeRanges: e00002ff.5000205b.00000020.00000000
Lookup: 1 0 0 "'c2sc' Wersaliki na kapitaliki w tablicy 0" { "Podtablica 'c2sc' Wersaliki na kapitaliki w tablicy 0"  } ['c2sc' ('DFLT' <'dflt' > 'cyrl' <'dflt' > 'grek' <'dflt' > 'latn' <'AZE ' 'CRT ' 'FRA ' 'MOL ' 'NAV ' 'ROM ' 'TRK ' 'dflt' > ) ]
Lookup: 1 0 0 "'smcp' Tekstowe na kapitaliki w tablicy 1" { "Podtablica 'smcp' Tekstowe na kapitaliki w tablicy 1"  } ['smcp' ('DFLT' <'dflt' > 'cyrl' <'dflt' > 'grek' <'dflt' > 'latn' <'AZE ' 'CRT ' 'FRA ' 'MOL ' 'NAV ' 'ROM ' 'TRK ' 'dflt' > ) ]

StartChar: .notdef
Encoding: 65536 -1 0
Width: 908
GlyphClass: 1
Flags: W
LayerCount: 2
Fore
SplineSet
808 0 m 1,0,-1
 100 0 l 1,1,-1
 100 1456 l 1,2,-1
 808 1456 l 1,3,-1
 808 0 l 1,0,-1
754 84 m 1,4,-1
 754 1371 l 1,5,-1
 480 728 l 1,6,-1
 754 84 l 1,4,-1
154 1359 m 1,7,-1
 154 96 l 1,8,-1
 422 728 l 1,9,-1
 154 1359 l 1,7,-1
194 54 m 1,10,-1
 709 54 l 1,11,-1
 451 660 l 1,12,-1
 194 54 l 1,10,-1
451 796 m 1,13,-1
 709 1402 l 1,14,-1
 194 1402 l 1,15,-1
 451 796 l 1,13,-1
EndSplineSet
EndChar

StartChar: exclam
Encoding: 33 33 5
Width: 527
GlyphClass: 1
Flags: W
LayerCount: 2
Fore
SplineSet
397.321408664 360 m 1
 129.630429456 360 l 1
 115.361529935 1507 l 1
 412.687915841 1507 l 1
 397.321408664 360 l 1
109 92.7563235751 m 0
 109 157.582854893 109 157.582854893 150.663467057 203.791427446 c 0
 192.326934113 250 192.326934113 250 268.863126704 250 c 0
 345.399319295 250 345.399319295 250 387.699659648 203.922843545 c 0
 430 157.84568709 430 157.84568709 430 92.7550804205 c 0
 430 27.6644737512 430 27.6644737512 387.447368389 -17.1677631244 c 0
 344.894736779 -62 344.894736779 -62 268.863796984 -62 c 0
 192.832857189 -62 192.832857189 -62 150.916428595 -17.0351038713 c 0
 109 27.9297922575 109 27.9297922575 109 92.7563235751 c 0
EndSplineSet
EndChar

StartChar: quotedbl
Encoding: 34 34 6
Width: 655
GlyphClass: 1
Flags: W
LayerCount: 2
Fore
SplineSet
293.907518979 991 m 1
 84.8966545977 991 l 1
 86.1031323304 1587 l 1
 328 1587 l 1
 328 1397.83694018 l 1
 293.907518979 991 l 1
563.907518979 991 m 1
 354.896654598 991 l 1
 356.10313233 1587 l 1
 598 1587 l 1
 598 1397.83694018 l 1
 563.907518979 991 l 1
EndSplineSet
EndChar

StartChar: numbersign
Encoding: 35 35 7
Width: 1261
GlyphClass: 1
Flags: W
LayerCount: 2
Fore
SplineSet
871.018590302 -51 m 1
 623.078970674 -51 l 1
 703.078970674 359 l 1
 543.018590302 359 l 1
 463.018590302 -51 l 1
 216.078970674 -51 l 1
 296.078970674 359 l 1
 68 359 l 1
 68 598 l 1
 341.97289437 598 l 1
 391.091538438 850 l 1
 144 850 l 1
 144 1091 l 1
 438.063428404 1091 l 1
 520.063428404 1507 l 1
 767.042340827 1507 l 1
 685.042340827 1091 l 1
 845.063428404 1091 l 1
 927.063428404 1507 l 1
 1175.04234083 1507 l 1
 1093.04234083 1091 l 1
 1286 1091 l 1
 1286 850 l 1
 1046.02710563 850 l 1
 996.908461562 598 l 1
 1211 598 l 1
 1211 359 l 1
 951.018590302 359 l 1
 871.018590302 -51 l 1
638.02710563 850 m 1
 588.908461562 598 l 1
 748.97289437 598 l 1
 798.091538438 850 l 1
 638.02710563 850 l 1
EndSplineSet
EndChar

StartChar: dollar
Encoding: 36 36 8
Width: 1354
GlyphClass: 1
Flags: W
LayerCount: 2
Fore
SplineSet
882.764676139 267.536132812 m 0,0,1
 950.231513629 312.795898438 950.231513629 312.795898438 950.231513629 393.698242188 c 0,2,3
 950.231513629 460.641601562 950.231513629 460.641601562 891.852709241 506.1796875 c 0,4,5
 825.357227096 558.047851562 825.357227096 558.047851562 657.276776295 602.872070312 c 0,6,7
 389.231442932 668.301757812 389.231442932 668.301757812 277.208007812 776.853515625 c 0,8,9
 166 889.973632812 166 889.973632812 166 1063.07617188 c 128,-1,10
 166 1236.1796875 166 1236.1796875 274.765625 1349.67285156 c 0,11,12
 371.90487746 1448.36230469 371.90487746 1448.36230469 555.691807638 1477.12695312 c 1,13,14
 555.691807638 1541.63574219 555.691807638 1541.63574219 555.691807638 1692 c 1,15,-1
 853.973332348 1692 l 1,16,17
 853.973332348 1540.79199219 853.973332348 1540.79199219 853.973332348 1475.34863281 c 1,18,19
 1034.39355469 1442.5234375 1034.39355469 1442.5234375 1127.4921875 1331.015625 c 0,20,21
 1232 1205.84277344 1232 1205.84277344 1232 994.447265625 c 2,22,23
 1232 958.618164062 1232 958.618164062 1232 946.045898438 c 1,24,-1
 935.971042328 946.045898438 l 1,25,26
 935.971042328 958.618164062 935.971042328 958.618164062 935.971042328 994.447265625 c 2,27,28
 935.971042328 1111.17773438 935.971042328 1111.17773438 869.776134896 1176.66601562 c 0,29,30
 835.608101364 1210.46972656 835.608101364 1210.46972656 788.960994924 1225.22851562 c 0,31,32
 750.476987045 1237.40429688 750.476987045 1237.40429688 701.861638472 1237.40429688 c 0,33,34
 585.106350737 1237.40429688 585.106350737 1237.40429688 528.211851589 1193.04980469 c 128,-1,35
 471.317352441 1148.6953125 471.317352441 1148.6953125 471.317352441 1064.67773438 c 0,36,37
 471.317352441 1029.98925781 471.317352441 1029.98925781 484.616913079 999.962890625 c 128,-1,38
 497.915313195 969.9375 497.915313195 969.9375 530.499236756 946.263671875 c 0,39,40
 599.844956329 895.879882812 599.844956329 895.879882812 768.695992494 852.109375 c 0,41,42
 958.417822594 802.9296875 958.417822594 802.9296875 1056.58203125 742.370117188 c 0,43,44
 1152.58886719 678.962890625 1152.58886719 678.962890625 1198.79394531 593.424804688 c 128,-1,45
 1245 507.887695312 1245 507.887695312 1245 395.596679688 c 0,46,47
 1245 215.37890625 1245 215.37890625 1128.82128906 103.490234375 c 0,48,49
 1027.94238281 6.3359375 1027.94238281 6.3359375 832.582625397 -20.611328125 c 1,50,51
 832.582625397 -70.677734375 832.582625397 -70.677734375 832.582625397 -208 c 1,52,-1
 535.489473295 -208 l 1,53,54
 535.489473295 -70.84765625 535.489473295 -70.84765625 535.489473295 -20.96875 c 1,55,56
 333.662109375 5.8837890625 333.662109375 5.8837890625 228.83984375 114.794921875 c 0,57,58
 110 238.270507812 110 238.270507812 110 444.947265625 c 2,59,60
 110 483.049804688 110 483.049804688 110 493.348632812 c 1,61,-1
 404.768486371 493.348632812 l 1,62,63
 404.768486371 483.049804688 404.768486371 483.049804688 404.768486371 444.947265625 c 2,64,65
 404.768486371 332.681640625 404.768486371 332.681640625 474.000474971 275.876953125 c 128,-1,66
 543.232463572 219.073242188 543.232463572 219.073242188 676.905813696 219.073242188 c 128,-1,67
 810.521137813 219.073242188 810.521137813 219.073242188 882.764676139 267.536132812 c 0,0,1
EndSplineSet
Substitution2: "Podtablica 'c2sc' Wersaliki na kapitaliki w tablicy 0" dollar.c2sc
Position2: "Podtablica 'cpsp' +AVoA-wiat+AUIA-o wersalikowe w tablicy 0" dx=36 dy=0 dh=72 dv=0
EndChar

StartChar: percent
Encoding: 37 37 9
Width: 1704
GlyphClass: 1
Flags: W
LayerCount: 2
Fore
SplineSet
105 1082.62792969 m 2,0,1
 105 1091.35253906 105 1091.35253906 105 1148.04492188 c 2,2,3
 105 1289.94921875 105 1289.94921875 203.311523438 1383.47460938 c 128,-1,4
 301.623046875 1477 301.623046875 1477 466.751195982 1477 c 0,5,6
 637.348061503 1477 637.348061503 1477 745.340144578 1382.8828125 c 128,-1,7
 853.332227654 1288.765625 853.332227654 1288.765625 853.332227654 1142.4375 c 2,8,9
 853.332227654 1085.67578125 853.332227654 1085.67578125 853.332227654 1076.0859375 c 2,10,11
 853.332227654 932.999023438 853.332227654 932.999023438 743.93149085 841 c 128,-1,12
 634.529668797 749 634.529668797 749 467.304673179 749 c 0,13,14
 305.155273438 749 305.155273438 749 205.077148438 840.875 c 128,-1,15
 105 932.75 105 932.75 105 1082.62792969 c 2,0,1
345 1141.30859375 m 2,16,17
 345 1089.09863281 345 1089.09863281 345 1079.45507812 c 2,18,19
 345 1029.53808594 345 1029.53808594 379.322418639 998.94140625 c 0,20,21
 396.941442735 983.524414062 396.941442735 983.524414062 419.14130457 977.26171875 c 128,-1,22
 441.341166406 971 441.341166406 971 466.964990115 971 c 128,-1,23
 492.588813824 971 492.588813824 971 513.872725162 977.012695312 c 128,-1,24
 535.157721749 983.025390625 535.157721749 983.025390625 552.562951711 997.974609375 c 0,25,26
 586.621333799 1027.22558594 586.621333799 1027.22558594 586.621333799 1082.84472656 c 2,27,28
 586.621333799 1091.97070312 586.621333799 1091.97070312 586.621333799 1144.69726562 c 2,29,30
 586.621333799 1195.01269531 586.621333799 1195.01269531 552.165750429 1226.17089844 c 0,31,32
 535.194620228 1241.51757812 535.194620228 1241.51757812 513.446222145 1247.75878906 c 128,-1,33
 491.697824063 1254 491.697824063 1254 465.490136173 1254 c 128,-1,34
 439.282448284 1254 439.282448284 1254 417.534050201 1247.75878906 c 128,-1,35
 395.785652118 1241.51757812 395.785652118 1241.51757812 378.814521917 1226.17089844 c 0,36,37
 345 1195.01269531 345 1195.01269531 345 1141.30859375 c 2,16,17
865.556476955 312.657226562 m 2,38,39
 865.556476955 369.953125 865.556476955 369.953125 865.556476955 379.950195312 c 2,40,41
 865.556476955 521.94921875 865.556476955 521.94921875 974.858456063 614.974609375 c 128,-1,42
 1084.16043517 708 1084.16043517 708 1253.39856844 708 c 0,43,44
 1417.11035156 708 1417.11035156 708 1516.05566406 615.524414062 c 128,-1,45
 1615 523.049804688 1615 523.049804688 1615 373.407226562 c 2,46,47
 1615 364.275390625 1615 364.275390625 1615 307.049804688 c 2,48,49
 1615 165.05078125 1615 165.05078125 1516.5 72.025390625 c 128,-1,50
 1418 -21 1418 -21 1255.62115922 -21 c 0,51,52
 1087.98810982 -21 1087.98810982 -21 976.771750764 70.8828125 c 128,-1,53
 865.556476955 162.766601562 865.556476955 162.766601562 865.556476955 312.657226562 c 2,38,39
1132.26737081 373.095703125 m 2,54,55
 1132.26737081 363.540039062 1132.26737081 363.540039062 1132.26737081 310.361328125 c 2,56,57
 1132.26737081 259.569335938 1132.26737081 259.569335938 1167.2308509 228.95703125 c 0,58,59
 1184.849875 213.53125 1184.849875 213.53125 1207.04973683 207.265625 c 128,-1,60
 1229.24959867 201 1229.24959867 201 1255.09915425 201 c 128,-1,61
 1280.94870984 201 1280.94870984 201 1302.27169016 207.053710938 c 128,-1,62
 1323.59575572 213.108398438 1323.59575572 213.108398438 1340.62114839 228.060546875 c 0,63,64
 1374 257.837890625 1374 257.837890625 1374 313.751953125 c 2,65,66
 1374 366.415039062 1374 366.415039062 1374 376.486328125 c 2,67,68
 1374 427.295898438 1374 427.295898438 1340.09371718 457.491210938 c 0,69,70
 1322.77205142 472.6796875 1322.77205142 472.6796875 1301.01063035 478.83984375 c 128,-1,71
 1279.24812402 485 1279.24812402 485 1253.89778316 485 c 128,-1,72
 1228.5474423 485 1228.5474423 485 1206.9238479 478.872070312 c 128,-1,73
 1185.3002535 472.744140625 1185.3002535 472.744140625 1167.19937867 457.384765625 c 0,74,75
 1132.26737081 427.7421875 1132.26737081 427.7421875 1132.26737081 373.095703125 c 2,54,55
1381.20019531 1264.11132812 m 1,76,-1
 532.340414292 39.609375 l 1,77,-1
 322.799804688 159.888671875 l 1,78,-1
 1169.87885945 1384.390625 l 1,79,-1
 1381.20019531 1264.11132812 l 1,76,-1
EndSplineSet
EndChar

StartChar: ampersand
Encoding: 38 38 10
Width: 1273
GlyphClass: 1
Flags: W
LayerCount: 2
Fore
SplineSet
533.350522807 957.627410911 m 1
 611.655931584 1012.70659983 611.655931584 1012.70659983 611.706802022 1012.74244494 c 0
 670.384388896 1054.16191803 670.384388896 1054.16191803 689.192194448 1086.88749969 c 0
 708 1119.61308135 708 1119.61308135 708 1168 c 0
 708 1188.16381501 708 1188.16381501 700.846168858 1206.51339189 c 0
 693.692337717 1224.86296877 693.692337717 1224.86296877 675.116646325 1241.39533411 c 0
 639.605785771 1273 639.605785771 1273 583 1273 c 0
 555.686241589 1273 555.686241589 1273 532.64996655 1264.50489525 c 0
 509.61369151 1256.0097905 509.61369151 1256.0097905 491.585629416 1235.16484371 c 0
 456 1194.01895969 456 1194.01895969 456 1128.20085547 c 0
 456 1062.38275124 456 1062.38275124 533.350522807 957.627410911 c 1
337 391 m 0
 337 295.233880542 337 295.233880542 398.002759587 238.616940271 c 0
 459.005519175 182 459.005519175 182 572 182 c 0
 677.965667671 182 677.965667671 182 769.092404284 249.545539148 c 1
 477.479048864 598.66011958 l 1
 337 493.239584771 337 493.239584771 337 391 c 0
50 391 m 0
 50 511.399284506 50 511.399284506 116.997818858 612.182328258 c 0
 172.901726832 696.277095809 172.901726832 696.277095809 309.785825332 798.774803124 c 1
 236.434007941 892.725401982 236.434007941 892.725401982 206.611010078 957.793760957 c 0
 169 1039.85414658 169 1039.85414658 169 1122 c 0
 169 1309.73617885 169 1309.73617885 282.254545067 1418.36808943 c 0
 395.509090134 1527 395.509090134 1527 584 1527 c 0
 753.440677199 1527 753.440677199 1527 865.944387892 1426.55025831 c 0
 981 1323.82203321 981 1323.82203321 981 1168 c 0
 981 1065.92841512 981 1065.92841512 930.271548515 981.001007574 c 0
 879.543097031 896.073600033 879.543097031 896.073600033 760.248095905 807.945761199 c 2
 696.894645924 761.170784875 l 1
 933.077338735 479.063679574 l 1
 964 568.438121996 964 568.438121996 964 672 c 2
 964 723 l 1
 1233 723 l 1
 1233 672 l 2
 1233 424.809071781 1233 424.809071781 1122.86062957 252.089825573 c 1
 1376.04409832 -51 l 1
 1021.30914761 -51 l 1
 941.160896673 44.0211222472 l 1
 873.953295815 -5.00513539221 873.953295815 -5.00513539221 791.194429791 -33.7004205965 c 0
 683.620280497 -71 683.620280497 -71 572 -71 c 0
 339.835446131 -71 339.835446131 -71 196.420151074 54.6273514845 c 0
 50 182.886863665 50 182.886863665 50 391 c 0
EndSplineSet
Substitution2: "Podtablica 'smcp' Tekstowe na kapitaliki w tablicy 1" ampersand.c2sc
Substitution2: "Podtablica 'c2sc' Wersaliki na kapitaliki w tablicy 0" ampersand.c2sc
Position2: "Podtablica 'cpsp' +AVoA-wiat+AUIA-o wersalikowe w tablicy 0" dx=36 dy=0 dh=72 dv=0
EndChar

StartChar: quotesingle
Encoding: 39 39 11
Width: 357
GlyphClass: 1
Flags: W
LayerCount: 2
Fore
SplineSet
280.173948485 1006 m 1
 51.8934148714 1006 l 1
 53.106358504 1587 l 1
 304 1587 l 1
 304 1423.52318845 l 1
 280.173948485 1006 l 1
EndSplineSet
EndChar

StartChar: parenleft
Encoding: 40 40 12
Width: 700
GlyphClass: 1
Flags: W
LayerCount: 2
Fore
SplineSet
82 591 m 0
 82 824.302215842 82 824.302215842 144.695620795 1039.85079643 c 0
 207.391241591 1255.39937701 207.391241591 1255.39937701 333.304405076 1433.77635862 c 0
 459.217568562 1612.15334022 459.217568562 1612.15334022 598.729365697 1687.85741619 c 2
 653.241615489 1717.43770677 l 1
 720.280833759 1502.20653233 l 1
 692.001028484 1480.51243513 l 2
 557.047824677 1376.98668974 557.047824677 1376.98668974 467.908357452 1157.713134 c 0
 378.768890227 938.439578262 378.768890227 938.439578262 369.990331032 662.872498743 c 1
 369.000022331 578.696259184 l 1
 369.054994803 204.86267863 369.054994803 204.86267863 504.645526991 -68.241655705 c 0
 584.771542443 -228.49368661 584.771542443 -228.49368661 693.317000621 -317.556626653 c 2
 720.563089511 -339.912391897 l 1
 651.8009674 -544.389228701 l 1
 598.257834095 -514.598312426 l 2
 454.887418017 -434.828306487 454.887418017 -434.828306487 327.074915597 -251.031815404 c 0
 82 102.04221554 82 102.04221554 82 591 c 0
EndSplineSet
EndChar

StartChar: parenright
Encoding: 41 41 13
Width: 712
GlyphClass: 1
Flags: W
LayerCount: 2
Fore
SplineSet
101.627697521 1687.66180912 m 2
 244.018439616 1608.91541387 244.018439616 1608.91541387 369.344829901 1429.57806878 c 0
 494.671220186 1250.24072369 494.671220186 1250.24072369 556.335610093 1036.74720569 c 0
 618 823.253687691 618 823.253687691 618 587.033152809 c 0
 618 350.812617927 618 350.812617927 557.360277717 138.832734048 c 0
 496.720555434 -73.1471498311 496.720555434 -73.1471498311 370.387785532 -254.52116803 c 0
 244.05501563 -435.89518623 244.05501563 -435.89518623 101.627697521 -514.661809123 c 2
 48.5775957866 -544.000122961 l 1
 -22.2111672966 -338.894219669 l 1
 7.02176373282 -316.494960828 l 2
 149.385249613 -207.411250868 149.385249613 -207.411250868 238.71022495 29.9925605876 c 0
 328.035200286 267.396372043 328.035200286 267.396372043 330 561.172676724 c 1
 330 593 l 2
 330 796.834099851 330 796.834099851 287.516324919 971.11372149 c 0
 245.032649838 1145.39334313 245.032649838 1145.39334313 170.541847289 1281.08996433 c 0
 96.05104474 1416.78658554 96.05104474 1416.78658554 5.78255318961 1490.47515007 c 2
 -21.8253194806 1513.01218898 l 1
 48.5775957866 1717.00012296 l 1
 101.627697521 1687.66180912 l 2
EndSplineSet
EndChar

StartChar: asterisk
Encoding: 42 42 14
Width: 882
GlyphClass: 1
Flags: W
LayerCount: 2
Fore
SplineSet
314.647935549 1507 m 1
 572.482618383 1507 l 1
 563.143887679 1181.07829841 l 1
 840.120621659 1283.66227396 l 1
 916.68316424 1030.67300282 l 1
 629.864646875 945.655136108 l 1
 814.731810891 692.629876267 l 1
 606.988225494 535.146835725 l 1
 434.175648312 802.727600394 l 1
 267.747837133 542.915295165 l 1
 57.753141087 695.791433886 l 1
 246.315045316 954.712257603 l 1
 -35.7515537731 1038.77184011 l 1
 40.9795574365 1290.650053 l 1
 323.045066975 1186.04297661 l 1
 314.647935549 1507 l 1
EndSplineSet
EndChar

StartChar: plus
Encoding: 43 43 15
Width: 1161
GlyphClass: 1
Flags: W
LayerCount: 2
Fore
SplineSet
433 832 m 1
 433 1257 l 1
 721 1257 l 1
 721 832 l 1
 1127 832 l 1
 1127 555 l 1
 721 555 l 1
 721 95 l 1
 433 95 l 1
 433 555 l 1
 27 555 l 1
 27 832 l 1
 433 832 l 1
EndSplineSet
EndChar

StartChar: comma
Encoding: 44 44 16
Width: 402
GlyphClass: 1
Flags: W
LayerCount: 2
Fore
SplineSet
76 270 m 1
 359 270 l 1
 359 74 l 2
 359 -38.8367073683 359 -38.8367073683 304.442519242 -150.156011541 c 0
 249.885038484 -261.475315714 249.885038484 -261.475315714 166.145893365 -329.583153744 c 2
 136.59822286 -353.615259088 l 1
 -42.8037052201 -230.596794119 l 1
 -12.4632745801 -188.313853547 l 2
 72.2258156537 -70.2896958805 72.2258156537 -70.2896958805 76 52.7702907107 c 1
 76 270 l 1
EndSplineSet
EndChar

StartChar: hyphen
Encoding: 45 45 17
Width: 565
GlyphClass: 1
Flags: W
LayerCount: 2
Fore
SplineSet
576 492 m 1
 -14 492 l 1
 -14 745 l 1
 576 745 l 1
 576 492 l 1
EndSplineSet
EndChar

StartChar: period
Encoding: 46 46 18
Width: 539
GlyphClass: 1
Flags: W
LayerCount: 2
Fore
SplineSet
134.40724054 210.896726994 m 0
 178.139843061 260 178.139843061 260 257.737903136 260 c 0
 337.335963211 260 337.335963211 260 381.167981606 212.453403776 c 0
 425 164.906807551 425 164.906807551 425 97.7665287167 c 0
 425 30.6262498824 425 30.6262498824 380.927832717 -15.6868750588 c 0
 336.855665435 -62 336.855665435 -62 257.739090101 -62 c 0
 178.622514768 -62 178.622514768 -62 135.811257384 -15.4333691612 c 0
 93 31.1332616777 93 31.1332616777 93 97.7688242083 c 0
 93 164.404386739 93 164.404386739 134.40724054 210.896726994 c 0
EndSplineSet
EndChar

StartChar: slash
Encoding: 47 47 19
Width: 844
GlyphClass: 1
Flags: W
LayerCount: 2
Fore
SplineSet
212.058528123 -176 m 1
 -56.2636309888 -176 l 1
 590.962175463 1507 l 1
 858.219818445 1507 l 1
 212.058528123 -176 l 1
EndSplineSet
Substitution2: "Podtablica 'frac' U+AUIA-amki uko+AVsA-ne w tablicy 22" fraction
EndChar

StartChar: zero
Encoding: 48 48 20
Width: 1354
GlyphClass: 1
Flags: W
LayerCount: 2
Fore
SplineSet
1237.99804688 853.916992188 m 1,0,1
 1237.99804688 741.763671875 1237.99804688 741.763671875 1237.99804688 629.112304688 c 2,2,3
 1237.99804688 310.251953125 1237.99804688 310.251953125 1117.75976562 150.265625 c 0,4,5
 1047.18261719 56.3603515625 1047.18261719 56.3603515625 921.058297774 14.662109375 c 0,6,7
 814.831582712 -20 814.831582712 -20 679.16616351 -20 c 0,8,9
 369.378426387 -20 369.378426387 -20 240.681640625 144.158203125 c 0,10,11
 119.21484375 300.7890625 119.21484375 300.7890625 115.004882812 602.86328125 c 1,12,13
 115.004882812 610.05859375 115.004882812 610.05859375 115.004882812 603.178710938 c 2,14,15
 115.004882812 718.940429688 115.004882812 718.940429688 115 834.384765625 c 0,16,17
 115 1149.66992188 115 1149.66992188 235.41796875 1307.8671875 c 0,18,19
 306.05859375 1400.67089844 306.05859375 1400.67089844 432.609445845 1441.83007812 c 0,20,21
 538.998052814 1476 538.998052814 1476 675.22019383 1476 c 0,22,23
 986.884246525 1476 986.884246525 1476 1114.06933594 1315.90234375 c 0,24,25
 1234.83984375 1162.83789062 1234.83984375 1162.83789062 1237.99804688 853.916992188 c 1,0,1
943.05579758 585.944335938 m 1,26,27
 943.05579758 723.533203125 943.05579758 723.533203125 943.05579758 860.303710938 c 2,28,29
 943.05579758 1060.27441406 943.05579758 1060.27441406 873.293196669 1146.64257812 c 0,30,31
 839.564939301 1188.39746094 839.564939301 1188.39746094 784.949131686 1206.63085938 c 0,32,33
 738.912430524 1222 738.912430524 1222 676.195039351 1222 c 128,-1,34
 613.477648178 1222 613.477648178 1222 568.012809799 1206.75195312 c 0,35,36
 514.140074397 1188.68457031 514.140074397 1188.68457031 481.050067143 1147.28222656 c 0,37,38
 412.216888842 1061.15625 412.216888842 1061.15625 409.944578675 872.780273438 c 1,39,40
 409.944578675 737.674804688 409.944578675 737.674804688 409.944578675 604.66796875 c 2,41,42
 409.944578675 403.69921875 409.944578675 403.69921875 482.806419645 312.744140625 c 0,43,44
 518.549590692 268.125976562 518.549590692 268.125976562 573.105999118 248.868164062 c 0,45,46
 618.061867971 233 618.061867971 233 678.002638212 233 c 128,-1,47
 737.943408453 233 737.943408453 233 782.198133934 247.997070312 c 0,48,49
 835.257915725 265.978515625 835.257915725 265.978515625 869.428755288 307.377929688 c 0,50,51
 939.649079365 392.455078125 939.649079365 392.455078125 943.05579758 585.944335938 c 1,26,27
EndSplineSet
Substitution2: "Podtablica 'numr' Cyfry frakcji g+APMA-rnej (licznika) w tablicy 25" zero.numr
Substitution2: "Podtablica 'dnom' Cyfry frakcji dolnej (mianownika) w tablicy 24" zero.dnom
Substitution2: "Podtablica 'pnum' Cyfry proporcjonalnej szeroko+AVsA-ci w tablicy 19" zero.pnum
Substitution2: "Podtablica 'onum' Cyfry nautyczne w tablicy 18" zero.oldstyle
Substitution2: "Podtablica 'c2sc' Wersaliki na kapitaliki w tablicy 0" zero.c2sc
Position2: "Podtablica 'cpsp' +AVoA-wiat+AUIA-o wersalikowe w tablicy 0" dx=36 dy=0 dh=72 dv=0
EndChar

StartChar: one
Encoding: 49 49 21
Width: 1354
GlyphClass: 1
Flags: W
LayerCount: 2
Fore
SplineSet
933 1463 m 1,0,1
 933 731.5 933 731.5 933 0 c 1,2,-1
 619.57823932 0 l 1,3,4
 619.57823932 576.788085938 619.57823932 576.788085938 619.57823932 1132.00390625 c 1,5,6
 356.5 1046.0390625 356.5 1046.0390625 170 1003.93261719 c 1,7,8
 170 1106.95410156 170 1106.95410156 170 1262.328125 c 1,9,10
 479.989691354 1321.52734375 479.989691354 1321.52734375 843.71484375 1463 c 1,11,-1
 933 1463 l 1,0,1
EndSplineSet
Substitution2: "Podtablica 'numr' Cyfry frakcji g+APMA-rnej (licznika) w tablicy 25" uni00B9
Substitution2: "Podtablica 'dnom' Cyfry frakcji dolnej (mianownika) w tablicy 24" one.dnom
Substitution2: "Podtablica 'pnum' Cyfry proporcjonalnej szeroko+AVsA-ci w tablicy 19" one.pnum
Substitution2: "Podtablica 'onum' Cyfry nautyczne w tablicy 18" one.oldstyle
Substitution2: "Podtablica 'c2sc' Wersaliki na kapitaliki w tablicy 0" one.c2sc
Position2: "Podtablica 'cpsp' +AVoA-wiat+AUIA-o wersalikowe w tablicy 0" dx=36 dy=0 dh=72 dv=0
EndChar

StartChar: two
Encoding: 50 50 22
Width: 1354
GlyphClass: 1
Flags: W
LayerCount: 2
Fore
SplineSet
1279 253 m 1,0,1
 1279 177.5 1279 177.5 1279 0 c 1,2,-1
 121 0 l 1,3,4
 121 133.771484375 121 133.771484375 121 187.875 c 1,5,6
 386.462194267 465.1015625 386.462194267 465.1015625 689.412306771 717.973632812 c 1,7,8
 815.909185885 830.939453125 815.909185885 830.939453125 860.551911167 896.693359375 c 128,-1,9
 905.193491763 962.447265625 905.193491763 962.447265625 905.193491763 1029.1015625 c 0,10,11
 905.193491763 1115.60644531 905.193491763 1115.60644531 841.336079646 1168.80371094 c 128,-1,12
 777.477522844 1222 777.477522844 1222 668.417634351 1222 c 0,13,14
 531.857827084 1222 531.857827084 1222 459.479377864 1158.63671875 c 128,-1,15
 387.099783959 1095.2734375 387.099783959 1095.2734375 387.099783959 976 c 2,16,17
 387.099783959 899.5 387.099783959 899.5 387.099783959 925 c 1,18,-1
 93 925 l 1,19,20
 93 899.5 93 899.5 93 976 c 2,21,22
 93 1198.76171875 93 1198.76171875 237.767578125 1337.38085938 c 0,23,24
 390.070242218 1476 390.070242218 1476 668.417634351 1476 c 0,25,26
 929.337193344 1476 929.337193344 1476 1077.14941406 1365.57617188 c 0,27,28
 1212 1253.23632812 1212 1253.23632812 1212 1068.94824219 c 0,29,30
 1212 852.115234375 1212 852.115234375 905.778425933 564.470703125 c 2,31,32
 723.435786862 443.8203125 723.435786862 443.8203125 541.094292476 253 c 1,33,-1
 1279 253 l 1,0,1
EndSplineSet
Substitution2: "Podtablica 'numr' Cyfry frakcji g+APMA-rnej (licznika) w tablicy 25" uni00B2
Substitution2: "Podtablica 'dnom' Cyfry frakcji dolnej (mianownika) w tablicy 24" two.dnom
Substitution2: "Podtablica 'pnum' Cyfry proporcjonalnej szeroko+AVsA-ci w tablicy 19" two.pnum
Substitution2: "Podtablica 'onum' Cyfry nautyczne w tablicy 18" two.oldstyle
Substitution2: "Podtablica 'c2sc' Wersaliki na kapitaliki w tablicy 0" two.c2sc
Position2: "Podtablica 'cpsp' +AVoA-wiat+AUIA-o wersalikowe w tablicy 0" dx=36 dy=0 dh=72 dv=0
EndChar

StartChar: three
Encoding: 51 51 23
Width: 1354
GlyphClass: 1
Flags: W
LayerCount: 2
Fore
SplineSet
460.879139023 287.68359375 m 128,-1,1
 531.682098995 233 531.682098995 233 658.09559871 233 c 0,2,3
 926.11501837 233 926.11501837 233 926.11501837 427.147460938 c 0,4,5
 926.11501837 518.76171875 926.11501837 518.76171875 854.061533762 565.298828125 c 0,6,7
 778.042431959 614.396484375 778.042431959 614.396484375 625.504018499 616 c 1,8,-1
 399.605758416 616 l 1,9,-1
 399.605758416 869 l 1,10,-1
 625.449344399 869 l 1,11,12
 758.54122731 870.569335938 758.54122731 870.569335938 830.873898814 917.966796875 c 0,13,14
 899.908675114 963.204101562 899.908675114 963.204101562 899.908675114 1042.87890625 c 0,15,16
 899.908675114 1126.72070312 899.908675114 1126.72070312 853.125094383 1169.78417969 c 0,17,18
 796.398970337 1222 796.398970337 1222 656.90440129 1222 c 0,19,20
 538.348849403 1222 538.348849403 1222 471.359117112 1168.12304688 c 128,-1,21
 404.370548099 1114.24609375 404.370548099 1114.24609375 404.370548099 1023 c 2,22,23
 404.370548099 946.5 404.370548099 946.5 404.370548099 972 c 1,24,-1
 107 972 l 1,25,26
 107 946.5 107 946.5 107 1023 c 2,27,28
 107 1218.61425781 107 1218.61425781 249.180664062 1347.30664062 c 0,29,30
 401.226205689 1476 401.226205689 1476 656.90440129 1476 c 0,31,32
 926.18830493 1476 926.18830493 1476 1066.53027344 1360.46582031 c 0,33,34
 1199 1244.93164062 1199 1244.93164062 1199 1042.55273438 c 0,35,36
 1199 938.732421875 1199 938.732421875 1128.48632812 843.202148438 c 0,37,38
 1088.84375 789.495117188 1088.84375 789.495117188 1032.34179688 750.779296875 c 1,39,40
 1100.25 713.129882812 1100.25 713.129882812 1145.43652344 656.295898438 c 0,41,42
 1221 561.255859375 1221 561.255859375 1221 426.552734375 c 0,43,44
 1221 221.787109375 1221 221.787109375 1077.265625 100.893554688 c 0,45,46
 925.556644579 -20 925.556644579 -20 658.434112821 -20 c 128,-1,47
 391.310417785 -20 391.310417785 -20 240.188476562 103.39453125 c 0,48,49
 94 229.673828125 94 229.673828125 94 435 c 2,50,51
 94 511.5 94 511.5 94 486 c 1,52,-1
 390.076179051 486 l 1,53,54
 390.076179051 511.5 390.076179051 511.5 390.076179051 435 c 2,55,0
 390.076179051 342.3671875 390.076179051 342.3671875 460.879139023 287.68359375 c 128,-1,1
EndSplineSet
Substitution2: "Podtablica 'numr' Cyfry frakcji g+APMA-rnej (licznika) w tablicy 25" uni00B3
Substitution2: "Podtablica 'dnom' Cyfry frakcji dolnej (mianownika) w tablicy 24" three.dnom
Substitution2: "Podtablica 'pnum' Cyfry proporcjonalnej szeroko+AVsA-ci w tablicy 19" three.pnum
Substitution2: "Podtablica 'onum' Cyfry nautyczne w tablicy 18" three.oldstyle
Substitution2: "Podtablica 'c2sc' Wersaliki na kapitaliki w tablicy 0" three.c2sc
Position2: "Podtablica 'cpsp' +AVoA-wiat+AUIA-o wersalikowe w tablicy 0" dx=36 dy=0 dh=72 dv=0
EndChar

StartChar: four
Encoding: 52 52 24
Width: 1354
GlyphClass: 1
Flags: W
LayerCount: 2
Fore
SplineSet
818 0 m 1,0,-1
 818 287 l 1,1,-1
 53 287 l 1,2,-1
 53 454.72265625 l 1,3,4
 404.782662966 927.421875 404.782662966 927.421875 794.462564829 1456 c 1,5,-1
 1106 1456 l 1,6,-1
 1106 540 l 1,7,-1
 1308 540 l 1,8,-1
 1308 287 l 1,9,-1
 1106 287 l 1,10,-1
 1106 0 l 1,11,-1
 818 0 l 1,0,-1
433.643036494 540 m 1,12,-1
 818 540 l 1,13,-1
 780.338271754 1022.98730469 l 1,14,-1
 433.643036494 540 l 1,12,-1
EndSplineSet
Substitution2: "Podtablica 'numr' Cyfry frakcji g+APMA-rnej (licznika) w tablicy 25" four.numr
Substitution2: "Podtablica 'dnom' Cyfry frakcji dolnej (mianownika) w tablicy 24" four.dnom
Substitution2: "Podtablica 'pnum' Cyfry proporcjonalnej szeroko+AVsA-ci w tablicy 19" four.pnum
Substitution2: "Podtablica 'onum' Cyfry nautyczne w tablicy 18" four.oldstyle
Substitution2: "Podtablica 'c2sc' Wersaliki na kapitaliki w tablicy 0" four.c2sc
Position2: "Podtablica 'cpsp' +AVoA-wiat+AUIA-o wersalikowe w tablicy 0" dx=36 dy=0 dh=72 dv=0
EndChar

StartChar: five
Encoding: 53 53 25
Width: 1354
GlyphClass: 1
Flags: W
LayerCount: 2
Fore
SplineSet
206.604492188 691.506835938 m 1,0,-1
 289.7265625 1456 l 1,1,-1
 1234.79589844 1456 l 1,2,3
 1234.79589844 1268.5 1234.79589844 1268.5 1234.79589844 1183 c 1,4,-1
 565.139272702 1183 l 1,5,-1
 530.535427494 972.149414062 l 1,6,7
 631.793418716 1002 631.793418716 1002 747.969791553 1002 c 0,8,9
 1012.52421093 1002 1012.52421093 1002 1147.90527344 860.44140625 c 0,10,11
 1277.79589844 721.392578125 1277.79589844 721.392578125 1277.79589844 488.725585938 c 128,-1,12
 1277.79589844 256.059570312 1277.79589844 256.059570312 1141.83105469 118.029296875 c 0,13,14
 1000.83240093 -20 1000.83240093 -20 714.583915996 -20 c 0,15,16
 461.587399823 -20 461.587399823 -20 314.71875 100.063476562 c 0,17,18
 177.82421875 220.126953125 177.82421875 220.126953125 159.002929688 429.380859375 c 2,19,20
 156.500976562 508.190429688 156.500976562 508.190429688 154 485 c 1,21,-1
 435.023784481 485 l 1,22,23
 438.597349356 513.962890625 438.597349356 513.962890625 442.17091423 440.924804688 c 2,24,25
 459.400643605 334.669921875 459.400643605 334.669921875 528.231066175 283.758789062 c 0,26,27
 596.854224312 233 596.854224312 233 714.583915996 233 c 0,28,29
 839.970747666 233 839.970747666 233 909.34611268 296.225585938 c 0,30,31
 982.863273152 363.2265625 982.863273152 363.2265625 982.863273152 487.130859375 c 0,32,33
 982.863273152 601.916992188 982.863273152 601.916992188 903.635861085 669.051757812 c 0,34,35
 826.987610373 734 826.987610373 734 696.698625519 734 c 0,36,37
 573.704650095 734 573.704650095 734 507.813190621 691.959960938 c 1,38,-1
 426.350117244 636.186523438 l 1,39,-1
 206.604492188 691.506835938 l 1,0,-1
EndSplineSet
Substitution2: "Podtablica 'numr' Cyfry frakcji g+APMA-rnej (licznika) w tablicy 25" five.numr
Substitution2: "Podtablica 'dnom' Cyfry frakcji dolnej (mianownika) w tablicy 24" five.dnom
Substitution2: "Podtablica 'pnum' Cyfry proporcjonalnej szeroko+AVsA-ci w tablicy 19" five.pnum
Substitution2: "Podtablica 'onum' Cyfry nautyczne w tablicy 18" five.oldstyle
Substitution2: "Podtablica 'c2sc' Wersaliki na kapitaliki w tablicy 0" five.c2sc
Position2: "Podtablica 'cpsp' +AVoA-wiat+AUIA-o wersalikowe w tablicy 0" dx=36 dy=0 dh=72 dv=0
EndChar

StartChar: six
Encoding: 54 54 26
Width: 1354
GlyphClass: 1
Flags: W
LayerCount: 2
Fore
SplineSet
589.645341837 1108.22070312 m 0,0,1
 499.722611774 1045.78320312 499.722611774 1045.78320312 459.809219657 948.688476562 c 1,2,3
 582.102781914 1006 582.102781914 1006 745.267983713 1006 c 0,4,5
 999.970847746 1006 999.970847746 1006 1130.4296875 861.133789062 c 0,6,7
 1256 719.904296875 1256 719.904296875 1256 500.14453125 c 0,8,9
 1256 267.055664062 1256 267.055664062 1120.27441406 124.5625 c 0,10,11
 977.257007215 -20 977.257007215 -20 704.730508219 -20 c 0,12,13
 581.968883429 -20 581.968883429 -20 478.798353614 15.4970703125 c 0,14,15
 353.826171875 57.1337890625 353.826171875 57.1337890625 273.3515625 149.922851562 c 0,16,17
 132 312.905273438 132 312.905273438 132 566.043945312 c 2,18,19
 132 608.25390625 132 608.25390625 132 632.3515625 c 2,20,21
 132 1024.59667969 132 1024.59667969 314.794921875 1236.12402344 c 0,22,23
 525.106271678 1451.99609375 525.106271678 1451.99609375 957.773031029 1456.99414062 c 2,24,25
 958.001240622 1405.99707031 958.001240622 1405.99707031 958.229450215 1457 c 1,26,-1
 1051 1457 l 1,27,28
 1051 1276.5 1051 1276.5 1051 1198 c 1,29,-1
 958.076922375 1198 l 1,30,31
 724.876990827 1195.03808594 724.876990827 1195.03808594 589.645341837 1108.22070312 c 0,0,1
800.99536917 736.909179688 m 0,32,33
 759.734841853 750 759.734841853 750 708.307344292 750 c 0,34,35
 614.477107113 750 614.477107113 750 536.900981776 707.818359375 c 128,-1,36
 459.326020774 665.63671875 459.326020774 665.63671875 428.121851908 605.9140625 c 1,37,38
 428.121851908 594.62109375 428.121851908 594.62109375 428.121851908 552.552734375 c 2,39,40
 428.121851908 404.004882812 428.121851908 404.004882812 512.884250761 316.159179688 c 0,41,42
 548.790002981 278.947265625 548.790002981 278.947265625 591.082130806 258.978515625 c 0,43,44
 641.869244305 235 641.869244305 235 704.730508219 235 c 0,45,46
 759.124730492 235 759.124730492 235 801.86745583 248.176757812 c 0,47,48
 853.719935542 264.162109375 853.719935542 264.162109375 890.976315966 300.74609375 c 0,49,50
 963.454984165 371.916992188 963.454984165 371.916992188 963.454984165 491.9921875 c 128,-1,51
 963.454984165 612.06640625 963.454984165 612.06640625 889.93772945 683.6484375 c 0,52,53
 851.787140008 720.794921875 851.787140008 720.794921875 800.99536917 736.909179688 c 0,32,33
EndSplineSet
Substitution2: "Podtablica 'numr' Cyfry frakcji g+APMA-rnej (licznika) w tablicy 25" six.numr
Substitution2: "Podtablica 'dnom' Cyfry frakcji dolnej (mianownika) w tablicy 24" six.dnom
Substitution2: "Podtablica 'lnum' Cyfry zwyk+AUIA-e w tablicy 21" six.pnum
Substitution2: "Podtablica 'tnum' Cyfry tabelaryczne w tablicy 20" six.oldstyle
Substitution2: "Podtablica 'pnum' Cyfry proporcjonalnej szeroko+AVsA-ci w tablicy 19" six.pnum
Substitution2: "Podtablica 'onum' Cyfry nautyczne w tablicy 18" six.oldstyle
Substitution2: "Podtablica 'c2sc' Wersaliki na kapitaliki w tablicy 0" six.c2sc
Position2: "Podtablica 'cpsp' +AVoA-wiat+AUIA-o wersalikowe w tablicy 0" dx=36 dy=0 dh=72 dv=0
EndChar

StartChar: seven
Encoding: 55 55 27
Width: 1354
GlyphClass: 1
Flags: W
LayerCount: 2
Fore
SplineSet
1265 1300.98535156 m 1,0,1
 943.452644801 655.567382812 943.452644801 655.567382812 542.103515625 -0 c 1,2,3
 388.717773438 51 388.717773438 51 235.33203125 0 c 1,4,5
 572.390615538 601 572.390615538 601 924.449961521 1202 c 1,6,-1
 77 1202 l 1,7,8
 77 1278 77 1278 77 1456 c 1,9,-1
 1265 1456 l 1,10,11
 1265 1335.90625 1265 1335.90625 1265 1300.98535156 c 1,0,1
EndSplineSet
Substitution2: "Podtablica 'numr' Cyfry frakcji g+APMA-rnej (licznika) w tablicy 25" seven.numr
Substitution2: "Podtablica 'dnom' Cyfry frakcji dolnej (mianownika) w tablicy 24" seven.dnom
Substitution2: "Podtablica 'pnum' Cyfry proporcjonalnej szeroko+AVsA-ci w tablicy 19" seven.pnum
Substitution2: "Podtablica 'onum' Cyfry nautyczne w tablicy 18" seven.oldstyle
Substitution2: "Podtablica 'c2sc' Wersaliki na kapitaliki w tablicy 0" seven.c2sc
Position2: "Podtablica 'cpsp' +AVoA-wiat+AUIA-o wersalikowe w tablicy 0" dx=36 dy=0 dh=72 dv=0
EndChar

StartChar: eight
Encoding: 56 56 28
Width: 1354
GlyphClass: 1
Flags: W
LayerCount: 2
Fore
SplineSet
1073.87011719 1361.55761719 m 0,0,1
 1208 1247.11523438 1208 1247.11523438 1208 1053.78710938 c 0,2,3
 1208 937.118164062 1208 937.118164062 1141.77246094 845.465820312 c 0,4,5
 1102.34082031 790.895507812 1102.34082031 790.895507812 1045.6640625 750.416992188 c 1,6,7
 1117.44433594 705.78515625 1117.44433594 705.78515625 1166.16210938 641.31640625 c 0,8,9
 1242 540.959960938 1242 540.959960938 1242 414.3828125 c 0,10,11
 1242 215.848632812 1242 215.848632812 1097.13378906 96.716796875 c 0,12,13
 947.159111244 -20 947.159111244 -20 675.582073773 -20 c 128,-1,14
 404.005036301 -20 404.005036301 -20 255.630859375 97.37890625 c 0,15,16
 112 216.9609375 112 216.9609375 112 414.3828125 c 0,17,18
 112 539.521484375 112 539.521484375 185.276367188 640.55859375 c 0,19,20
 232.94921875 706.29296875 232.94921875 706.29296875 305.001953125 751.499023438 c 1,21,22
 248.916992188 792.12890625 248.916992188 792.12890625 210.380859375 846.887695312 c 0,23,24
 146 938.372070312 146 938.372070312 146 1053.78710938 c 0,25,26
 146 1247.05566406 146 1247.05566406 279.599609375 1361.52734375 c 0,27,28
 423.73861779 1476 423.73861779 1476 676.367744371 1476 c 128,-1,29
 928.996870952 1476 928.996870952 1476 1073.87011719 1361.55761719 c 0,0,1
674.619743513 622 m 0,30,31
 551.095124411 622 551.095124411 622 479.051687476 568.127929688 c 128,-1,32
 406.840888756 514.129882812 406.840888756 514.129882812 406.840888756 423.352539062 c 128,-1,33
 406.840888756 332.575195312 406.840888756 332.575195312 476.222808428 282.787109375 c 128,-1,34
 545.6047281 233 545.6047281 233 676.402611409 233 c 128,-1,35
 807.200494718 233 807.200494718 233 877.179802981 283.227539062 c 128,-1,36
 947.159111244 333.456054688 947.159111244 333.456054688 947.159111244 422.822265625 c 128,-1,37
 947.159111244 512.189453125 947.159111244 512.189453125 872.850479049 567.033203125 c 128,-1,38
 798.376809539 622 798.376809539 622 674.619743513 622 c 0,30,31
508.926928194 922.483398438 m 128,-1,40
 570.548607357 876 570.548607357 876 677 876 c 128,-1,41
 783.451392643 876 783.451392643 876 845.073071806 922.483398438 c 128,-1,42
 906.694750969 968.965820312 906.694750969 968.965820312 906.694750969 1047.59375 c 128,-1,43
 906.694750969 1126.22167969 906.694750969 1126.22167969 842.233732647 1174.11035156 c 128,-1,44
 777.772714325 1222 777.772714325 1222 675.086961828 1222 c 128,-1,45
 572.400047095 1222 572.400047095 1222 509.85322918 1176.19628906 c 128,-1,46
 447.305249031 1130.39257812 447.305249031 1130.39257812 447.305249031 1049.6796875 c 128,-1,39
 447.305249031 968.965820312 447.305249031 968.965820312 508.926928194 922.483398438 c 128,-1,40
EndSplineSet
Substitution2: "Podtablica 'numr' Cyfry frakcji g+APMA-rnej (licznika) w tablicy 25" eight.numr
Substitution2: "Podtablica 'dnom' Cyfry frakcji dolnej (mianownika) w tablicy 24" eight.dnom
Substitution2: "Podtablica 'lnum' Cyfry zwyk+AUIA-e w tablicy 21" eight.pnum
Substitution2: "Podtablica 'tnum' Cyfry tabelaryczne w tablicy 20" eight.oldstyle
Substitution2: "Podtablica 'pnum' Cyfry proporcjonalnej szeroko+AVsA-ci w tablicy 19" eight.pnum
Substitution2: "Podtablica 'onum' Cyfry nautyczne w tablicy 18" eight.oldstyle
Substitution2: "Podtablica 'c2sc' Wersaliki na kapitaliki w tablicy 0" eight.c2sc
Position2: "Podtablica 'cpsp' +AVoA-wiat+AUIA-o wersalikowe w tablicy 0" dx=36 dy=0 dh=72 dv=0
EndChar

StartChar: nine
Encoding: 57 57 29
Width: 1354
GlyphClass: 1
Flags: W
LayerCount: 2
Fore
SplineSet
847.463740313 483.752929688 m 0,0,1
 738.203929874 436 738.203929874 436 608.66919921 436 c 0,2,3
 439.913595958 436 439.913595958 436 318.610351562 503.016601562 c 0,4,5
 212.588867188 570.034179688 212.588867188 570.034179688 156.293945312 688.408203125 c 128,-1,6
 100 806.78125 100 806.78125 100 946.944335938 c 0,7,8
 100 1097.078125 100 1097.078125 161.227539062 1220.11816406 c 128,-1,9
 222.455078125 1343.15917969 222.455078125 1343.15917969 337.0859375 1409.57910156 c 0,10,11
 472.244819366 1476 472.244819366 1476 651.643823127 1476 c 0,12,13
 778.247829927 1476 778.247829927 1476 882.29319015 1440.31835938 c 0,14,15
 1007.32714844 1398.22070312 1007.32714844 1398.22070312 1084.91308594 1304.22851562 c 0,16,17
 1220 1140.57714844 1220 1140.57714844 1220 863.799804688 c 2,18,19
 1220 830.724609375 1220 830.724609375 1220 813.368164062 c 2,20,21
 1220 398.81640625 1220 398.81640625 1039.69238281 202.861328125 c 0,22,23
 833.929251823 3.9912109375 833.929251823 3.9912109375 401.872473788 -0.994140625 c 2,24,25
 401.643984577 50.0029296875 401.643984577 50.0029296875 401.415495365 -1 c 1,26,-1
 305 -1 l 1,27,28
 305 179 305 179 305 257 c 1,29,-1
 403.990662038 257 l 1,30,31
 653.51020694 259.923828125 653.51020694 259.923828125 783.079910443 339.24609375 c 0,32,33
 871.709243466 399.388671875 871.709243466 399.388671875 905.122293344 512.3828125 c 1,34,35
 877.391163957 496.833007812 877.391163957 496.833007812 847.463740313 483.752929688 c 0,0,1
552.856046289 704.537109375 m 0,36,37
 593.522462867 691 593.522462867 691 644.481385808 691 c 0,38,39
 735.738344761 691 735.738344761 691 812.138841931 733.385742188 c 128,-1,40
 888.540504862 775.771484375 888.540504862 775.771484375 925.010180824 835.038085938 c 1,41,42
 925.010180824 848.607421875 925.010180824 848.607421875 925.010180824 892.567382812 c 2,43,44
 925.010180824 1044.02832031 925.010180824 1044.02832031 841.511363205 1136.08984375 c 0,45,46
 806.479070905 1174.71484375 806.479070905 1174.71484375 764.793778966 1195.36816406 c 0,47,48
 715.077557552 1220 715.077557552 1220 652.83756268 1220 c 0,49,50
 600.20693806 1220 600.20693806 1220 557.892135029 1206.65429688 c 0,51,52
 505.804755166 1190.22558594 505.804755166 1190.22558594 466.627015746 1152.40332031 c 0,53,54
 391.408600517 1079.79003906 391.408600517 1079.79003906 391.408600517 957.82421875 c 128,-1,55
 391.408600517 835.859375 391.408600517 835.859375 464.827080326 760.151367188 c 0,56,57
 502.505650737 721.296875 502.505650737 721.296875 552.856046289 704.537109375 c 0,36,37
EndSplineSet
Substitution2: "Podtablica 'numr' Cyfry frakcji g+APMA-rnej (licznika) w tablicy 25" nine.numr
Substitution2: "Podtablica 'dnom' Cyfry frakcji dolnej (mianownika) w tablicy 24" nine.dnom
Substitution2: "Podtablica 'pnum' Cyfry proporcjonalnej szeroko+AVsA-ci w tablicy 19" nine.pnum
Substitution2: "Podtablica 'onum' Cyfry nautyczne w tablicy 18" nine.oldstyle
Substitution2: "Podtablica 'c2sc' Wersaliki na kapitaliki w tablicy 0" nine.c2sc
Position2: "Podtablica 'cpsp' +AVoA-wiat+AUIA-o wersalikowe w tablicy 0" dx=36 dy=0 dh=72 dv=0
EndChar

StartChar: colon
Encoding: 58 58 30
Width: 496
GlyphClass: 1
Flags: W
LayerCount: 2
Fore
SplineSet
125.40724054 1093.89672699 m 0
 169.139843061 1143 169.139843061 1143 248.737903136 1143 c 0
 328.335963211 1143 328.335963211 1143 372.167981606 1095.45340378 c 0
 416 1047.90680755 416 1047.90680755 416 980.766528717 c 0
 416 913.626249882 416 913.626249882 371.927832717 867.313124941 c 0
 327.855665435 821 327.855665435 821 248.739090101 821 c 0
 169.622514768 821 169.622514768 821 126.811257384 867.566630839 c 0
 84 914.133261678 84 914.133261678 84 980.768824208 c 0
 84 1047.40438674 84 1047.40438674 125.40724054 1093.89672699 c 0
124.40724054 210.896726994 m 0
 168.139843061 260 168.139843061 260 247.737903136 260 c 0
 327.335963211 260 327.335963211 260 371.167981606 212.453403776 c 0
 415 164.906807551 415 164.906807551 415 97.7665287167 c 0
 415 30.6262498824 415 30.6262498824 370.927832717 -15.6868750588 c 0
 326.855665435 -62 326.855665435 -62 247.739090101 -62 c 0
 168.622514768 -62 168.622514768 -62 125.811257384 -15.4333691612 c 0
 83 31.1332616777 83 31.1332616777 83 97.7688242083 c 0
 83 164.404386739 83 164.404386739 124.40724054 210.896726994 c 0
EndSplineSet
EndChar

StartChar: semicolon
Encoding: 59 59 31
Width: 433
GlyphClass: 1
Flags: W
LayerCount: 2
Fore
SplineSet
88 270 m 1
 371 270 l 1
 371 74 l 2
 371 -38.8367073683 371 -38.8367073683 316.442519242 -150.156011541 c 0
 261.885038484 -261.475315714 261.885038484 -261.475315714 178.145893365 -329.583153744 c 2
 148.59822286 -353.615259088 l 1
 -30.8037052201 -230.596794119 l 1
 -0.463274580113 -188.313853547 l 2
 84.2258156537 -70.2896958805 84.2258156537 -70.2896958805 88 52.7702907107 c 1
 88 270 l 1
101.40724054 1093.89672699 m 0
 145.139843061 1143 145.139843061 1143 224.737903136 1143 c 0
 304.335963211 1143 304.335963211 1143 348.167981606 1095.45340378 c 0
 392 1047.90680755 392 1047.90680755 392 980.766528717 c 0
 392 913.626249882 392 913.626249882 347.927832717 867.313124941 c 0
 303.855665435 821 303.855665435 821 224.739090101 821 c 0
 145.622514768 821 145.622514768 821 102.811257384 867.566630839 c 0
 60 914.133261678 60 914.133261678 60 980.768824208 c 0
 60 1047.40438674 60 1047.40438674 101.40724054 1093.89672699 c 0
EndSplineSet
EndChar

StartChar: less
Encoding: 60 60 32
Width: 1041
GlyphClass: 1
Flags: W
LayerCount: 2
Fore
SplineSet
941 425.404809873 m 1
 941 115.155566958 l 1
 21 541.414735662 l 1
 21 752.62148334 l 1
 941 1177.75595767 l 1
 941 867.848863318 l 1
 398.984388539 644.462237508 l 1
 941 425.404809873 l 1
EndSplineSet
EndChar

StartChar: equal
Encoding: 61 61 33
Width: 1124
GlyphClass: 1
Flags: W
LayerCount: 2
Fore
SplineSet
1037 763 m 1
 101 763 l 1
 101 1026 l 1
 1037 1026 l 1
 1037 763 l 1
1037 348 m 1
 101 348 l 1
 101 610 l 1
 1037 610 l 1
 1037 348 l 1
EndSplineSet
EndChar

StartChar: greater
Encoding: 62 62 34
Width: 1070
GlyphClass: 1
Flags: W
LayerCount: 2
Fore
SplineSet
83 874.198759608 m 1
 83 1177.35386087 l 1
 1039 754.206319889 l 1
 1039 541.8292483 l 1
 83 117.562269378 l 1
 83 422.654513988 l 1
 655.880511238 649.726668216 l 1
 83 874.198759608 l 1
EndSplineSet
EndChar

StartChar: question
Encoding: 63 63 35
Width: 967
GlyphClass: 1
Flags: W
LayerCount: 2
Fore
SplineSet
650 1090 m 0
 650 1175.0536043 650 1175.0536043 609.352506189 1219.02680215 c 0
 568.705012378 1263 568.705012378 1263 485.893552844 1263 c 0
 403.08209331 1263 403.08209331 1263 355.470136409 1221.53152141 c 0
 330.897095162 1200.12919516 330.897095162 1200.12919516 320.948547581 1173.21195554 c 0
 311 1146.29471591 311 1146.29471591 311 1115 c 2
 311 1064 l 1
 23.3664108919 1064 l 1
 24.0039556672 1115.6411268 l 2
 26.2843181974 1300.35049175 26.2843181974 1300.35049175 156.905231082 1414.85957397 c 0
 284.824209517 1527 284.824209517 1527 486 1527 c 0
 695.535630361 1527 695.535630361 1527 816.26781518 1410.84533878 c 0
 937 1294.69067755 937 1294.69067755 937 1097.64816099 c 0
 937 900.605644433 937 900.605644433 760.411352279 715.296569664 c 1
 651.983585889 607.863553424 l 1
 593 541.415900059 593 541.415900059 593 410 c 2
 593 359 l 1
 305.135521779 359 l 1
 306.007325574 410.872325798 l 2
 308.150605786 538.397498409 308.150605786 538.397498409 336.323204189 616.15387 c 0
 364.495802591 693.910241591 364.495802591 693.910241591 448.89411237 785.981124986 c 1
 579.548780252 920.625248376 l 1
 650 1000.75937037 650 1000.75937037 650 1090 c 0
298 92.7563235751 m 0
 298 157.582854893 298 157.582854893 339.663467057 203.791427446 c 0
 381.326934113 250 381.326934113 250 457.863126704 250 c 0
 534.399319295 250 534.399319295 250 576.699659648 203.922843545 c 0
 619 157.84568709 619 157.84568709 619 92.7550804205 c 0
 619 27.6644737512 619 27.6644737512 576.447368389 -17.1677631244 c 0
 533.894736779 -62 533.894736779 -62 457.863796984 -62 c 0
 381.832857189 -62 381.832857189 -62 339.916428595 -17.0351038713 c 0
 298 27.9297922575 298 27.9297922575 298 92.7563235751 c 0
EndSplineSet
EndChar

StartChar: at
Encoding: 64 64 36
Width: 1839
GlyphClass: 1
Flags: W
LayerCount: 2
Fore
SplineSet
1658.40301718 88.8890656527 m 0
 1535.06002367 -71 1535.06002367 -71 1325.88119136 -71 c 0
 1232.04849984 -71 1232.04849984 -71 1163.52076069 -30.8512286739 c 0
 1112.82031991 -1.14704715424 1112.82031991 -1.14704715424 1078.9019005 50.2795149605 c 1
 1038.55413996 5.72212120976 1038.55413996 5.72212120976 991.591896869 -22.320081501 c 0
 910.067696009 -71 910.067696009 -71 822 -71 c 0
 747.639123067 -71 747.639123067 -71 688.02089494 -43.3923574342 c 0
 612.438593731 -8.39217004808 612.438593731 -8.39217004808 563.804002562 68.890194001 c 0
 498.076086957 173.334553046 498.076086957 173.334553046 498.076086957 336.122046314 c 0
 498.076086957 377.052386871 498.076086957 377.052386871 502.21116793 421.667734218 c 0
 518.015258667 595.512732318 518.015258667 595.512732318 583.006128939 734.625421579 c 0
 647.996999211 873.73811084 647.996999211 873.73811084 753.301720411 955.335486429 c 0
 862.56470752 1040 862.56470752 1040 985 1040 c 0
 1074.36822521 1040 1074.36822521 1040 1146.4691661 1015.77859017 c 0
 1218.57010699 991.557180339 1218.57010699 991.557180339 1305.51527043 923.087864136 c 2
 1327.37419367 905.873962083 l 1
 1272.80310525 324.481981626 l 2
 1270.8253012 300.309725831 1270.8253012 300.309725831 1270.8253012 279.146719408 c 0
 1270.8253012 175.523217454 1270.8253012 175.523217454 1314.77923236 155.469182106 c 0
 1328.95822327 149 1328.95822327 149 1350 149 c 0
 1396.74219094 149 1396.74219094 149 1433.13510771 174.411512957 c 0
 1464.1543625 196.070842989 1464.1543625 196.070842989 1489.72006404 236.97596544 c 0
 1552.48448599 337.399040574 1552.48448599 337.399040574 1558.02873397 503.726479704 c 0
 1559.97808219 551.176440047 1559.97808219 551.176440047 1559.97808219 580.992081066 c 0
 1559.97808219 894.335219816 1559.97808219 894.335219816 1424.68540152 1063.14076634 c 0
 1276.52616278 1248 1276.52616278 1248 967 1248 c 0
 780.876136211 1248 780.876136211 1248 637.371829506 1156.47000951 c 0
 493.719570121 1064.84565176 493.719570121 1064.84565176 409.102321332 888.089620954 c 0
 312.285714286 685.850486235 312.285714286 685.850486235 312.285714286 408.479591837 c 0
 312.285714286 213.648529221 312.285714286 213.648529221 370.46173667 66.1884724824 c 0
 436.504737366 -101.212189005 436.504737366 -101.212189005 570.850344215 -189.106094502 c 0
 705.195951064 -277 705.195951064 -277 899 -277 c 0
 982.850503326 -277 982.850503326 -277 1066.80182633 -256.591943579 c 0
 1150.75314933 -236.183887159 1150.75314933 -236.183887159 1204.35727551 -204.914813556 c 2
 1259.12272865 -172.968299224 l 1
 1327.68737289 -386.074625915 l 1
 1294.10119404 -407.201415837 l 2
 1225.10818157 -450.600246262 1225.10818157 -450.600246262 1115.6386864 -477.300123131 c 0
 1006.16919124 -504 1006.16919124 -504 895 -504 c 0
 630.376137018 -504 630.376137018 -504 437.336899065 -383.350476279 c 0
 244.297661112 -262.700952559 244.297661112 -262.700952559 148.508821521 -36.3396165408 c 0
 65.5812807882 159.628817705 65.5812807882 159.628817705 65.5812807882 412.083137179 c 0
 65.5812807882 738.637551519 65.5812807882 738.637551519 195.45828008 995.464784113 c 0
 312.864152334 1227.63225222 312.864152334 1227.63225222 515.081190319 1354.81612611 c 0
 717.298228304 1482 717.298228304 1482 971 1482 c 0
 1234.70701644 1482 1234.70701644 1482 1425.83110231 1361.74214822 c 0
 1616.95518819 1241.48429643 1616.95518819 1241.48429643 1710.1715764 1015.40776869 c 0
 1790.45454545 820.698498917 1790.45454545 820.698498917 1790.45454545 569.548209366 c 0
 1790.45454545 535.204222356 1790.45454545 535.204222356 1788.95358064 499.806468891 c 2
 1788.93660731 499.437430914 l 2
 1776.14734292 241.520599021 1776.14734292 241.520599021 1658.40301718 88.8890656527 c 0
759.403669725 348.401060517 m 0
 759.403669725 268.22396446 759.403669725 268.22396446 783.539576766 222.931891987 c 0
 798.411449056 195.024181024 798.411449056 195.024181024 821.099565051 183.567059325 c 0
 840.044860162 174 840.044860162 174 867 174 c 0
 907.140200513 174 907.140200513 174 948.010666392 211.556644322 c 0
 992.897955656 252.804423645 992.897955656 252.804423645 1024.038489 332.206204995 c 1
 1024.25897688 334.190595894 l 1
 1066.8295171 799.690198788 l 1
 1035.64093871 810 1035.64093871 810 1001 810 c 0
 952.060629645 810 952.060629645 810 912.686442666 782.454272484 c 0
 878.968896152 758.865865457 878.968896152 758.865865457 850.431578564 714.474482544 c 0
 781.36628761 607.039585504 781.36628761 607.039585504 762.75209373 411.944519085 c 0
 759.403669725 377.981932744 759.403669725 377.981932744 759.403669725 348.401060517 c 0
EndSplineSet
EndChar

StartChar: A
Encoding: 65 65 37
Width: 1540
GlyphClass: 2
Flags: W
LayerCount: 2
Fore
SplineSet
490.06954141 329 m 1,0,-1
 335.913085938 -0 l 1,1,2
 181.95703125 51 181.95703125 51 28 -0 c 1,3,4
 325.475585938 728 325.475585938 728 658.895738276 1456 c 1,5,6
 792.927726043 1405 792.927726043 1405 926.95971381 1456 c 1,7,8
 1261.19042969 728 1261.19042969 728 1559.20117188 0 c 1,9,10
 1405.80957031 51 1405.80957031 51 1252.41699219 -0 c 1,11,-1
 1096.01007751 329 l 1,12,-1
 490.06954141 329 l 1,0,-1
990.014328089 589 m 1,13,-1
 793.049699174 1069.66503906 l 1,14,-1
 596.879543894 589 l 1,15,-1
 990.014328089 589 l 1,13,-1
EndSplineSet
Substitution2: "Podtablica 'c2sc' Wersaliki na kapitaliki w tablicy 0" A.c2sc
Position2: "Podtablica 'cpsp' +AVoA-wiat+AUIA-o wersalikowe w tablicy 0" dx=36 dy=0 dh=72 dv=0
EndChar

StartChar: B
Encoding: 66 66 38
Width: 1479
GlyphClass: 2
Flags: W
LayerCount: 2
Fore
SplineSet
734.236822383 0 m 2,0,-1
 169 0 l 1,1,2
 169 728 169 728 169 1456 c 1,3,-1
 696 1456 l 2,4,5
 1032.51648471 1456 1032.51648471 1456 1186.80664062 1353.62402344 c 0,6,7
 1325 1247.71289062 1325 1247.71289062 1325 1045.74023438 c 0,8,9
 1325 934.73046875 1325 934.73046875 1257.04394531 848.776367188 c 0,10,11
 1221.61132812 803.959960938 1221.61132812 803.959960938 1172.26660156 769.828125 c 1,12,13
 1239.20214844 732.990234375 1239.20214844 732.990234375 1285.51074219 674.551757812 c 0,14,15
 1364 575.500976562 1364 575.500976562 1364 440.1640625 c 0,16,17
 1364 235.4921875 1364 235.4921875 1219.70898438 116.57421875 c 0,18,19
 1065.18311267 0 1065.18311267 0 734.236822383 0 c 2,0,-1
463 630 m 1,20,-1
 463 259 l 1,21,-1
 739.51086685 259 l 2,22,23
 890.475239274 259 890.475239274 259 973.510537019 308.650390625 c 0,24,25
 1053.31651262 356.370117188 1053.31651262 356.370117188 1053.31651262 443.62109375 c 0,26,27
 1053.31651262 549.40234375 1053.31651262 549.40234375 964.383967883 593.025390625 c 0,28,29
 889.006077961 630 889.006077961 630 743.4664002 630 c 2,30,-1
 463 630 l 1,20,-1
696 1196 m 2,31,-1
 463 1196 l 1,32,-1
 463 886 l 1,33,-1
 703.9110667 886 l 2,34,35
 845.690927605 886 845.690927605 886 926.550166965 929.943359375 c 0,36,37
 1001.89457907 970.889648438 1001.89457907 970.889648438 1001.89457907 1043.14648438 c 0,38,39
 1001.89457907 1124.79589844 1001.89457907 1124.79589844 935.584028287 1158.41992188 c 0,40,41
 861.471857533 1196 861.471857533 1196 696 1196 c 2,31,-1
EndSplineSet
Substitution2: "Podtablica 'c2sc' Wersaliki na kapitaliki w tablicy 0" B.c2sc
Position2: "Podtablica 'cpsp' +AVoA-wiat+AUIA-o wersalikowe w tablicy 0" dx=36 dy=0 dh=72 dv=0
EndChar

StartChar: C
Encoding: 67 67 39
Width: 1537
GlyphClass: 2
Flags: W
LayerCount: 2
Fore
SplineSet
1256.18945312 118.28515625 m 0,0,1
 1083.26908989 -20 1083.26908989 -20 790.738774791 -20 c 0,2,3
 470.043435362 -20 470.043435362 -20 286.4453125 170.244140625 c 0,4,5
 119 356.340820312 119 356.340820312 119 664.340820312 c 2,6,7
 119 729.752929688 119 729.752929688 119 795.404296875 c 2,8,9
 119 996.135742188 119 996.135742188 197.138671875 1151.51953125 c 128,-1,10
 275.278320312 1306.90332031 275.278320312 1306.90332031 428.630689818 1391.45117188 c 0,11,12
 594.355035778 1476 594.355035778 1476 810.089029097 1476 c 0,13,14
 1096.87807216 1476 1096.87807216 1476 1264.38769531 1333.15136719 c 0,15,16
 1418.81933594 1190.30175781 1418.81933594 1190.30175781 1443.74316406 942.1484375 c 2,17,18
 1446.5625 863.07421875 1446.5625 863.07421875 1449.38183594 886 c 1,19,-1
 1149.05750907 886 l 1,20,21
 1145.48491501 856.84765625 1145.48491501 856.84765625 1141.91232095 929.6953125 c 2,22,23
 1116.34948787 1086.00390625 1116.34948787 1086.00390625 1037.14772318 1151.00195312 c 128,-1,24
 957.947070056 1216 957.947070056 1216 810.089029097 1216 c 0,25,26
 728.380668385 1216 728.380668385 1216 663.624900069 1195.05664062 c 0,27,28
 584.203044017 1169.36914062 584.203044017 1169.36914062 527.760726526 1110.93554688 c 0,29,30
 420.807442472 1000.20898438 420.807442472 1000.20898438 420.807442472 788.619140625 c 2,31,32
 420.807442472 725.040039062 420.807442472 725.040039062 420.807442472 660.948242188 c 2,33,34
 420.807442472 461.022460938 420.807442472 461.022460938 522.873142186 346.206054688 c 0,35,36
 576.066333222 286.365234375 576.066333222 286.365234375 651.537660563 260.22265625 c 0,37,38
 712.801979616 239 712.801979616 239 790.738774791 239 c 0,39,40
 951.575536411 239 951.575536411 239 1032.51357737 299.295898438 c 128,-1,41
 1113.45161833 359.591796875 1113.45161833 359.591796875 1142.01125091 520.888671875 c 2,42,43
 1145.82839092 593.444335938 1145.82839092 593.444335938 1149.64441935 564 c 1,44,-1
 1450.3125 564 l 1,45,46
 1446.98242188 586.513671875 1446.98242188 586.513671875 1443.65332031 507.026367188 c 2,47,48
 1414.37890625 256.5703125 1414.37890625 256.5703125 1256.18945312 118.28515625 c 0,0,1
EndSplineSet
Substitution2: "Podtablica 'ss06' Styl 6 w tablicy 16" C.ss06
Substitution2: "Podtablica 'c2sc' Wersaliki na kapitaliki w tablicy 0" C.c2sc
Position2: "Podtablica 'cpsp' +AVoA-wiat+AUIA-o wersalikowe w tablicy 0" dx=36 dy=0 dh=72 dv=0
EndChar

StartChar: D
Encoding: 68 68 40
Width: 1547
GlyphClass: 2
Flags: W
LayerCount: 2
Fore
SplineSet
220 0 m 2,0,-1
 169 0 l 1,1,2
 169 728 169 728 169 1456 c 1,3,-1
 631 1456 l 2,4,5
 881.066030246 1456 881.066030246 1456 1075.64005143 1370.81054688 c 0,6,7
 1253.50488281 1285.62207031 1253.50488281 1285.62207031 1339.22167969 1129.44238281 c 128,-1,8
 1424.93847656 973.263671875 1424.93847656 973.263671875 1426 773.791992188 c 1,9,10
 1426 760.750976562 1426 760.750976562 1426 752.297851562 c 1,11,12
 1426 730.40234375 1426 730.40234375 1426 708.841796875 c 1,13,14
 1426 699.834960938 1426 699.834960938 1426 686.880859375 c 2,15,16
 1426 482.849609375 1426 482.849609375 1340.19140625 326.502929688 c 128,-1,17
 1254.38378906 170.157226562 1254.38378906 170.157226562 1074.94086963 86.0771484375 c 0,18,19
 878.588312221 1.99609375 878.588312221 1.99609375 623.530273438 0.0029296875 c 1,20,-1
 623.264648438 0.0029296875 l 2,21,22
 421.5 0.0029296875 421.5 0.0029296875 220 0 c 2,0,-1
636.835709539 1196 m 1,23,-1
 463 1196 l 1,24,25
 463 727.5 463 727.5 463 259 c 1,26,-1
 614 259 l 2,27,28
 854.769358838 259 854.769358838 259 987.739826404 368.111328125 c 0,29,30
 1123.45425275 479.473632812 1123.45425275 479.473632812 1123.45425275 691.877929688 c 2,31,32
 1123.45425275 729.939453125 1123.45425275 729.939453125 1123.45425275 768.533203125 c 2,33,34
 1123.45425275 975.333984375 1123.45425275 975.333984375 995.213756089 1086.48242188 c 0,35,36
 870.784579798 1194.328125 870.784579798 1194.328125 636.835709539 1196 c 1,23,-1
EndSplineSet
Substitution2: "Podtablica 'ss06' Styl 6 w tablicy 16" D.ss06
Substitution2: "Podtablica 'c2sc' Wersaliki na kapitaliki w tablicy 0" D.c2sc
Position2: "Podtablica 'cpsp' +AVoA-wiat+AUIA-o wersalikowe w tablicy 0" dx=36 dy=0 dh=72 dv=0
EndChar

StartChar: E
Encoding: 69 69 41
Width: 1368
GlyphClass: 2
Flags: W
LayerCount: 2
Fore
SplineSet
472.188914619 1196 m 1,0,-1
 472.188914619 881 l 1,1,-1
 1196 881 l 1,2,-1
 1196 622 l 1,3,-1
 472.188914619 622 l 1,4,-1
 472.188914619 259 l 1,5,-1
 1298 259 l 1,6,7
 1298 180.5 1298 180.5 1298 0 c 1,8,-1
 169 0 l 1,9,10
 169 728 169 728 169 1456 c 1,11,-1
 1288 1456 l 1,12,13
 1288 1275 1288 1275 1288 1196 c 1,14,-1
 472.188914619 1196 l 1,0,-1
EndSplineSet
Substitution2: "Podtablica 'c2sc' Wersaliki na kapitaliki w tablicy 0" E.c2sc
Position2: "Podtablica 'cpsp' +AVoA-wiat+AUIA-o wersalikowe w tablicy 0" dx=36 dy=0 dh=72 dv=0
EndChar

StartChar: F
Encoding: 70 70 42
Width: 1336
GlyphClass: 2
Flags: W
LayerCount: 2
Fore
SplineSet
472.601311271 1196 m 1,0,-1
 472.601311271 851 l 1,1,-1
 1176 851 l 1,2,-1
 1176 592 l 1,3,-1
 472.601311271 592 l 1,4,-1
 472.601311271 0 l 1,5,-1
 169 0 l 1,6,7
 169 728 169 728 169 1456 c 1,8,-1
 1275 1456 l 1,9,10
 1275 1275 1275 1275 1275 1196 c 1,11,-1
 472.601311271 1196 l 1,0,-1
EndSplineSet
Substitution2: "Podtablica 'c2sc' Wersaliki na kapitaliki w tablicy 0" F.c2sc
Position2: "Podtablica 'cpsp' +AVoA-wiat+AUIA-o wersalikowe w tablicy 0" dx=36 dy=0 dh=72 dv=0
EndChar

StartChar: G
Encoding: 71 71 43
Width: 1599
GlyphClass: 2
Flags: W
LayerCount: 2
Fore
SplineSet
1438.84667969 201.456054688 m 2,0,1
 1356.02441406 90.46875 1356.02441406 90.46875 1209.13272864 36.0654296875 c 0,2,3
 1048.14047493 -20 1048.14047493 -20 833.111178758 -20 c 128,-1,4
 618.081882587 -20 618.081882587 -20 446.856434792 65.2470703125 c 0,5,6
 286.786132812 150.494140625 286.786132812 150.494140625 205.451171875 305.806640625 c 128,-1,7
 124.116210938 461.119140625 124.116210938 461.119140625 122.002929688 661.989257812 c 1,8,9
 122.002929688 666.314453125 122.002929688 666.314453125 122.002929688 662.228515625 c 2,10,11
 122.002929688 721.915039062 122.002929688 721.915039062 122 781.361328125 c 0,12,13
 122 1106.86816406 122 1106.86816406 287.590820312 1289.66210938 c 0,14,15
 468.60280554 1476 468.60280554 1476 811.760358182 1476 c 0,16,17
 1092.25654128 1476 1092.25654128 1476 1260.11132812 1347.28125 c 0,18,19
 1413.69042969 1218.5625 1413.69042969 1218.5625 1447.47167969 985.36328125 c 2,20,21
 1451.69824219 905.181640625 1451.69824219 905.181640625 1455.92578125 927 c 1,22,-1
 1156.09122819 927 l 1,23,24
 1151.67128834 896.794921875 1151.67128834 896.794921875 1147.25023739 968.58984375 c 2,25,26
 1117.48286467 1108.60839844 1117.48286467 1108.60839844 1020.12530059 1167.98339844 c 0,27,28
 941.391927529 1216 941.391927529 1216 812.898120477 1216 c 0,29,30
 726.443741366 1216 726.443741366 1216 660.130199296 1195.01464844 c 0,31,32
 579.887957874 1169.62011719 579.887957874 1169.62011719 526.902012223 1112.19628906 c 0,33,34
 424.846734293 1001.59179688 424.846734293 1001.59179688 423.783415429 784.091796875 c 2,35,36
 423.783415429 729.959960938 423.783415429 729.959960938 423.783415429 676.340820312 c 2,37,38
 423.783415429 470.291992188 423.783415429 470.291992188 539.074068812 351.915039062 c 0,39,40
 600.34879056 289.000976562 600.34879056 289.000976562 684.582088784 261.383789062 c 0,41,42
 752.853381992 239 752.853381992 239 837.928890978 239 c 0,43,44
 952.351778391 239 952.351778391 239 1036.47618921 257.521484375 c 0,45,46
 1102.20640588 271.994140625 1102.20640588 271.994140625 1147.40023534 302.57421875 c 1,47,-1
 1147.40023534 518 l 1,48,-1
 763.974341772 518 l 1,49,-1
 763.974341772 776 l 1,50,-1
 1448 776 l 1,51,-1
 1448 213.721679688 l 1,52,53
 1443.42285156 244.240234375 1443.42285156 244.240234375 1438.84667969 201.456054688 c 2,0,1
EndSplineSet
Substitution2: "Podtablica 'ss06' Styl 6 w tablicy 16" G.ss06
Substitution2: "Podtablica 'c2sc' Wersaliki na kapitaliki w tablicy 0" G.c2sc
Position2: "Podtablica 'cpsp' +AVoA-wiat+AUIA-o wersalikowe w tablicy 0" dx=36 dy=0 dh=72 dv=0
EndChar

StartChar: H
Encoding: 72 72 44
Width: 1664
GlyphClass: 2
Flags: W
LayerCount: 2
Fore
SplineSet
1492 1456 m 1,0,1
 1492 728 1492 728 1492 0 c 1,2,-1
 1197 0 l 1,3,-1
 1197 622 l 1,4,-1
 463 622 l 1,5,-1
 463 0 l 1,6,-1
 169 0 l 1,7,8
 169 728 169 728 169 1456 c 1,9,-1
 463 1456 l 1,10,-1
 463 881 l 1,11,-1
 1197 881 l 1,12,-1
 1197 1456 l 1,13,-1
 1492 1456 l 1,0,1
EndSplineSet
Substitution2: "Podtablica 'c2sc' Wersaliki na kapitaliki w tablicy 0" H.c2sc
Position2: "Podtablica 'cpsp' +AVoA-wiat+AUIA-o wersalikowe w tablicy 0" dx=36 dy=0 dh=72 dv=0
EndChar

StartChar: I
Encoding: 73 73 45
Width: 659
GlyphClass: 2
Flags: W
LayerCount: 2
Fore
SplineSet
477 1456 m 1,0,1
 477 728 477 728 477 0 c 1,2,-1
 183 0 l 1,3,4
 183 728 183 728 183 1456 c 1,5,-1
 477 1456 l 1,0,1
EndSplineSet
Substitution2: "Podtablica 'c2sc' Wersaliki na kapitaliki w tablicy 0" I.c2sc
Position2: "Podtablica 'cpsp' +AVoA-wiat+AUIA-o wersalikowe w tablicy 0" dx=36 dy=0 dh=72 dv=0
EndChar

StartChar: J
Encoding: 74 74 46
Width: 1334
GlyphClass: 2
Flags: W
LayerCount: 2
Fore
SplineSet
881 455.086914062 m 2,0,1
 881 947.188476562 881 947.188476562 881 1456 c 1,2,-1
 1176 1456 l 1,3,4
 1176 934.975585938 1176 934.975585938 1176 443.939453125 c 2,5,6
 1176 227.8359375 1176 227.8359375 1035.09863281 103.91796875 c 128,-1,7
 894.196289062 -20 894.196289062 -20 619.122938531 -20 c 0,8,9
 331.985699533 -20 331.985699533 -20 190.54296875 104.4140625 c 0,10,11
 53 231 53 231 53 453 c 2,12,13
 53 529.5 53 529.5 53 504 c 1,14,-1
 357.245877061 504 l 1,15,16
 357.245877061 529.5 357.245877061 529.5 357.245877061 453 c 2,17,18
 357.245877061 348.788085938 357.245877061 348.788085938 422.372972693 293.893554688 c 128,-1,19
 487.500068325 239 487.500068325 239 619.122938531 239 c 0,20,21
 737.436708404 239 737.436708404 239 808.676684119 294.322265625 c 128,-1,22
 879.917843812 349.645507812 879.917843812 349.645507812 881 455.086914062 c 2,0,1
EndSplineSet
Substitution2: "Podtablica 'c2sc' Wersaliki na kapitaliki w tablicy 0" J.c2sc
Position2: "Podtablica 'cpsp' +AVoA-wiat+AUIA-o wersalikowe w tablicy 0" dx=36 dy=0 dh=72 dv=0
EndChar

StartChar: K
Encoding: 75 75 47
Width: 1488
GlyphClass: 2
Flags: W
LayerCount: 2
Fore
SplineSet
841.123114169 805.032226562 m 1,0,1
 1213.41503906 423.825195312 1213.41503906 423.825195312 1540.82128906 -0 c 1,2,3
 1361.78808594 51 1361.78808594 51 1182.75488281 -0 c 1,4,5
 894.24124482 375.890625 894.24124482 375.890625 605.727606828 649.78125 c 1,6,7
 534.363234511 637.122070312 534.363234511 637.122070312 463 522.462890625 c 1,8,9
 463 312.231445312 463 312.231445312 463 0 c 1,10,-1
 169 0 l 1,11,12
 169 728 169 728 169 1456 c 1,13,-1
 463 1456 l 1,14,15
 463 1086.02148438 463 1086.02148438 463 818.041992188 c 1,16,17
 800.637695312 1086.02148438 800.637695312 1086.02148438 1138.27539062 1456 c 1,18,19
 1322.51171875 1405 1322.51171875 1405 1506.74707031 1456 c 1,20,21
 1196.37792969 1104.1640625 1196.37792969 1104.1640625 841.123114169 805.032226562 c 1,0,1
EndSplineSet
Substitution2: "Podtablica 'ss05' Styl 5 w tablicy 15" K.ss05
Substitution2: "Podtablica 'ss04' Styl 4 w tablicy 14" K.ss04
Substitution2: "Podtablica 'c2sc' Wersaliki na kapitaliki w tablicy 0" K.c2sc
Position2: "Podtablica 'cpsp' +AVoA-wiat+AUIA-o wersalikowe w tablicy 0" dx=36 dy=0 dh=72 dv=0
EndChar

StartChar: L
Encoding: 76 76 48
Width: 1306
GlyphClass: 2
Flags: W
LayerCount: 2
Fore
SplineSet
464 1456 m 1,0,1
 464 857.5 464 857.5 464 259 c 1,2,-1
 1256 259 l 1,3,4
 1256 180.5 1256 180.5 1256 0 c 1,5,-1
 169 0 l 1,6,7
 169 728 169 728 169 1456 c 1,8,-1
 464 1456 l 1,0,1
EndSplineSet
Substitution2: "Podtablica 'c2sc' Wersaliki na kapitaliki w tablicy 0" L.c2sc
Position2: "Podtablica 'cpsp' +AVoA-wiat+AUIA-o wersalikowe w tablicy 0" dx=36 dy=0 dh=72 dv=0
EndChar

StartChar: M
Encoding: 77 77 49
Width: 2094
GlyphClass: 2
Flags: W
LayerCount: 2
Fore
SplineSet
452.86328125 943.704101562 m 1,0,1
 457.931640625 832.256835938 457.931640625 832.256835938 463 618.809570312 c 1,2,3
 463 360.404296875 463 360.404296875 463 0 c 1,4,-1
 169 0 l 1,5,6
 169 728 169 728 169 1456 c 1,7,8
 335.7578125 1405 335.7578125 1405 502.516601562 1456 c 1,9,10
 748.757756094 854.072265625 748.757756094 854.072265625 1046 354.145507812 c 1,11,12
 1241.24224391 854.072265625 1241.24224391 854.072265625 1487.48339844 1456 c 1,13,-1
 1822 1456 l 1,14,15
 1924 728 1924 728 1924 0 c 1,16,-1
 1630 0 l 1,17,18
 1630 360.381835938 1630 360.381835938 1630 618.762695312 c 1,19,20
 1532.84082031 834.345703125 1532.84082031 834.345703125 1537.68164062 947.928710938 c 1,21,22
 1397.84031135 524.96484375 1397.84031135 524.96484375 1153.36425781 0 c 1,23,24
 1045.50292969 51 1045.50292969 51 937.641601562 0 c 1,25,26
 693.865744657 522.852539062 693.865744657 522.852539062 452.86328125 943.704101562 c 1,0,1
EndSplineSet
Substitution2: "Podtablica 'c2sc' Wersaliki na kapitaliki w tablicy 0" M.c2sc
Position2: "Podtablica 'cpsp' +AVoA-wiat+AUIA-o wersalikowe w tablicy 0" dx=36 dy=0 dh=72 dv=0
EndChar

StartChar: N
Encoding: 78 78 50
Width: 1664
GlyphClass: 2
Flags: W
LayerCount: 2
Fore
SplineSet
1492 1456 m 1,0,1
 1492 728 1492 728 1492 0 c 1,2,3
 1356.20117188 51 1356.20117188 51 1220.40234375 -0 c 1,4,5
 845.680489864 551.845703125 845.680489864 551.845703125 467.632743666 1001.69140625 c 1,6,7
 467.632743666 551.845703125 467.632743666 551.845703125 467.632743666 0 c 1,8,-1
 169 0 l 1,9,10
 169 728 169 728 169 1456 c 1,11,12
 304.811523438 1405 304.811523438 1405 440.623046875 1456 c 1,13,14
 819.811523438 901.778320312 819.811523438 901.778320312 1199 449.555664062 c 1,15,16
 1199 901.778320312 1199 901.778320312 1199 1456 c 1,17,-1
 1492 1456 l 1,0,1
EndSplineSet
Substitution2: "Podtablica 'c2sc' Wersaliki na kapitaliki w tablicy 0" N.c2sc
Position2: "Podtablica 'cpsp' +AVoA-wiat+AUIA-o wersalikowe w tablicy 0" dx=36 dy=0 dh=72 dv=0
EndChar

StartChar: O
Encoding: 79 79 51
Width: 1612
GlyphClass: 2
Flags: W
LayerCount: 2
Fore
SplineSet
1493 770.127929688 m 2,0,1
 1493 727.124023438 1493 727.124023438 1493 684 c 2,2,3
 1493 473.368164062 1493 473.368164062 1415.61621094 312.883789062 c 128,-1,4
 1338.23242188 152.399414062 1338.23242188 152.399414062 1186.53103561 66.2001953125 c 0,5,6
 1022.95317519 -20 1022.95317519 -20 809.46786576 -20 c 128,-1,7
 595.98366036 -20 595.98366036 -20 431.528100077 66.5224609375 c 0,8,9
 278.127929688 153.108398438 278.127929688 153.108398438 199.119140625 310.600585938 c 128,-1,10
 120.110351562 468.092773438 120.110351562 468.092773438 118.002929688 671.357421875 c 1,11,12
 118.002929688 675.083984375 118.002929688 675.083984375 118.002929688 671.59375 c 2,13,14
 118.002929688 720.978515625 118.002929688 720.978515625 118 770.127929688 c 0,15,16
 118 977.056640625 118 977.056640625 196.38671875 1138.90136719 c 128,-1,17
 274.772460938 1300.74609375 274.772460938 1300.74609375 428.383836948 1388.37304688 c 0,18,19
 593.608902639 1476 593.608902639 1476 806.547719701 1476 c 128,-1,20
 1019.48543274 1476 1019.48543274 1476 1184.81317275 1389.34472656 c 0,21,22
 1338.25976562 1302.68945312 1338.25976562 1302.68945312 1415.62988281 1141.22753906 c 128,-1,23
 1493 979.765625 1493 979.765625 1493 770.127929688 c 2,0,1
1193.83416082 673.022460938 m 1,24,25
 1193.83416082 722.220703125 1193.83416082 722.220703125 1193.83416082 770.407226562 c 2,26,27
 1193.83416082 989.24609375 1193.83416082 989.24609375 1087.78372977 1102.21777344 c 0,28,29
 1032.051445 1161.58691406 1032.051445 1161.58691406 952.478844928 1187.68847656 c 0,30,31
 887.506975147 1209 887.506975147 1209 806.281649682 1209 c 128,-1,32
 725.055220193 1209 725.055220193 1209 661.507542629 1187.79394531 c 0,33,34
 583.265292648 1161.68554688 583.265292648 1161.68554688 527.092501917 1102.1328125 c 0,35,36
 420.396216254 989.016601562 420.396216254 989.016601562 417.165839177 781.873046875 c 1,37,38
 417.165839177 733.001953125 417.165839177 733.001953125 417.165839177 685.401367188 c 2,39,40
 417.165839177 473.5390625 417.165839177 473.5390625 525.262028509 355.927734375 c 0,41,42
 582.130354973 294.052734375 582.130354973 294.052734375 661.602488777 266.962890625 c 0,43,44
 726.035594371 245 726.035594371 245 807.7146741 245 c 128,-1,45
 889.392649804 245 889.392649804 245 953.738537425 265.849609375 c 0,46,47
 1032.29212245 291.303710938 1032.29212245 291.303710938 1086.69516114 349.11328125 c 0,48,49
 1190.6015757 459.528320312 1190.6015757 459.528320312 1193.83416082 673.022460938 c 1,24,25
EndSplineSet
Substitution2: "Podtablica 'ss06' Styl 6 w tablicy 16" O.ss06
Substitution2: "Podtablica 'c2sc' Wersaliki na kapitaliki w tablicy 0" O.c2sc
Position2: "Podtablica 'cpsp' +AVoA-wiat+AUIA-o wersalikowe w tablicy 0" dx=36 dy=0 dh=72 dv=0
EndChar

StartChar: P
Encoding: 80 80 52
Width: 1496
GlyphClass: 2
Flags: W
LayerCount: 2
Fore
SplineSet
807.784084687 519 m 2,0,-1
 470.483847417 519 l 1,1,-1
 470.483847417 0 l 1,2,-1
 169 0 l 1,3,4
 169 728 169 728 169 1456 c 1,5,-1
 810.094360285 1456 l 2,6,7
 1108.7696774 1456 1108.7696774 1456 1267.60351562 1327.88085938 c 0,8,9
 1420 1197.75097656 1420 1197.75097656 1420 985.603515625 c 0,10,11
 1420 762.4296875 1420 762.4296875 1269.81933594 639.350585938 c 0,12,13
 1115.01464113 519 1115.01464113 519 807.784084687 519 c 2,0,-1
822.155623317 1196 m 1,14,-1
 470.483847417 1196 l 1,15,-1
 470.483847417 778 l 1,16,-1
 810.094360285 778 l 2,17,18
 965.692775469 778 965.692775469 778 1043.71195559 831.22265625 c 0,19,20
 1118.51615258 882.251953125 1118.51615258 882.251953125 1118.51615258 983.880859375 c 0,21,22
 1118.51615258 1080.25976562 1118.51615258 1080.25976562 1041.31030679 1136.92285156 c 128,-1,23
 964.104460996 1193.58496094 964.104460996 1193.58496094 822.155623317 1196 c 1,14,-1
EndSplineSet
Substitution2: "Podtablica 'c2sc' Wersaliki na kapitaliki w tablicy 0" P.c2sc
Position2: "Podtablica 'cpsp' +AVoA-wiat+AUIA-o wersalikowe w tablicy 0" dx=36 dy=0 dh=72 dv=0
EndChar

StartChar: Q
Encoding: 81 81 53
Width: 1612
GlyphClass: 2
Flags: W
LayerCount: 2
Fore
SplineSet
1485 769.58203125 m 2,0,1
 1485 724.512695312 1485 724.512695312 1485 682.334960938 c 2,2,3
 1485 474.325195312 1485 474.325195312 1413.71777344 322.114257812 c 0,4,5
 1356.26953125 199.444335938 1356.26953125 199.444335938 1259.50808791 118.114257812 c 1,6,7
 1389.22558594 65.6396484375 1389.22558594 65.6396484375 1517.57519531 -70.8359375 c 1,8,9
 1414.03222656 -115.475585938 1414.03222656 -115.475585938 1310.48925781 -262.114257812 c 1,10,11
 1134.16540789 -83.1435546875 1134.16540789 -83.1435546875 953.002795107 -6.171875 c 1,12,13
 877.809273613 -20 877.809273613 -20 796.086835137 -20 c 0,14,15
 585.8792221 -20 585.8792221 -20 422.205800091 66.5224609375 c 0,16,17
 269.127929688 153.108398438 269.127929688 153.108398438 190.119140625 310.600585938 c 128,-1,18
 111.110351562 468.092773438 111.110351562 468.092773438 109.002929688 671.357421875 c 1,19,20
 109.002929688 675.083984375 109.002929688 675.083984375 109.002929688 671.59375 c 2,21,22
 109.002929688 720.978515625 109.002929688 720.978515625 109 770.127929688 c 0,23,24
 109 977.056640625 109 977.056640625 187.38671875 1138.90136719 c 128,-1,25
 265.772460938 1300.74609375 265.772460938 1300.74609375 419.076490841 1388.37304688 c 0,26,27
 583.515758548 1476 583.515758548 1476 796.045081713 1476 c 128,-1,28
 1008.57550365 1476 1008.57550365 1476 1173.06091988 1388.67773438 c 0,29,30
 1330.23535156 1301.35546875 1330.23535156 1301.35546875 1407.61816406 1140.53710938 c 128,-1,31
 1485 979.71875 1485 979.71875 1485 769.58203125 c 2,0,1
1180.88639055 673.022460938 m 1,32,33
 1180.88639055 722.220703125 1180.88639055 722.220703125 1180.88639055 770.407226562 c 2,34,35
 1180.88639055 987.703125 1180.88639055 987.703125 1076.67094307 1101.70019531 c 0,36,37
 1022.19591007 1161.28710938 1022.19591007 1161.28710938 942.668822672 1187.51269531 c 0,38,39
 877.510406999 1209 877.510406999 1209 796.193416246 1209 c 128,-1,40
 714.876425492 1209 714.876425492 1209 651.94083026 1187.81835938 c 0,41,42
 574.371758696 1161.71191406 574.371758696 1161.71191406 518.440849723 1102.1328125 c 0,43,44
 412.252003569 989.016601562 412.252003569 989.016601562 409.036989922 781.873046875 c 1,45,46
 409.036989922 733.001953125 409.036989922 733.001953125 409.036989922 685.401367188 c 2,47,48
 409.036989922 474.28515625 409.036989922 474.28515625 515.703802904 356.147460938 c 0,49,50
 571.66108246 294.173828125 571.66108246 294.173828125 650.682733669 267.03515625 c 0,51,52
 714.842363489 245 714.842363489 245 796.368121362 245 c 128,-1,53
 877.892780461 245 877.892780461 245 941.93264388 265.849609375 c 0,54,55
 1020.11263396 291.303710938 1020.11263396 291.303710938 1074.2569359 349.11328125 c 0,56,57
 1177.66917936 459.528320312 1177.66917936 459.528320312 1180.88639055 673.022460938 c 1,32,33
EndSplineSet
Substitution2: "Podtablica 'ss05' Styl 5 w tablicy 15" Q.ss05
Substitution2: "Podtablica 'ss06' Styl 6 w tablicy 16" Q.ss06
Substitution2: "Podtablica 'c2sc' Wersaliki na kapitaliki w tablicy 0" Q.c2sc
Position2: "Podtablica 'cpsp' +AVoA-wiat+AUIA-o wersalikowe w tablicy 0" dx=36 dy=0 dh=72 dv=0
EndChar

StartChar: R
Encoding: 82 82 54
Width: 1465
GlyphClass: 2
Flags: W
LayerCount: 2
Fore
SplineSet
1101.68155558 613.830078125 m 1,0,1
 1268.33300781 367.74609375 1268.33300781 367.74609375 1429 71.1875 c 1,2,3
 1429 80.9248046875 1429 80.9248046875 1429 0 c 1,4,5
 1285.24121094 51 1285.24121094 51 1141.48242188 -0 c 1,6,-1
 769.570916551 538 l 1,7,-1
 463 538 l 1,8,-1
 463 0 l 1,9,-1
 168 0 l 1,10,11
 168 728 168 728 168 1456 c 1,12,-1
 743.110564137 1456 l 2,13,14
 1054.59035764 1456 1054.59035764 1456 1214.39355469 1340.08398438 c 0,15,16
 1365 1221.11328125 1365 1221.11328125 1365 999.013671875 c 0,17,18
 1365 856.419921875 1365 856.419921875 1281.76269531 749.528320312 c 0,19,20
 1215.41796875 664.329101562 1215.41796875 664.329101562 1101.68155558 613.830078125 c 1,0,1
978.409092817 851.420898438 m 0,21,22
 1057.35224743 903.50390625 1057.35224743 903.50390625 1057.35224743 992.953125 c 0,23,24
 1057.35224743 1194.40527344 1057.35224743 1194.40527344 748.789506074 1196 c 1,25,-1
 463 1196 l 1,26,-1
 463 797 l 1,27,-1
 750.172174997 797 l 2,28,29
 895.922489913 797 895.922489913 797 978.409092817 851.420898438 c 0,21,22
EndSplineSet
Substitution2: "Podtablica 'ss03' Styl 3 w tablicy 13" R.ss03
Substitution2: "Podtablica 'c2sc' Wersaliki na kapitaliki w tablicy 0" R.c2sc
Position2: "Podtablica 'cpsp' +AVoA-wiat+AUIA-o wersalikowe w tablicy 0" dx=36 dy=0 dh=72 dv=0
EndChar

StartChar: S
Encoding: 83 83 55
Width: 1419
GlyphClass: 2
Flags: W
LayerCount: 2
Fore
SplineSet
254.98828125 791.413085938 m 0,0,1
 126 901.04296875 126 901.04296875 126 1062.12695312 c 0,2,3
 126 1142.25585938 126 1142.25585938 157.114257812 1210.71777344 c 0,4,5
 195.978515625 1296.23535156 195.978515625 1296.23535156 282.23828125 1361.43554688 c 0,6,7
 450.294059494 1476 450.294059494 1476 724.831019627 1476 c 0,8,9
 911.448483173 1476 911.448483173 1476 1060.43022054 1412.1953125 c 0,10,11
 1194.4296875 1348.39160156 1194.4296875 1348.39160156 1266.71484375 1234.08007812 c 128,-1,12
 1339 1119.76855469 1339 1119.76855469 1339 984 c 2,13,14
 1339 907.5 1339 907.5 1339 933 c 1,15,-1
 1036.02896123 933 l 1,16,17
 1036.02896123 907.5 1036.02896123 907.5 1036.02896123 984 c 2,18,19
 1036.02896123 1093.27929688 1036.02896123 1093.27929688 958.72472718 1153.5625 c 0,20,21
 878.658341265 1216 878.658341265 1216 724.831019627 1216 c 0,22,23
 581.489519834 1216 581.489519834 1216 505.819615256 1168.3203125 c 0,24,25
 467.4781559 1144.16210938 467.4781559 1144.16210938 450.697014005 1110.11523438 c 0,26,27
 436.684777405 1081.68554688 436.684777405 1081.68554688 436.684777405 1046.79003906 c 128,-1,28
 436.684777405 1011.89453125 436.684777405 1011.89453125 454.299967604 987.080078125 c 128,-1,29
 471.915157802 962.265625 471.915157802 962.265625 503.433404187 941.689453125 c 128,-1,30
 534.951650573 921.112304688 534.951650573 921.112304688 591.077135816 900.26171875 c 0,31,32
 665.336699607 872.673828125 665.336699607 872.673828125 777.051898173 847.514648438 c 0,33,34
 993.77951846 798.706054688 993.77951846 798.706054688 1118.2265625 737.248046875 c 0,35,36
 1229.109375 675.790039062 1229.109375 675.790039062 1285.5546875 589.413085938 c 128,-1,37
 1342 503.036132812 1342 503.036132812 1342 387.380859375 c 0,38,39
 1342 305.1796875 1342 305.1796875 1310.76757812 236.65625 c 0,40,41
 1271.47558594 150.453125 1271.47558594 150.453125 1184.11914062 88.17578125 c 0,42,43
 1022.63578882 -20 1022.63578882 -20 736.356869315 -20 c 0,44,45
 551.029310432 -20 551.029310432 -20 388.090489455 42.5283203125 c 0,46,47
 238.470703125 105.056640625 238.470703125 105.056640625 159.235351562 217.447265625 c 128,-1,48
 80 329.837890625 80 329.837890625 80 473 c 2,49,50
 80 549.5 80 549.5 80 524 c 1,51,-1
 382.513283868 524 l 1,52,53
 382.513283868 549.5 382.513283868 549.5 382.513283868 473 c 2,54,55
 382.513283868 424.26171875 382.513283868 424.26171875 400.461643159 385.69140625 c 0,56,57
 422.330367144 338.694335938 422.330367144 338.694335938 472.349628308 304.64453125 c 0,58,59
 568.779569181 239 568.779569181 239 736.356869315 239 c 0,60,61
 891.648559161 239 891.648559161 239 969.227432594 286.595703125 c 0,62,63
 1008.48060467 310.677734375 1008.48060467 310.677734375 1025.48573525 343.618164062 c 0,64,65
 1039.48671613 370.737304688 1039.48671613 370.737304688 1039.48671613 405.536132812 c 0,66,67
 1039.48671613 481.142578125 1039.48671613 481.142578125 975.716350901 521.010742188 c 0,68,69
 898.206137314 569.469726562 898.206137314 569.469726562 682.072818652 619.59375 c 0,70,71
 384.093585915 688.247070312 384.093585915 688.247070312 254.98828125 791.413085938 c 0,0,1
EndSplineSet
Substitution2: "Podtablica 'c2sc' Wersaliki na kapitaliki w tablicy 0" S.c2sc
Position2: "Podtablica 'cpsp' +AVoA-wiat+AUIA-o wersalikowe w tablicy 0" dx=36 dy=0 dh=72 dv=0
EndChar

StartChar: T
Encoding: 84 84 56
Width: 1426
GlyphClass: 2
Flags: W
LayerCount: 2
Fore
SplineSet
618 0 m 1,0,1
 618 598 618 598 546.640995003 1196 c 1,2,-1
 49 1196 l 1,3,4
 49 1275 49 1275 49 1456 c 1,5,-1
 1379 1456 l 1,6,7
 1379 1275 1379 1275 1379 1196 c 1,8,-1
 880.220508364 1196 l 1,9,10
 911 598 911 598 911 0 c 1,11,-1
 618 0 l 1,0,1
EndSplineSet
Substitution2: "Podtablica 'c2sc' Wersaliki na kapitaliki w tablicy 0" T.c2sc
Position2: "Podtablica 'cpsp' +AVoA-wiat+AUIA-o wersalikowe w tablicy 0" dx=36 dy=0 dh=72 dv=0
EndChar

StartChar: U
Encoding: 85 85 57
Width: 1532
GlyphClass: 2
Flags: W
LayerCount: 2
Fore
SplineSet
768.107255396 -20 m 1,0,-1
 766.908415944 -20 l 2,1,2
 461.842354666 -20 461.842354666 -20 299.750976562 113.87890625 c 0,3,4
 142.197265625 247.756835938 142.197265625 247.756835938 140 479.98828125 c 1,5,6
 140 951.834960938 140 951.834960938 140 1456 c 1,7,-1
 431.998046875 1456 l 1,8,9
 431.998046875 967.536132812 431.998046875 967.536132812 431.998046875 499.192382812 c 2,10,11
 431.998046875 372.810546875 431.998046875 372.810546875 517.09261554 305.848632812 c 128,-1,12
 602.043231341 239 602.043231341 239 768.087677806 239 c 128,-1,13
 934.130972649 239 934.130972649 239 1018.49195752 305.38671875 c 128,-1,14
 1102.99804688 371.88671875 1102.99804688 371.88671875 1102.99804688 498.26953125 c 2,15,16
 1102.99804688 967.110351562 1102.99804688 967.110351562 1102.99804688 1456 c 1,17,-1
 1397.99804688 1456 l 1,18,19
 1397.99804688 952.887695312 1397.99804688 952.887695312 1397.99804688 482.141601562 c 1,20,21
 1396.89746094 270.138671875 1396.89746094 270.138671875 1254.39746094 134.268554688 c 128,-1,22
 1111.89648438 -1.6015625 1111.89648438 -1.6015625 830.457271529 -17.9267578125 c 1,23,24
 799.282839274 32.037109375 799.282839274 32.037109375 768.107255396 -20 c 1,0,-1
EndSplineSet
Substitution2: "Podtablica 'c2sc' Wersaliki na kapitaliki w tablicy 0" U.c2sc
Position2: "Podtablica 'cpsp' +AVoA-wiat+AUIA-o wersalikowe w tablicy 0" dx=36 dy=0 dh=72 dv=0
EndChar

StartChar: V
Encoding: 86 86 58
Width: 1507
GlyphClass: 2
Flags: W
LayerCount: 2
Fore
SplineSet
775.265821828 360.185546875 m 1,0,1
 990.609407649 857.092773438 990.609407649 857.092773438 1205.95410156 1456 c 1,2,3
 1365.77246094 1405 1365.77246094 1405 1525.59082031 1456 c 1,4,5
 1236.67675781 728 1236.67675781 728 912.986342919 0 c 1,6,7
 776.255349412 51 776.255349412 51 639.524355906 0 c 1,8,9
 316.379882812 728 316.379882812 728 28 1456 c 1,10,11
 187.323242188 1405 187.323242188 1405 346.647460938 1456 c 1,12,13
 560.956087336 857.092773438 560.956087336 857.092773438 775.265821828 360.185546875 c 1,0,1
EndSplineSet
Substitution2: "Podtablica 'c2sc' Wersaliki na kapitaliki w tablicy 0" V.c2sc
Position2: "Podtablica 'cpsp' +AVoA-wiat+AUIA-o wersalikowe w tablicy 0" dx=36 dy=0 dh=72 dv=0
EndChar

StartChar: W
Encoding: 87 87 59
Width: 2123
GlyphClass: 2
Flags: W
LayerCount: 2
Fore
SplineSet
1088.33984375 1007.52148438 m 1,0,1
 864.636807167 554.760742188 864.636807167 554.760742188 691.015625 0 c 1,2,3
 564.337890625 51 564.337890625 51 437.659179688 0 c 1,4,5
 249.330078125 728 249.330078125 728 61 1456 c 1,6,-1
 358.391601562 1456 l 1,7,8
 495.20705129 911.129882812 495.20705129 911.129882812 586.255859375 468.258789062 c 1,9,10
 800.133809103 911.129882812 800.133809103 911.129882812 968.245117188 1456 c 1,11,12
 1087.93652344 1405 1087.93652344 1405 1207.62792969 1456 c 1,13,14
 1372.54770432 910.000976562 1372.54770432 910.000976562 1481.43652344 466.000976562 c 1,15,16
 1672.77133713 910.000976562 1672.77133713 910.000976562 1808.07519531 1456 c 1,17,18
 1957.36816406 1405 1957.36816406 1405 2106.66015625 1456 c 1,19,20
 1815.79589844 728 1815.79589844 728 1626.93066406 0 c 1,21,22
 1500.07519531 51 1500.07519531 51 1373.21875 0 c 1,23,24
 1205.73836967 554.760742188 1205.73836967 554.760742188 1088.33984375 1007.52148438 c 1,0,1
EndSplineSet
Substitution2: "Podtablica 'c2sc' Wersaliki na kapitaliki w tablicy 0" W.c2sc
Position2: "Podtablica 'cpsp' +AVoA-wiat+AUIA-o wersalikowe w tablicy 0" dx=36 dy=0 dh=72 dv=0
EndChar

StartChar: X
Encoding: 88 88 60
Width: 1488
GlyphClass: 2
Flags: W
LayerCount: 2
Fore
SplineSet
585.197903524 733.698242188 m 1,0,1
 315.107421875 1070.83203125 315.107421875 1070.83203125 68.3564453125 1456 c 1,2,-1
 414.595703125 1456 l 1,3,4
 601.523094023 1148.48828125 601.523094023 1148.48828125 788.449353585 942.9765625 c 1,5,6
 974.311025186 1148.48828125 974.311025186 1148.48828125 1160.17382812 1456 c 1,7,8
 1333.78125 1405 1333.78125 1405 1507.38964844 1456 c 1,9,10
 1261.17480469 1070.83203125 1261.17480469 1070.83203125 991.944041065 733.69921875 c 1,11,12
 1266.85351562 390.493164062 1266.85351562 390.493164062 1518.74804688 0 c 1,13,14
 1344.01855469 51 1344.01855469 51 1169.2890625 0 c 1,15,16
 978.868817638 312.7734375 978.868817638 312.7734375 788.449699851 523.546875 c 1,17,18
 596.965497326 312.7734375 596.965497326 312.7734375 405.482421875 0 c 1,19,20
 231.241210938 51 231.241210938 51 57 0 c 1,21,22
 309.428710938 390.493164062 309.428710938 390.493164062 585.197903524 733.698242188 c 1,0,1
EndSplineSet
Substitution2: "Podtablica 'c2sc' Wersaliki na kapitaliki w tablicy 0" X.c2sc
Position2: "Podtablica 'cpsp' +AVoA-wiat+AUIA-o wersalikowe w tablicy 0" dx=36 dy=0 dh=72 dv=0
EndChar

StartChar: Y
Encoding: 89 89 61
Width: 1434
GlyphClass: 2
Flags: W
LayerCount: 2
Fore
SplineSet
581.549373626 542.869140625 m 1,0,1
 283.622070312 981.6640625 283.622070312 981.6640625 15 1456 c 1,2,3
 183.645507812 1405 183.645507812 1405 352.291992188 1456 c 1,4,5
 551.260822475 1069.40429688 551.260822475 1069.40429688 750.229652763 784.809570312 c 1,6,7
 950.25098529 1069.40429688 950.25098529 1069.40429688 1150.2734375 1456 c 1,8,9
 1317.88183594 1405 1317.88183594 1405 1485.48925781 1456 c 1,10,11
 1216.8671875 981.6640625 1216.8671875 981.6640625 918.63672919 542.869140625 c 1,12,13
 918.63672919 301.325195312 918.63672919 301.325195312 918.63672919 0 c 1,14,-1
 581.549373626 0 l 1,15,16
 581.549373626 301.325195312 581.549373626 301.325195312 581.549373626 542.869140625 c 1,0,1
EndSplineSet
Substitution2: "Podtablica 'c2sc' Wersaliki na kapitaliki w tablicy 0" Y.c2sc
Position2: "Podtablica 'cpsp' +AVoA-wiat+AUIA-o wersalikowe w tablicy 0" dx=36 dy=0 dh=72 dv=0
EndChar

StartChar: Z
Encoding: 90 90 62
Width: 1430
GlyphClass: 2
Flags: W
LayerCount: 2
Fore
SplineSet
914.705914047 1196 m 1,0,-1
 99 1196 l 1,1,2
 99 1275 99 1275 99 1456 c 1,3,-1
 1318 1456 l 1,4,5
 1318 1320.73339844 1318 1320.73339844 1318 1264.41308594 c 1,6,7
 915.753407074 769.228515625 915.753407074 769.228515625 480.988669498 259 c 1,8,-1
 1350 259 l 1,9,10
 1350 180.5 1350 180.5 1350 0 c 1,11,-1
 86 0 l 1,12,13
 86 136.524414062 86 136.524414062 86 194.334960938 c 1,14,15
 481.659245056 687.532226562 481.659245056 687.532226562 914.705914047 1196 c 1,0,-1
EndSplineSet
Substitution2: "Podtablica 'c2sc' Wersaliki na kapitaliki w tablicy 0" Z.c2sc
Position2: "Podtablica 'cpsp' +AVoA-wiat+AUIA-o wersalikowe w tablicy 0" dx=36 dy=0 dh=72 dv=0
EndChar

StartChar: bracketleft
Encoding: 91 91 63
Width: 543
GlyphClass: 1
Flags: W
LayerCount: 2
Fore
SplineSet
383 -109 m 1
 574 -109 l 1
 574 -363 l 1
 95 -363 l 1
 95 1715 l 1
 574 1715 l 1
 574 1461 l 1
 383 1461 l 1
 383 -109 l 1
EndSplineSet
EndChar

StartChar: backslash
Encoding: 92 92 64
Width: 840
GlyphClass: 1
Flags: W
LayerCount: 2
Fore
SplineSet
-34.2636309888 1507 m 1
 251.037824537 1507 l 1
 898.263630989 -176 l 1
 612.962175463 -176 l 1
 -34.2636309888 1507 l 1
EndSplineSet
EndChar

StartChar: bracketright
Encoding: 93 93 65
Width: 543
GlyphClass: 1
Flags: W
LayerCount: 2
Fore
SplineSet
-42 1715 m 1
 438 1715 l 1
 438 -363 l 1
 -42 -363 l 1
 -42 -109 l 1
 151 -109 l 1
 151 1461 l 1
 -42 1461 l 1
 -42 1715 l 1
EndSplineSet
EndChar

StartChar: asciicircum
Encoding: 94 94 66
Width: 856
GlyphClass: 1
Flags: W
LayerCount: 2
Fore
SplineSet
270.724829698 678 m 1
 -12.1288510628 678 l 1
 328.821630368 1507 l 1
 524.221920664 1507 l 1
 864.032099481 678 l 1
 582.342146845 678 l 1
 426.124541661 1072.22453245 l 1
 270.724829698 678 l 1
EndSplineSet
EndChar

StartChar: underscore
Encoding: 95 95 67
Width: 924
GlyphClass: 1
Flags: W
LayerCount: 2
Fore
SplineSet
971 -202 m 1
 -47 -202 l 1
 -47 51 l 1
 971 51 l 1
 971 -202 l 1
EndSplineSet
EndChar

StartChar: grave
Encoding: 96 96 68
Width: 633
GlyphClass: 1
Flags: W
LayerCount: 2
Fore
SplineSet
568.752101257 1191 m 1
 291.914395505 1191 l 1
 -55.5958085765 1587 l 1
 307.445978808 1587 l 1
 568.752101257 1191 l 1
EndSplineSet
EndChar

StartChar: a
Encoding: 97 97 69
Width: 1318
GlyphClass: 2
Flags: W
LayerCount: 2
Fore
SplineSet
709.81266386 707 m 2,0,-1
 864.946770477 707 l 1,1,-1
 864.946770477 732.107421875 l 2,2,3
 864.946770477 788.053710938 864.946770477 788.053710938 813.358714053 819.458984375 c 0,4,5
 761.546346413 851 761.546346413 851 650.885755144 851 c 0,6,7
 552.179424952 851 552.179424952 851 487.885488717 811.102539062 c 0,8,9
 461.316940888 794.615234375 461.316940888 794.615234375 446.666247604 775.1953125 c 128,-1,10
 432.014379916 755.774414062 432.014379916 755.774414062 432.014379916 731 c 2,11,12
 432.014379916 654.5 432.014379916 654.5 432.014379916 680 c 1,13,-1
 131 680 l 1,14,15
 131 654.5 131 654.5 131 731 c 2,16,17
 131 829.198242188 131 829.198242188 197.66796875 916.735351562 c 128,-1,18
 264.334960938 1004.2734375 264.334960938 1004.2734375 377.564300283 1053.13671875 c 0,19,20
 509.112845921 1102 509.112845921 1102 664.114244856 1102 c 0,21,22
 912.166043013 1102 912.166043013 1102 1041.85351562 1003.8359375 c 0,23,24
 1163.44238281 905.670898438 1163.44238281 905.670898438 1167.984375 735.213867188 c 1,25,26
 1167.9921875 719.078125 1167.9921875 719.078125 1168 734.056640625 c 1,27,28
 1168 509.950195312 1168 509.950195312 1168 278.24609375 c 2,29,30
 1168 151.533203125 1168 151.533203125 1201.84570312 79.794921875 c 2,31,32
 1203.92285156 115.684570312 1203.92285156 115.684570312 1206 70.9892578125 c 1,33,34
 1206 79.1669921875 1206 79.1669921875 1206 0 c 1,35,-1
 923.243024099 0 l 1,36,37
 914.752081218 65.12109375 914.752081218 65.12109375 906.261138337 28.2412109375 c 2,38,39
 896.332724627 44.75390625 896.332724627 44.75390625 888.809490865 67.7861328125 c 1,40,41
 742.738262009 -20 742.738262009 -20 559.488917137 -20 c 0,42,43
 345.721679688 -20 345.721679688 -20 228.768554688 76.4912109375 c 0,44,45
 109 175.306640625 109 175.306640625 109 326.6796875 c 0,46,47
 109 406.522460938 109 406.522460938 138.366210938 471.6015625 c 0,48,49
 175.615234375 554.149414062 175.615234375 554.149414062 258.5390625 610.532226562 c 0,50,51
 409.668989846 707 409.668989846 707 709.81266386 707 c 2,0,-1
415.185166708 308.486328125 m 128,-1,53
 426.015522898 288.420898438 426.015522898 288.420898438 452.318655362 273.28515625 c 0,54,55
 504.946059566 243 504.946059566 243 592.55309499 243 c 128,-1,56
 680.15895601 243 680.15895601 243 759.80235607 274.297851562 c 0,57,58
 830.882000185 302.23046875 830.882000185 302.23046875 864.946770477 344.103515625 c 1,59,-1
 864.946770477 474 l 1,60,-1
 751.903312942 474 l 2,61,62
 583.843712914 474 583.843712914 474 495.173841625 445.719726562 c 0,63,64
 442.977443788 429.072265625 442.977443788 429.072265625 421.497589667 402.954101562 c 0,65,66
 404.354810519 382.108398438 404.354810519 382.108398438 404.354810519 355.330078125 c 128,-1,52
 404.354810519 328.55078125 404.354810519 328.55078125 415.185166708 308.486328125 c 128,-1,53
EndSplineSet
Substitution2: "Podtablica 'smcp' Tekstowe na kapitaliki w tablicy 1" A.c2sc
EndChar

StartChar: b
Encoding: 98 98 70
Width: 1353
GlyphClass: 2
Flags: W
LayerCount: 2
Fore
SplineSet
434.989819176 1536 m 1,0,1
 434.989819176 1231.16796875 434.989819176 1231.16796875 434.989819176 1028.33691406 c 1,2,3
 563.703853898 1102 563.703853898 1102 742.974623917 1102 c 0,4,5
 859.658002203 1102 859.658002203 1102 955.39847905 1068.68945312 c 0,6,7
 1066.33300781 1030.29394531 1066.33300781 1030.29394531 1137.22558594 944.6796875 c 0,8,9
 1260 796.407226562 1260 796.407226562 1260 544.66796875 c 2,10,11
 1260 537.712890625 1260 537.712890625 1260 530.078125 c 2,12,13
 1260 288.329101562 1260 288.329101562 1135.67675781 138.670898438 c 0,14,15
 1064.09863281 52.505859375 1064.09863281 52.505859375 954.477527636 13.7705078125 c 0,16,17
 859.655670681 -20 859.655670681 -20 745.362103024 -20 c 0,18,19
 552.055567163 -20 552.055567163 -20 418.257647489 62.7998046875 c 1,20,21
 417.590832035 106.045898438 417.590832035 106.045898438 416.925182343 47.2919921875 c 1,22,23
 414.892094666 74.6455078125 414.892094666 74.6455078125 412.860172751 0 c 1,24,-1
 140 0 l 1,25,26
 140 768 140 768 140 1536 c 1,27,-1
 434.989819176 1536 l 1,0,1
888.07926227 308.905273438 m 0,28,29
 965.010180824 385.647460938 965.010180824 385.647460938 965.010180824 548.700195312 c 0,30,31
 965.010180824 696.506835938 965.010180824 696.506835938 889.044512612 773.32421875 c 0,32,33
 850.715447405 812.08203125 850.715447405 812.08203125 794.728596053 829.001953125 c 0,34,35
 748.4129003 843 748.4129003 843 688.062604467 843 c 0,36,37
 606.629515841 843 606.629515841 843 547.468296516 819.654296875 c 0,38,39
 478.342149749 792.376953125 478.342149749 792.376953125 434.989819176 731.106445312 c 1,40,41
 434.989819176 541.234375 434.989819176 541.234375 434.989819176 351.440429688 c 1,42,43
 481.192436085 289.840820312 481.192436085 289.840820312 551.06233855 262.380859375 c 0,44,45
 610.553468318 239 610.553468318 239 690.450083574 239 c 0,46,47
 748.491006306 239 748.491006306 239 793.719046782 252.896484375 c 0,48,49
 848.939992972 269.86328125 848.939992972 269.86328125 888.07926227 308.905273438 c 0,28,29
EndSplineSet
Substitution2: "Podtablica 'ss06' Styl 6 w tablicy 16" b.ss06
Substitution2: "Podtablica 'smcp' Tekstowe na kapitaliki w tablicy 1" B.c2sc
EndChar

StartChar: c
Encoding: 99 99 71
Width: 1276
GlyphClass: 2
Flags: W
LayerCount: 2
Fore
SplineSet
566.887591809 247.072265625 m 0,0,1
 616.497211619 233 616.497211619 233 680.775138858 233 c 0,2,3
 777.425267232 233 777.425267232 233 849.052508622 281.631835938 c 0,4,5
 917.350284461 328.004882812 917.350284461 328.004882812 924.628461171 396.565429688 c 2,6,7
 927.092615535 470.783203125 927.092615535 470.783203125 929.5567699 443 c 1,8,-1
 1210.81640625 443 l 1,9,10
 1209.37109375 467.111328125 1209.37109375 467.111328125 1207.92578125 389.223632812 c 2,11,12
 1202.14257812 281.666992188 1202.14257812 281.666992188 1135.27636719 186.467773438 c 128,-1,13
 1068.41113281 91.2685546875 1068.41113281 91.2685546875 957.598916537 35.6337890625 c 0,14,15
 826.717684019 -20 826.717684019 -20 680.775138858 -20 c 0,16,17
 389.442821449 -20 389.442821449 -20 235.294921875 131.001953125 c 0,18,19
 92 279.75 92 279.75 92 531.833007812 c 2,20,21
 92 545.62109375 92 545.62109375 92 560.25 c 2,22,23
 92 715.565429688 92 715.565429688 155.619140625 839.23828125 c 128,-1,24
 219.237304688 962.911132812 219.237304688 962.911132812 340.781312144 1032.45507812 c 0,25,26
 485.338426456 1102 485.338426456 1102 679.580962772 1102 c 0,27,28
 920.36254699 1102 920.36254699 1102 1063.30078125 979.27734375 c 0,29,30
 1198.97167969 856.553710938 1198.97167969 856.553710938 1207.9453125 661.376953125 c 2,31,32
 1209.17285156 583.688476562 1209.17285156 583.688476562 1210.39941406 608 c 1,33,-1
 928.847727849 608 l 1,34,35
 926.706607445 580.5390625 926.706607445 580.5390625 924.564320854 655.078125 c 2,36,37
 916.795179171 740.473632812 916.795179171 740.473632812 848.787784041 794.236328125 c 128,-1,38
 780.78038891 848 780.78038891 848 679.580962772 848 c 0,39,40
 616.50187637 848 616.50187637 848 567.473017976 833.9140625 c 0,41,42
 508.256344851 816.900390625 508.256344851 816.900390625 467.086424584 778.171875 c 0,43,44
 387.007821774 702.841796875 387.007821774 702.841796875 387.007821774 552.9375 c 2,45,46
 387.007821774 538.29296875 387.007821774 538.29296875 387.007821774 522.916015625 c 2,47,48
 387.007821774 377.282226562 387.007821774 377.282226562 466.517325043 302.373046875 c 0,49,50
 507.26275303 263.985351562 507.26275303 263.985351562 566.887591809 247.072265625 c 0,0,1
EndSplineSet
Substitution2: "Podtablica 'ss06' Styl 6 w tablicy 16" c.ss06
Substitution2: "Podtablica 'smcp' Tekstowe na kapitaliki w tablicy 1" C.c2sc
EndChar

StartChar: d
Encoding: 100 100 72
Width: 1359
GlyphClass: 2
Flags: W
LayerCount: 2
Fore
SplineSet
935.071501508 47.0078125 m 1,0,1
 934.575592146 103.356445312 934.575592146 103.356445312 934.079682784 57.705078125 c 1,2,3
 802.793221715 -20 802.793221715 -20 615.862229694 -20 c 0,4,5
 503.307140361 -20 503.307140361 -20 408.301408214 14.6396484375 c 0,6,7
 297.946289062 54.095703125 297.946289062 54.095703125 224.05859375 141.641601562 c 0,8,9
 95 294.556640625 95 294.556640625 95 536.471679688 c 2,10,11
 95 542.719726562 95 542.719726562 95 549.235351562 c 2,12,13
 95 792.21484375 95 792.21484375 223.743164062 942.915039062 c 0,14,15
 297.469726562 1029.21679688 297.469726562 1029.21679688 408.846325089 1068.04003906 c 0,16,17
 504.395807266 1102 504.395807266 1102 618.251929396 1102 c 0,18,19
 790.998746818 1102 790.998746818 1102 916.964392145 1033.35839844 c 1,20,21
 916.964392145 1233.6796875 916.964392145 1233.6796875 916.964392145 1536 c 1,22,-1
 1212 1536 l 1,23,24
 1212 768 1212 768 1212 0 c 1,25,-1
 939.429669666 0 l 1,26,27
 937.250002164 74.50390625 937.250002164 74.50390625 935.071501508 47.0078125 c 1,0,1
469.301760275 771.2578125 m 0,28,29
 390.035607855 692.845703125 390.035607855 692.845703125 390.035607855 530.733398438 c 0,30,31
 390.035607855 387.552734375 390.035607855 387.552734375 469.138401897 310.047851562 c 0,32,33
 509.659447576 270.344726562 509.659447576 270.344726562 566.085765051 253.088867188 c 0,34,35
 612.156328203 239 612.156328203 239 670.825322839 239 c 0,36,37
 749.259514377 239 749.259514377 239 807.070877529 260.728515625 c 0,38,39
 873.696592023 285.76953125 873.696592023 285.76953125 916.964392145 341.453125 c 1,40,41
 916.964392145 542.58984375 916.964392145 542.58984375 916.964392145 744.262695312 c 1,42,43
 872.876299596 797.760742188 872.876299596 797.760742188 807.116384505 821.934570312 c 0,44,45
 749.814932862 843 749.814932862 843 673.215022541 843 c 0,46,47
 613.477197374 843 613.477197374 843 566.810376143 828.73828125 c 0,48,49
 509.79246797 811.3125 509.79246797 811.3125 469.301760275 771.2578125 c 0,28,29
EndSplineSet
Substitution2: "Podtablica 'ss06' Styl 6 w tablicy 16" d.ss06
Substitution2: "Podtablica 'smcp' Tekstowe na kapitaliki w tablicy 1" D.c2sc
EndChar

StartChar: e
Encoding: 101 101 73
Width: 1289
GlyphClass: 2
Flags: W
LayerCount: 2
Fore
SplineSet
977.377929688 25.5625 m 0,0,1
 854.63472387 -20 854.63472387 -20 697.781199507 -20 c 0,2,3
 409.599161488 -20 409.599161488 -20 245.598632812 126.470703125 c 0,4,5
 93 272.942382812 93 272.942382812 93 513.5 c 2,6,7
 93 530.076171875 93 530.076171875 93 544.666992188 c 2,8,9
 93 703.022460938 93 703.022460938 160.170898438 829.673828125 c 128,-1,10
 227.341796875 956.32421875 227.341796875 956.32421875 352.325883853 1029.16210938 c 0,11,12
 498.681227715 1102 498.681227715 1102 670.369542395 1102 c 0,13,14
 950.114628035 1102 950.114628035 1102 1086.03222656 956.008789062 c 0,15,16
 1215 813.703125 1215 813.703125 1215 555.8828125 c 2,17,-1
 1215 437 l 1,18,-1
 392.68335712 437 l 1,19,20
 409.35241933 353.237304688 409.35241933 353.237304688 483.554303993 298.420898438 c 0,21,22
 572.111461194 233 572.111461194 233 709.699311296 233 c 0,23,24
 809.94413242 233 809.94413242 233 878.810799853 266.990234375 c 128,-1,25
 947.677467285 300.979492188 947.677467285 300.979492188 996.622070312 359.143554688 c 2,26,27
 1012.28515625 430.413085938 1012.28515625 430.413085938 1027.94726562 399.681640625 c 1,28,29
 1123.12011719 376.564453125 1123.12011719 376.564453125 1218.29296875 251.447265625 c 1,30,31
 1205.53515625 282.841796875 1205.53515625 282.841796875 1192.77734375 212.236328125 c 2,32,33
 1108.87597656 83.2998046875 1108.87597656 83.2998046875 977.377929688 25.5625 c 0,0,1
915.06676668 691 m 1,34,35
 899.84091332 762.293945312 899.84091332 762.293945312 843.963125531 802.626953125 c 0,36,37
 781.103232995 848 781.103232995 848 671.613728088 848 c 0,38,39
 622.159383558 848 622.159383558 848 581.622673062 838.313476562 c 0,40,41
 531.34663059 826.298828125 531.34663059 826.298828125 490.764528849 798.737304688 c 0,42,43
 431.524297218 758.502929688 431.524297218 758.502929688 406.557948002 691 c 1,44,-1
 915.06676668 691 l 1,34,35
EndSplineSet
Substitution2: "Podtablica 'ss07' Styl 7 w tablicy 17" e.ss07
Substitution2: "Podtablica 'smcp' Tekstowe na kapitaliki w tablicy 1" E.c2sc
EndChar

StartChar: f
Encoding: 102 102 74
Width: 915
GlyphClass: 2
Flags: W
LayerCount: 2
Fore
SplineSet
851 837 m 1,0,-1
 599.034355458 837 l 1,1,2
 518 418.5 518 418.5 518 0 c 1,3,-1
 231 0 l 1,4,5
 231 418.5 231 418.5 231 837 c 1,6,-1
 60 837 l 1,7,8
 60 908.5 60 908.5 60 1082 c 1,9,-1
 231 1082 l 1,10,11
 231 1061 231 1061 231 1142 c 2,12,13
 231 1336.79394531 231 1336.79394531 351.39433572 1446.89648438 c 0,14,15
 500.332435169 1557 500.332435169 1557 740 1557 c 0,16,17
 810.797851562 1557 810.797851562 1557 880.301757812 1538.24511719 c 2,18,19
 900.486328125 1481.79785156 900.486328125 1481.79785156 920.671875 1527.3515625 c 1,20,21
 912.361328125 1351.703125 912.361328125 1351.703125 904.051757812 1278.05566406 c 1,22,23
 875.708984375 1232.48242188 875.708984375 1232.48242188 847.366210938 1288.91015625 c 2,24,25
 805.120117188 1297 805.120117188 1297 757 1297 c 0,26,27
 689.1484375 1297 689.1484375 1297 646.80919394 1259.95605469 c 0,28,29
 599.034355458 1222.91210938 599.034355458 1222.91210938 599.034355458 1145 c 2,30,31
 599.034355458 1062.5 599.034355458 1062.5 599.034355458 1082 c 1,32,-1
 851 1082 l 1,33,34
 851 908.5 851 908.5 851 837 c 1,0,-1
EndSplineSet
Substitution2: "Podtablica 'smcp' Tekstowe na kapitaliki w tablicy 1" F.c2sc
EndChar

StartChar: g
Encoding: 103 103 75
Width: 1353
GlyphClass: 2
Flags: W
LayerCount: 2
Fore
SplineSet
848.825228401 -112.064453125 m 0,0,1
 916.128873922 -55.73828125 916.128873922 -55.73828125 921.351255297 47.5986328125 c 1,2,3
 794.110035688 -20 794.110035688 -20 618.696282893 -20 c 0,4,5
 504.446412362 -20 504.446412362 -20 408.545354123 14.3623046875 c 0,6,7
 297.431640625 53.6015625 297.431640625 53.6015625 224.029296875 140.749023438 c 0,8,9
 96 292.751953125 96 292.751953125 96 549.247070312 c 0,10,11
 96 795.94921875 96 795.94921875 223.81640625 944.861328125 c 0,12,13
 297.078125 1030.21484375 297.078125 1030.21484375 409.225461819 1068.55859375 c 0,14,15
 505.616338554 1102 505.616338554 1102 621.101914259 1102 c 0,16,17
 809.154628725 1102 809.154628725 1102 941.301081042 1022.37304688 c 1,18,19
 941.863726269 977.6171875 941.863726269 977.6171875 942.42754612 1034.86132812 c 1,20,21
 944.55361681 1007.43066406 944.55361681 1007.43066406 946.6796875 1082 c 1,22,-1
 1214 1082 l 1,23,24
 1214 554.96875 1214 554.96875 1214 51.58984375 c 2,25,26
 1214 -163.928710938 1214 -163.928710938 1074.34277344 -290.26953125 c 0,27,28
 932.25294705 -426 932.25294705 -426 654.780753388 -426 c 0,29,30
 500.960126281 -426 500.960126281 -426 352.317244809 -370.831054688 c 0,31,32
 226.958007812 -315.661132812 226.958007812 -315.661132812 159.760742188 -216.57421875 c 2,33,34
 148.797851562 -149.408203125 148.797851562 -149.408203125 137.833984375 -184.2421875 c 1,35,36
 218.563476562 -39.8984375 218.563476562 -39.8984375 299.29296875 2.4453125 c 1,37,38
 318.475585938 29.75 318.475585938 29.75 337.657226562 -44.9453125 c 2,39,40
 393.170691548 -102.8125 393.170691548 -102.8125 459.376062984 -134.344726562 c 0,41,42
 540.536755981 -173 540.536755981 -173 639.144149507 -173 c 0,43,44
 776.013767705 -173 776.013767705 -173 848.825228401 -112.064453125 c 0,0,1
472.361538939 771.2578125 m 0,45,46
 392.566934457 692.845703125 392.566934457 692.845703125 392.566934457 530.733398438 c 0,47,48
 392.566934457 388.202148438 392.566934457 388.202148438 471.303202092 310.170898438 c 0,49,50
 511.404889029 270.4296875 511.404889029 270.4296875 568.069958728 253.150390625 c 0,51,52
 614.474681755 239 614.474681755 239 674.025804319 239 c 0,53,54
 752.352127937 239 752.352127937 239 810.426747265 260.837890625 c 0,55,56
 877.610581068 286.100585938 877.610581068 286.100585938 921.805835052 342.358398438 c 1,57,58
 921.805835052 542.205078125 921.805835052 542.205078125 921.805835052 742.459960938 c 1,59,60
 876.139950956 797.100585938 876.139950956 797.100585938 809.712575453 821.716796875 c 0,61,62
 752.279301206 843 752.279301206 843 676.431435685 843 c 0,63,64
 616.888535494 843 616.888535494 843 570.252411404 828.76953125 c 0,65,66
 513.158603692 811.34765625 513.158603692 811.34765625 472.361538939 771.2578125 c 0,45,46
EndSplineSet
Substitution2: "Podtablica 'ss07' Styl 7 w tablicy 17" g.ss07
Substitution2: "Podtablica 'ss06' Styl 6 w tablicy 16" g.ss06
Substitution2: "Podtablica 'ss01' Styl 1 w tablicy 11" g.ss01
Substitution2: "Podtablica 'smcp' Tekstowe na kapitaliki w tablicy 1" G.c2sc
EndChar

StartChar: h
Encoding: 104 104 76
Width: 1332
GlyphClass: 2
Flags: W
LayerCount: 2
Fore
SplineSet
427 1536 m 1,0,1
 427 1226.28808594 427 1226.28808594 427 1018.57617188 c 1,2,3
 572.804860138 1102 572.804860138 1102 768.395778364 1102 c 0,4,5
 887.470842266 1102 887.470842266 1102 964.283203125 1075.27148438 c 0,6,7
 1058.92285156 1043.38671875 1058.92285156 1043.38671875 1115.65136719 971.102539062 c 0,8,9
 1193.54003906 871.854492188 1193.54003906 871.854492188 1194.99804688 700.000976562 c 1,10,11
 1194.99804688 366.2578125 1194.99804688 366.2578125 1194.99804688 0 c 1,12,-1
 908 0 l 1,13,14
 908 350.584960938 908 350.584960938 908 684.009765625 c 2,15,16
 906.891990641 770.485351562 906.891990641 770.485351562 858.532463617 806.743164062 c 128,-1,17
 810.174175977 843 810.174175977 843 697.324538259 843 c 0,18,19
 603.635778261 843 603.635778261 843 535.244086515 809.06640625 c 128,-1,20
 466.851155384 775.1328125 466.851155384 775.1328125 427 722.376953125 c 1,21,22
 427 367.698242188 427 367.698242188 427 0 c 1,23,-1
 140 0 l 1,24,25
 140 768 140 768 140 1536 c 1,26,-1
 427 1536 l 1,0,1
EndSplineSet
Substitution2: "Podtablica 'smcp' Tekstowe na kapitaliki w tablicy 1" H.c2sc
EndChar

StartChar: i
Encoding: 105 105 77
Width: 599
GlyphClass: 2
Flags: W
LayerCount: 2
Fore
SplineSet
443 1082 m 1,0,1
 443 541 443 541 443 0 c 1,2,-1
 156 0 l 1,3,4
 156 541 156 541 156 1082 c 1,5,-1
 443 1082 l 1,0,1
141 1317.76171875 m 128,-1,7
 141 1382.34667969 141 1382.34667969 181.33984375 1427.82128906 c 0,8,9
 224.079101562 1476 224.079101562 1476 300.86328125 1476 c 128,-1,10
 377.646484375 1476 377.646484375 1476 419.823242188 1429.3046875 c 128,-1,11
 462 1382.60839844 462 1382.60839844 462 1317.75976562 c 128,-1,12
 462 1252.91210938 462 1252.91210938 419.57421875 1207.45605469 c 128,-1,13
 377.1484375 1162 377.1484375 1162 300.86328125 1162 c 128,-1,14
 224.578125 1162 224.578125 1162 182.7890625 1207.58789062 c 128,-1,6
 141 1253.17578125 141 1253.17578125 141 1317.76171875 c 128,-1,7
EndSplineSet
Substitution2: "Podtablica Podstawienie pojedyncze w tablicy 3" glyph609
Substitution2: "Podtablica 'smcp' Tekstowe na kapitaliki w tablicy 1" I.c2sc
EndChar

StartChar: j
Encoding: 106 106 78
Width: 591
GlyphClass: 2
Flags: W
LayerCount: 2
Fore
SplineSet
146 1082 m 1,0,-1
 433 1082 l 1,1,2
 433 504 433 504 433 -74 c 2,3,4
 433 -229.211914062 433 -229.211914062 367.40234375 -319.610351562 c 0,5,6
 282.219726562 -437 282.219726562 -437 99 -437 c 0,7,8
 29.3935546875 -437 29.3935546875 -437 -30.669921875 -416.208984375 c 2,9,10
 -47.8349609375 -359.267578125 -47.8349609375 -359.267578125 -65 -404.325195312 c 1,11,12
 -65 -228.498046875 -65 -228.498046875 -65 -154.670898438 c 1,13,14
 -33.3037109375 -111.594726562 -33.3037109375 -111.594726562 -1.6083984375 -170.518554688 c 2,15,16
 24.3173828125 -177 24.3173828125 -177 67.3759765625 -177 c 128,-1,17
 110.434570312 -177 110.434570312 -177 127.8984375 -158.999023438 c 0,18,19
 134.08203125 -152.625 134.08203125 -152.625 138.458984375 -139.172851562 c 0,20,21
 146 -115.9921875 146 -115.9921875 146 -78 c 2,22,23
 146 502 146 502 146 1082 c 1,0,-1
285.723632812 1162 m 128,-1,25
 209.298828125 1162 209.298828125 1162 167.0859375 1208.90429688 c 0,26,27
 127 1253.44335938 127 1253.44335938 127 1317.27929688 c 128,-1,28
 127 1381.11621094 127 1381.11621094 167.0703125 1427.015625 c 0,29,30
 209.834960938 1476 209.834960938 1476 286.241210938 1476 c 128,-1,31
 362.646484375 1476 362.646484375 1476 404.823242188 1429.3046875 c 128,-1,32
 447 1382.60839844 447 1382.60839844 447 1317.75976562 c 128,-1,33
 447 1252.91210938 447 1252.91210938 404.57421875 1207.45605469 c 128,-1,24
 362.1484375 1162 362.1484375 1162 285.723632812 1162 c 128,-1,25
EndSplineSet
Substitution2: "Podtablica Podstawienie pojedyncze w tablicy 3" glyph607
Substitution2: "Podtablica 'smcp' Tekstowe na kapitaliki w tablicy 1" J.c2sc
EndChar

StartChar: k
Encoding: 107 107 79
Width: 1242
GlyphClass: 2
Flags: W
LayerCount: 2
Fore
SplineSet
745.834078021 619.03125 m 1,0,1
 1037.99316406 329.45703125 1037.99316406 329.45703125 1290.66894531 -0 c 1,2,3
 1118.61328125 51 1118.61328125 51 946.55859375 -0 c 1,4,5
 724.817280769 287.712890625 724.817280769 287.712890625 503.075967788 473.424804688 c 1,6,7
 465.537983894 492.970703125 465.537983894 492.970703125 428 410.516601562 c 1,8,9
 428 256.258789062 428 256.258789062 428 0 c 1,10,-1
 141 0 l 1,11,12
 141 768 141 768 141 1536 c 1,13,-1
 428 1536 l 1,14,15
 428 1065.51660156 428 1065.51660156 428 697.033203125 c 1,16,17
 433.464513168 651.309570312 433.464513168 651.309570312 438.927810649 707.5859375 c 1,18,19
 439.583065954 657.217773438 439.583065954 657.217773438 440.23832126 708.850585938 c 1,20,21
 660.102613478 844.424804688 660.102613478 844.424804688 879.966905695 1082 c 1,22,23
 1075.125 1031 1075.125 1031 1257.18457031 1082 c 1,24,25
 1021.25097656 823.850585938 1021.25097656 823.850585938 745.834078021 619.03125 c 1,0,1
EndSplineSet
Substitution2: "Podtablica 'ss05' Styl 5 w tablicy 15" k.ss05
Substitution2: "Podtablica 'ss04' Styl 4 w tablicy 14" k.ss04
Substitution2: "Podtablica 'smcp' Tekstowe na kapitaliki w tablicy 1" K.c2sc
EndChar

StartChar: l
Encoding: 108 108 80
Width: 599
GlyphClass: 2
Flags: W
LayerCount: 2
Fore
SplineSet
443 1536 m 1,0,1
 443 768 443 768 443 0 c 1,2,-1
 156 0 l 1,3,4
 156 768 156 768 156 1536 c 1,5,-1
 443 1536 l 1,0,1
EndSplineSet
Substitution2: "Podtablica 'smcp' Tekstowe na kapitaliki w tablicy 1" L.c2sc
EndChar

StartChar: m
Encoding: 109 109 81
Width: 2101
GlyphClass: 2
Flags: W
LayerCount: 2
Fore
SplineSet
416.423828125 1021.89941406 m 1,0,1
 559.716517857 1102 559.716517857 1102 762.507936508 1102 c 0,2,3
 1003.96875 1102 1003.96875 1102 1108.39453125 964.624023438 c 1,4,5
 1155.94335938 1013.296875 1155.94335938 1013.296875 1224.21618362 1047.62597656 c 0,6,7
 1348.57226305 1102 1348.57226305 1102 1515.08970976 1102 c 0,8,9
 1771.83886719 1102 1771.83886719 1102 1876.93554688 977.293945312 c 0,10,11
 1959.05761719 879.84765625 1959.05761719 879.84765625 1961.99316406 711.015625 c 2,12,13
 1961.99707031 697.286132812 1961.99707031 697.286132812 1962 710.637695312 c 1,14,15
 1962 371.896484375 1962 371.896484375 1962 0 c 1,16,-1
 1675 0 l 1,17,18
 1675 349.879882812 1675 349.879882812 1675 682.428710938 c 2,19,20
 1675 768.151367188 1675 768.151367188 1625.92410898 805.576171875 c 128,-1,21
 1576.84821797 843 1576.84821797 843 1446.55672823 843 c 0,22,23
 1340.74679203 843 1340.74679203 843 1273.36271953 800.1640625 c 128,-1,24
 1205.97988642 757.328125 1205.97988642 757.328125 1194 683.477539062 c 1,25,26
 1194 350.34765625 1194 350.34765625 1194 0 c 1,27,-1
 906 0 l 1,28,29
 906 347.890625 906 347.890625 906 677.967773438 c 2,30,31
 906 755.853515625 906 755.853515625 861.803571429 795.502929688 c 0,32,33
 808.860863095 843 808.860863095 843 677.428571429 843 c 0,34,35
 590.723462302 843 590.723462302 843 530.937996032 820.895507812 c 0,36,37
 463.446676587 795.94140625 463.446676587 795.94140625 426 740.412109375 c 1,38,39
 426 375.7421875 426 375.7421875 426 0 c 1,40,-1
 139 0 l 1,41,42
 139 541 139 541 139 1082 c 1,43,-1
 413.919921875 1082 l 1,44,45
 414.9375 1006.578125 414.9375 1006.578125 415.955078125 1033.15527344 c 1,46,47
 416.189453125 976.52734375 416.189453125 976.52734375 416.423828125 1021.89941406 c 1,0,1
EndSplineSet
Substitution2: "Podtablica 'smcp' Tekstowe na kapitaliki w tablicy 1" M.c2sc
EndChar

StartChar: n
Encoding: 110 110 82
Width: 1334
GlyphClass: 2
Flags: W
LayerCount: 2
Fore
SplineSet
416.950195312 1033.28125 m 1,0,1
 417.42578125 971.495117188 417.42578125 971.495117188 417.901367188 1011.70898438 c 1,2,3
 565.066146005 1102 565.066146005 1102 768.395778364 1102 c 0,4,5
 887.470842266 1102 887.470842266 1102 964.283203125 1075.27148438 c 0,6,7
 1058.92285156 1043.38671875 1058.92285156 1043.38671875 1115.65136719 971.102539062 c 0,8,9
 1193.54003906 871.854492188 1193.54003906 871.854492188 1194.99804688 700.000976562 c 1,10,11
 1194.99804688 366.2578125 1194.99804688 366.2578125 1194.99804688 0 c 1,12,-1
 908 0 l 1,13,14
 908 350.584960938 908 350.584960938 908 684.009765625 c 2,15,16
 906.891990641 770.485351562 906.891990641 770.485351562 858.532463617 806.743164062 c 128,-1,17
 810.174175977 843 810.174175977 843 697.324538259 843 c 0,18,19
 603.635778261 843 603.635778261 843 535.244086515 809.06640625 c 128,-1,20
 466.851155384 775.1328125 466.851155384 775.1328125 427 722.376953125 c 1,21,22
 427 367.698242188 427 367.698242188 427 0 c 1,23,-1
 140 0 l 1,24,25
 140 541 140 541 140 1082 c 1,26,-1
 414.80078125 1082 l 1,27,28
 415.875 1006.640625 415.875 1006.640625 416.950195312 1033.28125 c 1,0,1
EndSplineSet
Substitution2: "Podtablica 'smcp' Tekstowe na kapitaliki w tablicy 1" N.c2sc
EndChar

StartChar: o
Encoding: 111 111 83
Width: 1372
GlyphClass: 2
Flags: W
LayerCount: 2
Fore
SplineSet
354.140347978 1031.71582031 m 0,0,1
 499.262540697 1102 499.262540697 1102 683.743064419 1102 c 0,2,3
 969.343466484 1102 969.343466484 1102 1130.56347656 946.1015625 c 0,4,5
 1280 792.560546875 1280 792.560546875 1280 541.916992188 c 2,6,7
 1280 536.37890625 1280 536.37890625 1280 530 c 2,8,9
 1280 374.475585938 1280 374.475585938 1213.76074219 248.520507812 c 128,-1,10
 1147.52148438 122.565429688 1147.52148438 122.565429688 1020.54166741 51.283203125 c 0,11,12
 874.158964919 -20 874.158964919 -20 686.085645194 -20 c 0,13,14
 401.656533516 -20 401.656533516 -20 240.436523438 135.8984375 c 0,15,16
 91 289.439453125 91 289.439453125 91 538.25 c 2,17,18
 91 543.94140625 91 543.94140625 91 550.166992188 c 2,19,20
 91 706.806640625 91 706.806640625 159.349609375 834.120117188 c 128,-1,21
 227.69921875 961.432617188 227.69921875 961.432617188 354.140347978 1031.71582031 c 0,0,1
472.229067045 771.583007812 m 0,22,23
 386.235305972 689.8671875 386.235305972 689.8671875 386.235305972 530.635742188 c 0,24,25
 386.235305972 391.0625 386.235305972 391.0625 471.74979881 309.31640625 c 0,26,27
 516.406388675 266.626953125 516.406388675 266.626953125 576.565418601 248.05078125 c 0,28,29
 625.307798764 233 625.307798764 233 686.285816891 233 c 128,-1,30
 747.263835018 233 747.263835018 233 796.088571536 248.239257812 c 0,31,32
 856.320807111 267.040039062 856.320807111 267.040039062 900.663985291 310.271484375 c 0,33,34
 985.935984416 393.40625 985.935984416 393.40625 985.935984416 549.505859375 c 0,35,36
 985.935984416 687.384765625 985.935984416 687.384765625 899.219317557 770.426757812 c 0,37,38
 853.85011645 813.874023438 853.85011645 813.874023438 793.302181512 832.754882812 c 0,39,40
 744.412246213 848 744.412246213 848 684.540319692 848 c 128,-1,41
 624.667249333 848 624.667249333 848 576.785035549 833.026367188 c 0,42,43
 517.320315452 814.430664062 517.320315452 814.430664062 472.229067045 771.583007812 c 0,22,23
EndSplineSet
Substitution2: "Podtablica 'ss06' Styl 6 w tablicy 16" o.ss06
Substitution2: "Podtablica 'smcp' Tekstowe na kapitaliki w tablicy 1" O.c2sc
EndChar

StartChar: p
Encoding: 112 112 84
Width: 1353
GlyphClass: 2
Flags: W
LayerCount: 2
Fore
SplineSet
411.57245388 1034.86132812 m 1,0,1
 412.175036346 977.190429688 412.175036346 977.190429688 412.776444188 1021.51855469 c 1,2,3
 547.272145886 1102 547.272145886 1102 738.912164156 1102 c 0,4,5
 855.309248622 1102 855.309248622 1102 951.339515577 1069.1484375 c 0,6,7
 1062.44921875 1031.3125 1062.44921875 1031.3125 1133.88964844 946.940429688 c 0,8,9
 1258 800.366210938 1258 800.366210938 1258 545.604492188 c 2,10,11
 1258 538.176757812 1258 538.176757812 1258 530.103515625 c 2,12,13
 1258 289.409179688 1258 289.409179688 1134.85644531 139.358398438 c 0,14,15
 1063.81640625 52.7958984375 1063.81640625 52.7958984375 953.873181034 13.8876953125 c 0,16,17
 858.246984973 -20 858.246984973 -20 742.520611206 -20 c 0,18,19
 562.102957229 -20 562.102957229 -20 430.991349265 47.5224609375 c 1,20,21
 430.991349265 -133.239257812 430.991349265 -133.239257812 430.991349265 -416 c 1,22,-1
 140 -416 l 1,23,24
 140 333 140 333 140 1082 c 1,25,-1
 407.3203125 1082 l 1,26,27
 409.44638319 1007.43066406 409.44638319 1007.43066406 411.57245388 1034.86132812 c 1,0,1
880.314659035 305.73828125 m 0,28,29
 962.635881226 384.541992188 962.635881226 384.541992188 962.635881226 548.28125 c 0,30,31
 962.635881226 690.729492188 962.635881226 690.729492188 880.721079178 770.020507812 c 0,32,33
 838.568497531 810.823242188 838.568497531 810.823242188 780.318859125 828.556640625 c 0,34,35
 732.878117121 843 732.878117121 843 672.757301582 843 c 0,36,37
 597.6153855 843 597.6153855 843 540.7647251 822.477539062 c 0,38,39
 475.689342616 798.986328125 475.689342616 798.986328125 430.991349265 747.153320312 c 1,40,41
 430.991349265 537.616210938 430.991349265 537.616210938 430.991349265 327.950195312 c 1,42,43
 475.033902039 276.756835938 475.033902039 276.756835938 540.561515028 253.478515625 c 0,44,45
 598.209745593 233 598.209745593 233 675.162932948 233 c 0,46,47
 733.581717311 233 733.581717311 233 780.176729537 247.305664062 c 0,48,49
 837.734514001 264.977539062 837.734514001 264.977539062 880.314659035 305.73828125 c 0,28,29
EndSplineSet
Substitution2: "Podtablica 'ss06' Styl 6 w tablicy 16" p.ss06
Substitution2: "Podtablica 'smcp' Tekstowe na kapitaliki w tablicy 1" P.c2sc
EndChar

StartChar: q
Encoding: 113 113 85
Width: 1368
GlyphClass: 2
Flags: W
LayerCount: 2
Fore
SplineSet
410.192107642 1068.89648438 m 0,0,1
 507.69306051 1102 507.69306051 1102 625.208047612 1102 c 0,2,3
 807.530831607 1102 807.530831607 1102 937.886031027 1028.609375 c 1,4,5
 938.158826746 980.694335938 938.158826746 980.694335938 938.431622466 1034.77929688 c 1,6,7
 940.517569045 1007.38964844 940.517569045 1007.38964844 942.603515625 1082 c 1,8,-1
 1211 1082 l 1,9,10
 1211 333 1211 333 1211 -416 c 1,11,-1
 920.203694688 -416 l 1,12,13
 920.203694688 -134.912109375 920.203694688 -134.912109375 920.203694688 44.17578125 c 1,14,15
 792.572924933 -20 792.572924933 -20 622.799919881 -20 c 0,16,17
 505.466012696 -20 505.466012696 -20 408.108512749 14.1103515625 c 0,18,19
 294.940429688 53.2509765625 294.940429688 53.2509765625 221.950195312 140.37109375 c 0,20,21
 95 292.116210938 95 292.116210938 95 537.397460938 c 2,22,23
 95 543.163085938 95 543.163085938 95 549.250976562 c 2,24,25
 95 797.874023438 95 797.874023438 222.919921875 945.916992188 c 0,26,27
 296.283203125 1030.82128906 296.283203125 1030.82128906 410.192107642 1068.89648438 c 0,0,1
473.479538735 774.37109375 m 0,28,29
 390.415593818 694.6015625 390.415593818 694.6015625 390.415593818 530.635742188 c 0,30,31
 390.415593818 385.521484375 390.415593818 385.521484375 472.905727049 306.171875 c 0,32,33
 515.55004757 265.15234375 515.55004757 265.15234375 573.160505671 247.377929688 c 0,34,35
 619.76153997 233 619.76153997 233 678.186857699 233 c 0,36,37
 752.032188645 233 752.032188645 233 808.921854608 253.177734375 c 0,38,39
 873.960116849 276.244140625 873.960116849 276.244140625 920.203694688 326.962890625 c 1,40,41
 920.203694688 541.454101562 920.203694688 541.454101562 920.203694688 756.262695312 c 1,42,43
 873.597957014 805.703125 873.597957014 805.703125 809.318113907 828.244140625 c 0,44,45
 752.979918602 848 752.979918602 848 680.594985431 848 c 0,46,47
 621.606438608 848 621.606438608 848 574.567990483 833.522460938 c 0,48,49
 516.444864564 815.633789062 516.444864564 815.633789062 473.479538735 774.37109375 c 0,28,29
EndSplineSet
Substitution2: "Podtablica 'ss05' Styl 5 w tablicy 15" q.ss05
Substitution2: "Podtablica 'ss06' Styl 6 w tablicy 16" q.ss06
Substitution2: "Podtablica 'smcp' Tekstowe na kapitaliki w tablicy 1" Q.c2sc
EndChar

StartChar: r
Encoding: 114 114 86
Width: 795
GlyphClass: 2
Flags: W
LayerCount: 2
Fore
SplineSet
420.791015625 1082 m 1,0,1
 421.357421875 1007.38769531 421.357421875 1007.38769531 421.924804688 1034.77539062 c 1,2,3
 510.2265625 1102 510.2265625 1102 632 1102 c 0,4,5
 698.049804688 1102 698.049804688 1102 736.758789062 1082.64550781 c 2,6,7
 750.87890625 1024.58496094 750.87890625 1024.58496094 765 1068.52441406 c 1,8,9
 765 885.657226562 765 885.657226562 765 804.790039062 c 1,10,11
 735.284179688 758.7421875 735.284179688 758.7421875 705.567382812 814.6953125 c 2,12,13
 667.73828125 821 667.73828125 821 623 821 c 0,14,15
 554.794921875 821 554.794921875 821 508.161132812 799.018554688 c 0,16,17
 455.56640625 774.227539062 455.56640625 774.227539062 427 718.970703125 c 1,18,19
 427 365.123046875 427 365.123046875 427 0 c 1,20,-1
 140 0 l 1,21,22
 140 541 140 541 140 1082 c 1,23,-1
 420.791015625 1082 l 1,0,1
EndSplineSet
Substitution2: "Podtablica 'smcp' Tekstowe na kapitaliki w tablicy 1" R.c2sc
EndChar

StartChar: s
Encoding: 115 115 87
Width: 1260
GlyphClass: 2
Flags: W
LayerCount: 2
Fore
SplineSet
642.818398232 233 m 0,0,1
 751.738621992 233 751.738621992 233 813.394964318 263.350585938 c 0,2,3
 836.895599972 274.918945312 836.895599972 274.918945312 849.977386791 289.965820312 c 128,-1,4
 863.05917361 305.01171875 863.05917361 305.01171875 863.05917361 326.322265625 c 128,-1,5
 863.05917361 347.633789062 863.05917361 347.633789062 853.489945773 364.482421875 c 128,-1,6
 843.919529656 381.331054688 843.919529656 381.331054688 819.841389379 394.338867188 c 128,-1,7
 795.763249102 407.346679688 795.763249102 407.346679688 744.7907423 421.885742188 c 128,-1,8
 693.81942378 436.423828125 693.81942378 436.423828125 603.656217453 450.583984375 c 0,9,10
 424.805649948 478.671875 424.805649948 478.671875 318.525390625 520.271484375 c 0,11,12
 132 605.254882812 132 605.254882812 132 772.657226562 c 0,13,14
 132 850.826171875 132 850.826171875 173.326171875 916.05078125 c 0,15,16
 205.823242188 967.341796875 205.823242188 967.341796875 263.248046875 1009.36914062 c 0,17,18
 400.44945189 1102 400.44945189 1102 635.517599048 1102 c 0,19,20
 881.785295735 1102 881.785295735 1102 1016.03320312 995.264648438 c 0,21,22
 1089.50976562 934.301757812 1089.50976562 934.301757812 1122.61035156 853.358398438 c 0,23,24
 1149 788.82421875 1149 788.82421875 1149 713 c 2,25,26
 1149 636.5 1149 636.5 1149 662 c 1,27,-1
 849.674375106 662 l 1,28,29
 849.674375106 636.5 849.674375106 636.5 849.674375106 713 c 2,30,31
 849.674375106 741.973632812 849.674375106 741.973632812 834.504778365 764.354492188 c 128,-1,32
 819.336369904 786.736328125 819.336369904 786.736328125 793.01713144 805.180664062 c 0,33,34
 731.914528115 848 731.914528115 848 632.843966534 848 c 128,-1,35
 533.772216672 848 533.772216672 848 481.134928026 818.118164062 c 0,36,37
 455.421712931 803.521484375 455.421712931 803.521484375 445.692067144 786.857421875 c 128,-1,38
 435.962421357 770.193359375 435.962421357 770.193359375 435.962421357 752.357421875 c 128,-1,39
 435.962421357 734.522460938 435.962421357 734.522460938 443.78368767 721.743164062 c 128,-1,40
 451.604953983 708.963867188 451.604953983 708.963867188 473.09858283 698.82421875 c 128,-1,41
 494.591023396 688.684570312 494.591023396 688.684570312 544.857691214 675.4140625 c 128,-1,42
 595.123170751 662.14453125 595.123170751 662.14453125 685.005942734 647.349609375 c 0,43,44
 860.884619166 618.399414062 860.884619166 618.399414062 961.758789062 577.439453125 c 0,45,46
 1059.58691406 533.668945312 1059.58691406 533.668945312 1109.29296875 468.825195312 c 128,-1,47
 1159 403.98046875 1159 403.98046875 1159 311.987304688 c 0,48,49
 1159 244.875 1159 244.875 1131.93554688 188.763671875 c 0,50,51
 1097.94140625 118.288085938 1097.94140625 118.288085938 1022.66992188 67.48046875 c 0,52,53
 888.611970753 -20 888.611970753 -20 642.818398232 -20 c 0,54,55
 471.027408843 -20 471.027408843 -20 336.358398438 31.271484375 c 0,56,57
 224.8984375 82.54296875 224.8984375 82.54296875 159.94921875 177.379882812 c 128,-1,58
 95 272.217773438 95 272.217773438 95 384 c 2,59,60
 95 460.5 95 460.5 95 435 c 1,61,-1
 387.695630659 435 l 1,62,63
 389.272479702 461.888671875 389.272479702 461.888671875 390.850517025 386.776367188 c 2,64,65
 395.425399326 316.838867188 395.425399326 316.838867188 457.782827511 276.653320312 c 0,66,67
 525.518416033 233 525.518416033 233 642.818398232 233 c 0,0,1
EndSplineSet
Substitution2: "Podtablica 'smcp' Tekstowe na kapitaliki w tablicy 1" S.c2sc
EndChar

StartChar: t
Encoding: 116 116 88
Width: 873
GlyphClass: 2
Flags: W
LayerCount: 2
Fore
SplineSet
9 1082 m 1,0,-1
 206 1082 l 1,1,2
 206 1162 206 1162 206 1344 c 1,3,-1
 595 1344 l 1,4,5
 595 1162 595 1162 595 1082 c 1,6,-1
 797 1082 l 1,7,8
 797 908.5 797 908.5 797 837 c 1,9,-1
 595 837 l 1,10,11
 595 567.313476562 595 567.313476562 595 307.471679688 c 2,12,13
 595 267.678710938 595 267.678710938 610.244140625 252.006835938 c 0,14,15
 621.923828125 240 621.923828125 240 663 240 c 0,16,17
 689.556640625 240 689.556640625 240 740.279296875 250.869140625 c 2,18,19
 771.139648438 308.482421875 771.139648438 308.482421875 802 264.094726562 c 1,20,21
 802 189.088867188 802 189.088867188 802 12.0830078125 c 1,22,23
 783.245117188 57.9443359375 783.245117188 57.9443359375 764.489257812 1.8056640625 c 2,24,25
 684.897460938 -20 684.897460938 -20 609 -20 c 0,26,27
 412.672911288 -20 412.672911288 -20 294.318399127 63.3115234375 c 0,28,29
 206 143.03125 206 143.03125 206 282.943359375 c 2,30,31
 206 543.861328125 206 543.861328125 206 837 c 1,32,-1
 9 837 l 1,33,34
 9 908.5 9 908.5 9 1082 c 1,0,-1
EndSplineSet
Substitution2: "Podtablica 'smcp' Tekstowe na kapitaliki w tablicy 1" T.c2sc
EndChar

StartChar: u
Encoding: 117 117 89
Width: 1333
GlyphClass: 2
Flags: W
LayerCount: 2
Fore
SplineSet
904.999023438 344.529296875 m 1,0,1
 904.999023438 707.569335938 904.999023438 707.569335938 904.999023438 1082 c 1,2,-1
 1191.99902344 1082 l 1,3,4
 1191.99902344 541 1191.99902344 541 1191.99902344 0 c 1,5,-1
 915.870117188 0 l 1,6,7
 914.952148438 75.5322265625 914.952148438 75.5322265625 914.03515625 49.064453125 c 1,8,9
 914.016601562 100.559570312 914.016601562 100.559570312 913.998046875 50.0546875 c 1,10,11
 776.888497122 -20 776.888497122 -20 573.941128701 -20 c 0,12,13
 346.306640625 -20 346.306640625 -20 240.594726562 87.4482421875 c 0,14,15
 137.098632812 192.643554688 137.098632812 192.643554688 136 390.720703125 c 1,16,17
 136 718.962890625 136 718.962890625 136 1082 c 1,18,-1
 422.999023438 1082 l 1,19,20
 422.999023438 738.087890625 422.999023438 738.087890625 422.999023438 412.952148438 c 2,21,22
 422.999023438 328.909179688 422.999023438 328.909179688 462.687967722 285.994140625 c 0,23,24
 486.312309827 260.448242188 486.312309827 260.448242188 524.124635074 249.724609375 c 128,-1,25
 561.936960321 239 561.936960321 239 611.99376028 239 c 0,26,27
 717.001434005 239 717.001434005 239 787.905427632 262.518554688 c 0,28,29
 865.809272204 288.359375 865.809272204 288.359375 904.999023438 344.529296875 c 1,0,1
EndSplineSet
Substitution2: "Podtablica 'smcp' Tekstowe na kapitaliki w tablicy 1" U.c2sc
EndChar

StartChar: v
Encoding: 118 118 90
Width: 1196
GlyphClass: 2
Flags: W
LayerCount: 2
Fore
SplineSet
620.762915971 364.252929688 m 1,0,1
 761.672579804 672.125976562 761.672579804 672.125976562 902.581054688 1082 c 1,2,3
 1051.89550781 1031 1051.89550781 1031 1201.20898438 1082 c 1,4,5
 988.920898438 541 988.920898438 541 749.239723863 0 c 1,6,7
 619.77370911 51 619.77370911 51 490.307694356 0 c 1,8,9
 247.4765625 541 247.4765625 541 33 1082 c 1,10,-1
 331.583984375 1082 l 1,11,12
 476.173450173 672.125976562 476.173450173 672.125976562 620.762915971 364.252929688 c 1,0,1
EndSplineSet
Substitution2: "Podtablica 'smcp' Tekstowe na kapitaliki w tablicy 1" V.c2sc
EndChar

StartChar: w
Encoding: 119 119 91
Width: 1845
GlyphClass: 2
Flags: W
LayerCount: 2
Fore
SplineSet
512.028320312 405.93359375 m 1,0,1
 691.555599767 692.966796875 691.555599767 692.966796875 824.360351562 1082 c 1,2,3
 936.420898438 1031 936.420898438 1031 1048.48242188 1082 c 1,4,5
 1183.7974663 686.2734375 1183.7974663 686.2734375 1262.73828125 392.545898438 c 1,6,7
 1428.62864946 686.2734375 1428.62864946 686.2734375 1538.14355469 1082 c 1,8,9
 1684.51660156 1031 1684.51660156 1031 1830.88964844 1082 c 1,10,11
 1556.54296875 541 1556.54296875 541 1384.1953125 0 c 1,12,13
 1271.44921875 51 1271.44921875 51 1158.703125 0 c 1,14,15
 1020.29272785 401.965820312 1020.29272785 401.965820312 933.571289062 701.932617188 c 1,16,17
 747.157097767 401.965820312 747.157097767 401.965820312 612.430664062 0 c 1,18,19
 499.515625 51 499.515625 51 386.600585938 -0 c 1,20,21
 214.80078125 541 214.80078125 541 43 1082 c 1,22,23
 188.624023438 1031 188.624023438 1031 334.248046875 1082 c 1,24,25
 446.498830817 692.966796875 446.498830817 692.966796875 512.028320312 405.93359375 c 1,0,1
EndSplineSet
Substitution2: "Podtablica 'smcp' Tekstowe na kapitaliki w tablicy 1" W.c2sc
EndChar

StartChar: x
Encoding: 120 120 92
Width: 1219
GlyphClass: 2
Flags: W
LayerCount: 2
Fore
SplineSet
452.244320047 546.591796875 m 1,0,1
 246.276367188 790.751953125 246.276367188 790.751953125 52.443359375 1082 c 1,2,3
 221.328125 1031 221.328125 1031 390.213867188 1082 c 1,4,5
 519.753761315 857.333984375 519.753761315 857.333984375 649.292441398 734.66796875 c 1,6,7
 780.47129727 857.333984375 780.47129727 857.333984375 911.651367188 1082 c 1,8,9
 1081.44238281 1031 1081.44238281 1031 1251.234375 1082 c 1,10,11
 1057.40136719 790.751953125 1057.40136719 790.751953125 851.874183215 546.591796875 c 1,12,13
 1063.12207031 296.358398438 1063.12207031 296.358398438 1262.67773438 0 c 1,14,-1
 924.887695312 0 l 1,15,16
 788.61328125 230.454101562 788.61328125 230.454101562 652.338867188 358.909179688 c 1,17,18
 516.064453125 230.454101562 516.064453125 230.454101562 379.790039062 0 c 1,19,20
 210.39453125 51 210.39453125 51 41 -0 c 1,21,22
 240.5546875 296.358398438 240.5546875 296.358398438 452.244320047 546.591796875 c 1,0,1
EndSplineSet
Substitution2: "Podtablica 'smcp' Tekstowe na kapitaliki w tablicy 1" X.c2sc
EndChar

StartChar: y
Encoding: 121 121 93
Width: 1173
GlyphClass: 2
Flags: W
LayerCount: 2
Fore
SplineSet
447.459846219 55.451171875 m 1,0,1
 224.147460938 565.13671875 224.147460938 565.13671875 22 1082 c 1,2,3
 177.704101562 1031 177.704101562 1031 333.408203125 1082 c 1,4,5
 475.559074575 683.2578125 475.559074575 683.2578125 617.708746945 386.516601562 c 1,6,7
 750.383293325 683.2578125 750.383293325 683.2578125 883.056640625 1082 c 1,8,9
 1036.72949219 1031 1036.72949219 1031 1190.40234375 1082 c 1,10,11
 961.102539062 474.620117188 961.102539062 474.620117188 697.338415626 -132.760742188 c 1,12,13
 697.097400652 -82.3037109375 697.097400652 -82.3037109375 696.856385678 -133.846679688 c 1,14,15
 636.837661768 -264.51953125 636.837661768 -264.51953125 542.783067034 -339.18359375 c 0,16,17
 419.565660453 -437 419.565660453 -437 260.625 -437 c 2,18,-1
 258.413085938 -437 l 1,19,20
 257.31640625 -385.90625 257.31640625 -385.90625 256.220703125 -436.8125 c 1,21,22
 238.720703125 -384.3125 238.720703125 -384.3125 221.220703125 -433.8125 c 1,23,24
 219.939453125 -382.702148438 219.939453125 -382.702148438 218.658203125 -433.592773438 c 1,25,26
 162.141601562 -371.944335938 162.141601562 -371.944335938 105.625 -412.295898438 c 1,27,28
 105.625 -237.525390625 105.625 -237.525390625 105.625 -164.754882812 c 1,29,30
 157.126953125 -117.875 157.126953125 -117.875 208.62890625 -172.995117188 c 1,31,32
 284.646484375 -172.615234375 284.646484375 -172.615234375 323.564453125 -144.4453125 c 0,33,34
 369.105998097 -116.276367188 369.105998097 -116.276367188 404.77981148 -29.9697265625 c 1,35,36
 426.119828849 55.8671875 426.119828849 55.8671875 447.459846219 55.451171875 c 1,0,1
EndSplineSet
Substitution2: "Podtablica 'smcp' Tekstowe na kapitaliki w tablicy 1" Y.c2sc
EndChar

StartChar: z
Encoding: 122 122 94
Width: 1219
GlyphClass: 2
Flags: W
LayerCount: 2
Fore
SplineSet
698.958418506 827 m 1,0,-1
 97 827 l 1,1,2
 97 903.5 97 903.5 97 1082 c 1,3,-1
 1121 1082 l 1,4,5
 1121 957.672851562 1121 957.672851562 1121 904.750976562 c 1,6,7
 832.094034141 588.584960938 832.094034141 588.584960938 496.310505689 253 c 1,8,-1
 1151 253 l 1,9,10
 1151 177.5 1151 177.5 1151 0 c 1,11,-1
 88 0 l 1,12,13
 88 126.248046875 88 126.248046875 88 181.637695312 c 1,14,15
 366.782691921 494.34765625 366.782691921 494.34765625 698.958418506 827 c 1,0,-1
EndSplineSet
Substitution2: "Podtablica 'smcp' Tekstowe na kapitaliki w tablicy 1" Z.c2sc
EndChar

StartChar: braceleft
Encoding: 123 123 95
Width: 693
GlyphClass: 1
Flags: W
LayerCount: 2
Fore
SplineSet
384.083488844 614.793990928 m 1
 512 504.801370418 512 504.801370418 512 296 c 2
 512 90.2886604784 l 1
 514.058330874 -91.5462663561 514.058330874 -91.5462663561 611.321973787 -164.929242943 c 0
 642.898517793 -188.752952606 642.898517793 -188.752952606 685.556826581 -202.420177752 c 2
 734.584558729 -218.128091935 l 1
 665.11629154 -428.361005798 l 1
 618.125479167 -415.086765014 l 2
 425.110375389 -360.562724399 425.110375389 -360.562724399 325.055187694 -232.559160254 c 0
 225 -104.555596108 225 -104.555596108 225 101 c 2
 225 300 l 2
 225 391.970272762 225 391.970272762 192.273700017 438.859959648 c 0
 172.298587052 467.479962305 172.298587052 467.479962305 139.675837311 479.739981152 c 0
 107.053087571 492 107.053087571 492 64 492 c 2
 13 492 l 1
 13 739 l 1
 64 739 l 2
 107.088599727 739 107.088599727 739 139.729931459 751.216520692 c 0
 225 783.130155995 225 783.130155995 225 930 c 2
 225 1138.56765016 l 1
 227.187589314 1338.73207243 227.187589314 1338.73207243 325.096586476 1464.61307554 c 0
 423.005583638 1590.49407865 423.005583638 1590.49407865 618.016039202 1646.05571683 c 2
 665.081761795 1659.46550371 l 1
 734.581837025 1449.13632867 l 1
 685.564942771 1433.42277884 l 2
 589.943715963 1402.76908412 589.943715963 1402.76908412 547.961966181 1318.50428013 c 0
 512 1246.32224753 512 1246.32224753 512 1133 c 2
 512 931 l 2
 512 723.827448906 512 723.827448906 384.083488844 614.793990928 c 1
EndSplineSet
EndChar

StartChar: bar
Encoding: 124 124 96
Width: 499
GlyphClass: 1
Flags: W
LayerCount: 2
Fore
SplineSet
375 -321 m 1
 124 -321 l 1
 124 1507 l 1
 375 1507 l 1
 375 -321 l 1
EndSplineSet
EndChar

StartChar: braceright
Encoding: 125 125 97
Width: 693
GlyphClass: 1
Flags: W
LayerCount: 2
Fore
SplineSet
312.376621543 614.68082609 m 1
 178 720.200573977 178 720.200573977 178 930 c 2
 178 1133 l 2
 178 1320.14103466 178 1320.14103466 79.5737672003 1395.23649049 c 0
 47.7040717245 1419.55185075 47.7040717245 1419.55185075 4.43505722861 1433.42277884 c 2
 -44.5818370251 1449.13632867 l 1
 24.8837084602 1659.3610058 l 1
 71.8745208333 1646.08676501 l 2
 264.730473459 1591.60768235 264.730473459 1591.60768235 364.317392127 1465.72534134 c 0
 463.904310794 1339.84300033 463.904310794 1339.84300033 464.999240866 1137.28093706 c 1
 464.999240866 927 l 2
 464.999240866 837.026011309 464.999240866 837.026011309 497.496163369 791.232479203 c 0
 517.408437136 763.172140581 517.408437136 763.172140581 550.106567051 751.08607029 c 0
 582.804696967 739 582.804696967 739 626 739 c 2
 677 739 l 1
 677 492 l 1
 626 492 l 2
 582.946912429 492 582.946912429 492 550.324162689 479.739981152 c 0
 465 447.674142097 465 447.674142097 465 300 c 2
 465 98 l 2
 465 -107.892936428 465 -107.892936428 363.81005954 -234.240596891 c 0
 262.620119081 -360.588257354 262.620119081 -360.588257354 72.0198532683 -415.045476158 c 2
 25.2967728461 -428.394927707 l 1
 -45.9721984164 -218.242832959 l 1
 3.45153085658 -202.417500926 l 2
 96.5053672091 -172.621937561 96.5053672091 -172.621937561 139.018603822 -92.8155075563 c 0
 175.106954576 -25.069961276 175.106954576 -25.069961276 178 80.6960346026 c 1
 178 300 l 2
 178 508.236715661 178 508.236715661 312.376621543 614.68082609 c 1
EndSplineSet
EndChar

StartChar: asciitilde
Encoding: 126 126 98
Width: 1393
GlyphClass: 1
Flags: W
LayerCount: 2
Fore
SplineSet
1314 777 m 2
 1314 600.070699375 1314 600.070699375 1208.14548809 477.234180209 c 0
 1099.36303787 351 1099.36303787 351 939 351 c 0
 856.838089133 351 856.838089133 351 784.303265676 381.033950337 c 0
 711.76844222 411.067900675 711.76844222 411.067900675 620.925164566 490.622960396 c 0
 541.588254242 560.101438076 541.588254242 560.101438076 512.914732264 574.050719038 c 0
 484.241210286 588 484.241210286 588 456.521770724 588 c 0
 428.802331162 588 428.802331162 588 408.76382482 580.314981439 c 0
 388.725318478 572.629962878 388.725318478 572.629962878 374.135920424 554.04584869 c 0
 343 514.384616721 343 514.384616721 343 438 c 2
 343 387.629531579 l 1
 80 384.362450834 l 1
 80 436 l 2
 80 615.446308955 80 615.446308955 184.956340739 732.951777391 c 0
 292.18387938 853 292.18387938 853 454 853 c 0
 541.119713626 853 541.119713626 853 619.789069015 817.036866108 c 0
 698.458424403 781.073732216 698.458424403 781.073732216 792.404043228 695.134842268 c 0
 867.341600117 626.584008978 867.341600117 626.584008978 916.037412055 617.706577169 c 1
 940.650423627 616.009128095 l 1
 963.418530206 616.262065193 963.418530206 616.262065193 981.731143699 623.715620159 c 0
 1004.89866418 633.145207444 1004.89866418 633.145207444 1023.0265212 655.280274954 c 0
 1059 699.205785914 1059 699.205785914 1059 776 c 2
 1059 826.667776913 l 1
 1314 828.33444358 l 1
 1314 777 l 2
EndSplineSet
EndChar

StartChar: exclamdown
Encoding: 161 161 99
Width: 499
GlyphClass: 1
Flags: W
LayerCount: 2
Fore
SplineSet
119.631029465 735 m 1
 388.368970535 735 l 1
 402.639085477 -411 l 1
 105.360914523 -411 l 1
 119.631029465 735 l 1
368.660007978 886.178930102 m 0
 325.9206345 838 325.9206345 838 249.137152583 838 c 0
 172.353670665 838 172.353670665 838 130.176835333 884.695781975 c 0
 88 931.391563951 88 931.391563951 88 996.239784292 c 0
 88 1061.08800463 88 1061.08800463 130.425597838 1106.54400232 c 0
 172.851195677 1152 172.851195677 1152 249.136557272 1152 c 0
 325.421918867 1152 325.421918867 1152 367.210959434 1106.41195575 c 0
 409 1060.82391149 409 1060.82391149 409 996.238507209 c 0
 409 931.653102927 409 931.653102927 368.660007978 886.178930102 c 0
EndSplineSet
EndChar

StartChar: cent
Encoding: 162 162 100
Width: 1120
GlyphClass: 1
Flags: W
LayerCount: 2
Fore
SplineSet
586 182 m 0
 667.818251479 182 667.818251479 182 726.469044283 229.950986009 c 0
 785.119837088 277.901972018 785.119837088 277.901972018 791.206499227 345.616088322 c 2
 795.375839603 392 l 1
 1070.4873052 392 l 1
 1067.94151615 338.538430042 l 2
 1061.01660624 193.115321854 1061.01660624 193.115321854 948.327510746 78.7188158237 c 0
 853.035557846 -18.0169545448 853.035557846 -18.0169545448 720 -52.9387152121 c 1
 720 -296 l 1
 433 -296 l 1
 433 -51.6164315801 l 1
 262.878428648 -5.75485234925 262.878428648 -5.75485234925 163.274016545 135.683412837 c 0
 54 290.852516331 54 290.852516331 54 527 c 2
 54 562 l 2
 54 790.232366983 54 790.232366983 164.36360096 945.94338814 c 0
 264.732676166 1087.55322197 264.732676166 1087.55322197 433 1132.70833143 c 1
 433 1369 l 1
 720 1369 l 1
 720 1136.94477633 l 1
 859.264245807 1103.5016937 859.264245807 1103.5016937 952.807150107 1000.21473686 c 0
 1061.22116664 880.507593611 1061.22116664 880.507593611 1067.95867376 712.069915656 c 2
 1070.08147038 659 l 1
 794.735759057 659 l 1
 791.14882851 706.07846343 l 2
 784.642556437 791.473284384 784.642556437 791.473284384 727.69322187 845.236642192 c 0
 670.743887303 899 670.743887303 899 586 899 c 0
 533.177674791 899 533.177674791 899 492.121131 882.577382484 c 0
 442.532996801 862.742128804 442.532996801 862.742128804 408.057835045 817.590787924 c 0
 341 729.766655574 341 729.766655574 341 555 c 2
 341 520 l 2
 341 350.300952425 341 350.300952425 407.983568544 263.00623729 c 0
 442.443576267 218.097065935 442.443576267 218.097065935 492.041158083 198.355762434 c 0
 533.13298697 182 533.13298697 182 586 182 c 0
EndSplineSet
EndChar

StartChar: sterling
Encoding: 163 163 101
Width: 1190
GlyphClass: 1
Flags: W
LayerCount: 2
Fore
SplineSet
814 830 m 1
 814 571 l 1
 501.888829256 571 l 1
 508 402.942804542 l 1
 508 402 l 2
 508 290.663971517 508 290.663971517 477.707759062 208 c 1
 1179.32589517 208 l 1
 1177.67621364 -51 l 1
 44 -51 l 1
 44 208 l 1
 163.316346794 208 l 1
 176.674449007 216.494123117 176.674449007 216.494123117 189.333794652 249.661608708 c 0
 211.127166702 306.760243477 211.127166702 306.760243477 213 393.550334108 c 1
 213 400.061448308 l 1
 206.812179124 571 l 1
 40 571 l 1
 40 830 l 1
 198.203544219 830 l 1
 191 1038.10238854 l 1
 191 1039 l 2
 191 1259.54525974 191 1259.54525974 328.660528074 1393.27262987 c 0
 466.321056148 1527 466.321056148 1527 687 1527 c 0
 897.425554568 1527 897.425554568 1527 1023.71277728 1406.40139092 c 0
 1150 1285.80278184 1150 1285.80278184 1150 1087 c 2
 1150 1036 l 1
 857 1036 l 1
 857 1087 l 2
 857 1172.53109992 857 1172.53109992 808.622781007 1219.76554996 c 0
 760.245562013 1267 760.245562013 1267 670 1267 c 0
 588.678561177 1267 588.678561177 1267 538.984809101 1208.13201677 c 0
 486.211038664 1145.61539641 486.211038664 1145.61539641 486.000866356 1039.8725834 c 1
 493.265686551 830 l 1
 814 830 l 1
EndSplineSet
Substitution2: "Podtablica 'c2sc' Wersaliki na kapitaliki w tablicy 0" sterling.c2sc
Position2: "Podtablica 'cpsp' +AVoA-wiat+AUIA-o wersalikowe w tablicy 0" dx=36 dy=0 dh=72 dv=0
EndChar

StartChar: currency
Encoding: 164 164 102
Width: 1460
GlyphClass: 1
Flags: W
LayerCount: 2
Fore
SplineSet
179.485321938 257.188451279 m 1
 89 413.317390724 89 413.317390724 89 610.431935203 c 0
 89 807.546479682 89 807.546479682 187.172149748 970.493391298 c 1
 34.1527283435 1127.67660648 l 1
 234.54347616 1337.31615804 l 1
 387.984929042 1180.74324694 l 1
 545.678889069 1285 545.678889069 1285 735.524603455 1285 c 0
 925.370317841 1285 925.370317841 1285 1084.05590531 1179.77656675 c 1
 1239.31531882 1338.16200872 l 1
 1442.10687033 1127.68895905 l 1
 1284.68186689 967.136306542 l 1
 1381 804.608801746 1381 804.608801746 1381 608 c 0
 1381 418.728781828 1381 418.728781828 1292.1553064 260.759381961 c 1
 1442.45494602 109.408695906 l 1
 1239.14670526 -100.060400633 l 1
 1098.25135634 43.9429339272 l 1
 937.84199187 -71 937.84199187 -71 735.930932561 -71 c 0
 534.019873252 -71 534.019873252 -71 373.840994114 42.2623507279 c 1
 234.581287667 -99.0758588 l 1
 33.8101558451 109.417239631 l 1
 179.485321938 257.188451279 l 1
735 202 m 0
 833.325763943 202 833.325763943 202 919.374537491 255.999995645 c 0
 1005.42331104 309.99999129 1005.42331104 309.99999129 1055.71165552 403.901236293 c 0
 1106 497.802481296 1106 497.802481296 1106 607.5 c 0
 1106 717.197518704 1106 717.197518704 1055.77408247 810.982196574 c 0
 1005.54816494 904.766874444 1005.54816494 904.766874444 919.069132975 957.883437222 c 0
 832.590101014 1011 832.590101014 1011 734.480394506 1011 c 0
 636.370687998 1011 636.370687998 1011 550.339278567 958.327708511 c 0
 464.307869136 905.655417023 464.307869136 905.655417023 413.153934568 811.354250689 c 0
 362 717.053084355 362 717.053084355 362 607.5 c 0
 362 497.946915645 362 497.946915645 413.202286181 403.556614164 c 0
 464.404572361 309.166312683 464.404572361 309.166312683 550.488987467 255.583156341 c 0
 636.573402573 202 636.573402573 202 735 202 c 0
EndSplineSet
EndChar

StartChar: yen
Encoding: 165 165 103
Width: 1075
GlyphClass: 1
Flags: W
LayerCount: 2
Fore
SplineSet
-68.2435066095 1507 m 1
 263.548884001 1507 l 1
 539 914.064643158 l 1
 814.451115999 1507 l 1
 1143.24350661 1507 l 1
 776.24350661 787 l 1
 1005 787 l 1
 1005 560 l 1
 681 560 l 1
 681 497 l 1
 1005 497 l 1
 1005 271 l 1
 681 271 l 1
 681 -51 l 1
 386 -51 l 1
 386 271 l 1
 68 271 l 1
 68 497 l 1
 386 497 l 1
 386 560 l 1
 68 560 l 1
 68 787 l 1
 298.75649339 787 l 1
 -68.2435066095 1507 l 1
EndSplineSet
Substitution2: "Podtablica 'c2sc' Wersaliki na kapitaliki w tablicy 0" yen.c2sc
Position2: "Podtablica 'cpsp' +AVoA-wiat+AUIA-o wersalikowe w tablicy 0" dx=36 dy=0 dh=72 dv=0
EndChar

StartChar: brokenbar
Encoding: 166 166 104
Width: 491
GlyphClass: 1
Flags: W
LayerCount: 2
Fore
SplineSet
96 -321 m 1
 96 572 l 1
 384 572 l 1
 384 -321 l 1
 96 -321 l 1
384 647 m 1
 96 647 l 1
 96 1507 l 1
 384 1507 l 1
 384 647 l 1
EndSplineSet
EndChar

StartChar: section
Encoding: 167 167 105
Width: 1256
GlyphClass: 1
Flags: W
LayerCount: 2
Fore
SplineSet
1196 431 m 0
 1196 308.341968758 1196 308.341968758 1127.6810786 221.584284695 c 0
 1095.14552567 180.267630928 1095.14552567 180.267630928 1047.57008129 148.110598155 c 1
 1084.85586177 109.612643869 1084.85586177 109.612643869 1109.10442678 63.8097988482 c 0
 1151 -15.3262838914 1151 -15.3262838914 1151 -128 c 0
 1151 -212.962668169 1151 -212.962668169 1121.36459272 -283.517733953 c 0
 1084.00788599 -372.455431897 1084.00788599 -372.455431897 1000.95645145 -436.021722185 c 0
 857.266239227 -546 857.266239227 -546 612 -546 c 0
 492.991407824 -546 492.991407824 -546 384.042231436 -515.646000608 c 0
 275.093055049 -485.292001217 275.093055049 -485.292001217 196.863301476 -421.590630451 c 0
 39 -293.255716301 39 -293.255716301 39 -64 c 2
 39 -13.5453831247 l 1
 327 -10.4486089311 l 1
 327 -62 l 2
 327 -168.2256198 327 -168.2256198 398.746884159 -228.413283733 c 0
 474.545618782 -292 474.545618782 -292 612 -292 c 0
 731.841412218 -292 731.841412218 -292 801.666803243 -242.785718374 c 0
 836.590899495 -218.1705421 836.590899495 -218.1705421 851.332618655 -186.466965353 c 0
 863 -161.375066918 863 -161.375066918 863 -131.209184875 c 0
 863 -101.043302831 863 -101.043302831 853.159896974 -78.3486990206 c 0
 841.08811392 -50.5070866965 841.08811392 -50.5070866965 813.516888454 -30.1199129362 c 0
 785.945662987 -9.73273917579 785.945662987 -9.73273917579 723.975584012 16.8295826689 c 0
 662.005505036 43.3919045137 662.005505036 43.3919045137 549.223833583 76.8794543986 c 0
 361.22354315 126.522928895 361.22354315 126.522928895 259.528996943 185.315090402 c 0
 152.055841983 247.448008113 152.055841983 247.448008113 98.5279209914 336.661209765 c 0
 45 425.874411418 45 425.874411418 45 548.765545409 c 0
 45 731.593768803 45 731.593768803 191.676466041 833.691481068 c 1
 155.302642612 872.394553755 155.302642612 872.394553755 131.259180361 918.449636375 c 0
 90 997.4813058 90 997.4813058 90 1110 c 0
 90 1194.38906692 90 1194.38906692 120.564446305 1264.79031964 c 0
 158.919588487 1353.13643366 158.919588487 1353.13643366 243.9674191 1416.84267382 c 0
 391.027449555 1527 391.027449555 1527 630 1527 c 0
 881.053380113 1527 881.053380113 1527 1025.43184257 1401.50179802 c 0
 1173 1273.23101502 1173 1273.23101502 1173 1045 c 2
 1173 994 l 1
 886 994 l 1
 886 1045 l 2
 886 1147.67627086 886 1147.67627086 817.540688722 1210.83813543 c 0
 749.081377443 1274 749.081377443 1274 630 1274 c 0
 504.334936937 1274 504.334936937 1274 437.096093296 1225.97225454 c 0
 403.698487346 1202.11682172 403.698487346 1202.11682172 389.483206736 1170.3311011 c 0
 378 1144.65436554 378 1144.65436554 378 1112 c 0
 378 1059.06834958 378 1059.06834958 397.560661977 1031.12454675 c 0
 417.121323954 1003.18074393 417.121323954 1003.18074393 476.574822313 974.55498546 c 0
 536.028320671 945.929226991 536.028320671 945.929226991 678.964094694 906.086502525 c 0
 821.899868716 866.243778059 821.899868716 866.243778059 911.546464308 828.051145617 c 0
 1001.1930599 789.858513176 1001.1930599 789.858513176 1065.03175222 735.05892773 c 0
 1128.87044455 680.259342285 1128.87044455 680.259342285 1162.43522227 605.606646996 c 0
 1196 530.953951707 1196 530.953951707 1196 431 c 0
908 428 m 0
 908 456.759978802 908 456.759978802 898.269114446 479.792074825 c 0
 886.245608231 508.250589534 886.245608231 508.250589534 859.244795356 529.423888839 c 0
 796.228638166 578.839436564 796.228638166 578.839436564 588.020083371 641.935820437 c 0
 505.314497344 664.019464829 505.314497344 664.019464829 434.79784841 688.659031037 c 1
 383.842940049 673.61369577 383.842940049 673.61369577 360.470418971 642.138701959 c 0
 333 605.145204412 333 605.145204412 333 551.870224426 c 0
 333 498.595244441 333 498.595244441 351.861947644 470.651618301 c 0
 370.723895289 442.707992161 370.723895289 442.707992161 425.121311712 415.713785515 c 0
 487.53291654 384.742613194 487.53291654 384.742613194 618.295765186 346.987142811 c 0
 749.058613831 309.231672427 749.058613831 309.231672427 799.007666312 291.602943244 c 1
 850.080017852 307.781418953 850.080017852 307.781418953 879.040008926 342.602360345 c 0
 908 377.423301736 908 377.423301736 908 428 c 0
EndSplineSet
EndChar

StartChar: dieresis
Encoding: 168 168 106
Width: 856
GlyphClass: 1
Flags: W
LayerCount: 2
Fore
SplineSet
50 1370.8794717 m 0
 50 1435.58285489 50 1435.58285489 91.6634670565 1481.79142745 c 0
 133.326934113 1528 133.326934113 1528 209.863126704 1528 c 0
 286.399319295 1528 286.399319295 1528 328.699659648 1481.92284354 c 0
 371 1435.84568709 371 1435.84568709 371 1370.87884123 c 0
 371 1305.91199537 371 1305.91199537 328.574402162 1260.45599768 c 0
 286.148804323 1215 286.148804323 1215 209.863442728 1215 c 0
 133.578081133 1215 133.578081133 1215 91.7890405665 1260.58804425 c 0
 50 1306.17608851 50 1306.17608851 50 1370.8794717 c 0
520.339992022 1478.8210699 m 0
 563.0793655 1527 563.0793655 1527 639.862847417 1527 c 0
 716.646329335 1527 716.646329335 1527 758.823164667 1480.30421802 c 0
 801 1433.60843605 801 1433.60843605 801 1368.76021571 c 0
 801 1303.91199537 801 1303.91199537 758.574402162 1258.45599768 c 0
 716.148804323 1213 716.148804323 1213 639.863442728 1213 c 0
 563.578081133 1213 563.578081133 1213 521.789040566 1258.58804425 c 0
 480 1304.17608851 480 1304.17608851 480 1368.76149279 c 0
 480 1433.34689707 480 1433.34689707 520.339992022 1478.8210699 c 0
EndSplineSet
EndChar

StartChar: copyright
Encoding: 169 169 107
Width: 1609
GlyphClass: 1
Flags: W
LayerCount: 2
Fore
SplineSet
1170 597 m 2
 1170 421.807373996 1170 421.807373996 1068.02274627 326.903686998 c 0
 966.045492539 232 966.045492539 232 788 232 c 0
 608.226955408 232 608.226955408 232 498.504479218 354.494404635 c 0
 391 474.512632757 391 474.512632757 391 676 c 2
 391 786 l 2
 391 981.640439031 391 981.640439031 499.684379841 1101.70538221 c 0
 610.387090735 1224 610.387090735 1224 789.394964362 1224 c 0
 968.402837989 1224 968.402837989 1224 1069.70141899 1127.4129809 c 0
 1171 1030.8259618 1171 1030.8259618 1171 860 c 2
 1171 809 l 1
 923 809 l 1
 923 860 l 2
 923 936.209988584 923 936.209988584 892.515598716 963.485505523 c 0
 859.528810771 993 859.528810771 993 788 993 c 0
 756.11939939 993 756.11939939 993 731.351390559 983.035028517 c 0
 701.706235739 971.107823371 701.706235739 971.107823371 680.183697439 943.60680221 c 0
 637 888.42763326 637 888.42763326 637 783 c 2
 637 670 l 2
 637 567.57236674 637 567.57236674 680.183697439 512.39319779 c 0
 701.706235739 484.892176629 701.706235739 484.892176629 731.351390559 472.964971483 c 0
 756.11939939 463 756.11939939 463 788 463 c 0
 860.391563951 463 860.391563951 463 892.336276014 491.853288315 c 0
 922 518.646329335 922 518.646329335 922 597 c 2
 922 648 l 1
 1170 648 l 1
 1170 597 l 2
529.114610549 1229.69348934 m 0
 403.131696465 1154.37761679 403.131696465 1154.37761679 330.065848232 1020.19379487 c 0
 257 886.009972963 257 886.009972963 257 728.016187289 c 0
 257 570.022401616 257 570.022401616 330.579850471 435.279300441 c 0
 404.159700942 300.536199267 404.159700942 300.536199267 529.679143105 224.768099633 c 0
 655.198585269 149 655.198585269 149 801 149 c 0
 946.757276567 149 946.757276567 149 1071.78815996 224.748637387 c 0
 1196.81904336 300.497274774 1196.81904336 300.497274774 1270.40952168 435.259838195 c 0
 1344 570.022401616 1344 570.022401616 1344 728.012988858 c 0
 1344 886.0035761 1344 886.0035761 1271.39133753 1019.27264012 c 0
 1198.78267506 1152.54170415 1198.78267506 1152.54170415 1073.25563507 1228.77085207 c 0
 947.728595068 1305 947.728595068 1305 801.40522991 1305 c 0
 655.081864751 1305 655.081864751 1305 529.114610549 1229.69348934 c 0
1184.28193227 1420.20604647 m 0
 1361.25587952 1313.48539343 1361.25587952 1313.48539343 1461.12793976 1128.69537823 c 0
 1561 943.905363029 1561 943.905363029 1561 731.680692244 c 0
 1561 519.456021459 1561 519.456021459 1464.91753916 335.831762963 c 0
 1368.83507832 152.207504467 1368.83507832 152.207504467 1191.29277215 40.1037522335 c 0
 1013.75046598 -72 1013.75046598 -72 801.559570225 -72 c 0
 589.368674469 -72 589.368674469 -72 411.84742931 39.0178179696 c 0
 234.326184151 150.035635939 234.326184151 150.035635939 137.163092075 333.684557225 c 0
 40 517.33347851 40 517.33347851 40 730.619420769 c 0
 40 943.905363029 40 943.905363029 139.880813982 1128.711575 c 0
 239.761627964 1313.51778696 239.761627964 1313.51778696 417.276514548 1420.24123841 c 0
 594.850133067 1527 594.850133067 1527 801 1527 c 0
 1007.18643144 1527 1007.18643144 1527 1184.28193227 1420.20604647 c 0
EndSplineSet
EndChar

StartChar: ordfeminine
Encoding: 170 170 108
Width: 1119
GlyphClass: 1
Flags: W
LayerCount: 2
Fore
SplineSet
592.430238072 1149 m 2,0,-1
 671.334866262 1149 l 1,1,2
 671.334866262 1098.5 671.334866262 1098.5 671.334866262 1150 c 2,3,4
 671.334866262 1193.28710938 671.334866262 1193.28710938 650.62861986 1213.64355469 c 128,-1,5
 629.921021611 1234 629.921021611 1234 570.28157051 1234 c 0,6,7
 496.578851059 1234 496.578851059 1234 459.855916835 1215.8671875 c 0,8,9
 446.34825776 1209.19726562 446.34825776 1209.19726562 441.177441511 1200.61328125 c 128,-1,10
 436.005273415 1192.03027344 436.005273415 1192.03027344 436.005273415 1180 c 2,11,12
 436.005273415 1109.92871094 436.005273415 1109.92871094 436.005273415 1141.85742188 c 1,13,14
 506.541966289 1149 506.541966289 1149 592.430238072 1149 c 2,0,-1
725.192466095 652.72265625 m 1,15,16
 717.365269734 664.79296875 717.365269734 664.79296875 709.538073373 681.842773438 c 1,17,18
 606.315062567 640 606.315062567 640 467.843983035 640 c 0,19,20
 307.591796875 640 307.591796875 640 227.295898438 708.544921875 c 128,-1,21
 147 777.08984375 147 777.08984375 147 889.091796875 c 0,22,23
 147 942.522460938 147 942.522460938 167.452148438 986.139648438 c 0,24,25
 193.649414062 1042.01269531 193.649414062 1042.01269531 251.786132812 1079.44335938 c 0,26,27
 297.810546875 1112.51464844 297.810546875 1112.51464844 362.450195312 1129.64257812 c 1,28,29
 261.724609375 1086.15039062 261.724609375 1086.15039062 161 1144.65722656 c 1,30,31
 161 1117.32910156 161 1117.32910156 161 1192 c 2,32,33
 161 1248.60449219 161 1248.60449219 182.34765625 1296.70019531 c 0,34,35
 208.938476562 1356.60644531 208.938476562 1356.60644531 267.291015625 1400.70996094 c 0,36,37
 366.905273438 1476 366.905273438 1476 569.532647058 1476 c 0,38,39
 776.012695312 1476 776.012695312 1476 868.506835938 1390.11328125 c 128,-1,40
 961 1304.2265625 961 1304.2265625 961 1148 c 2,41,42
 961 971.16796875 961 971.16796875 961 860.830078125 c 2,43,44
 961 779.965820312 961 779.965820312 984.571289062 713.231445312 c 2,45,46
 995.2578125 679.055664062 995.2578125 679.055664062 1005.94335938 652.72265625 c 1,47,-1
 725.192466095 652.72265625 l 1,15,16
423.823776625 891.090820312 m 0,48,49
 437.766730558 879 437.766730558 879 521.831360218 879 c 0,50,51
 566.042177109 879 566.042177109 879 613.109447526 887.088867188 c 0,52,53
 646.604170194 892.844726562 646.604170194 892.844726562 671.334866262 899.733398438 c 1,54,55
 671.334866262 899.080078125 671.334866262 899.080078125 671.334866262 935 c 1,56,-1
 587.340532666 935 l 2,57,58
 494.717357209 934.549804688 494.717357209 934.549804688 451.118927183 922.881835938 c 0,59,60
 432.241730294 917.830078125 432.241730294 917.830078125 425.817751519 912.630859375 c 128,-1,61
 419.393772743 907.432617188 419.393772743 907.432617188 419.393772743 901.182617188 c 128,-1,62
 419.393772743 894.932617188 419.393772743 894.932617188 423.823776625 891.090820312 c 0,48,49
EndSplineSet
EndChar

StartChar: guillemotleft
Encoding: 171 171 109
Width: 961
GlyphClass: 1
Flags: W
LayerCount: 2
Fore
SplineSet
961.964021414 100 m 1
 701.717242329 100 l 1
 381 521.824711945 l 1
 381 539 l 1
 381 558 l 1
 381 575.140171785 l 1
 701.677761757 998 l 1
 961.707691618 998 l 1
 670.775232986 548.06956979 l 1
 961.964021414 100 l 1
631.964021414 100 m 1
 371.717242329 100 l 1
 51 521.824711945 l 1
 51 539 l 1
 51 558 l 1
 51 575.140171785 l 1
 371.677761757 998 l 1
 631.707691618 998 l 1
 340.775232986 548.06956979 l 1
 631.964021414 100 l 1
EndSplineSet
EndChar

StartChar: logicalnot
Encoding: 172 172 110
Width: 1134
GlyphClass: 1
Flags: W
LayerCount: 2
Fore
SplineSet
1009 324 m 1
 721 324 l 1
 721 588 l 1
 76 588 l 1
 76 851 l 1
 1009 851 l 1
 1009 324 l 1
EndSplineSet
EndChar

StartChar: registered
Encoding: 174 174 111
Width: 1610
GlyphClass: 1
Flags: W
LayerCount: 2
Fore
SplineSet
704 987 m 1
 704 833 l 1
 808.248496899 833 l 2
 863.576580391 834.674556297 863.576580391 834.674556297 894.442835085 857.824247317 c 0
 908.091441908 868.060702435 908.091441908 868.060702435 913.045720954 879.376726164 c 0
 918 890.692749894 918 890.692749894 918 904 c 0
 918 952.149823474 918 952.149823474 898.620768189 967.305376557 c 0
 889.696767575 974.284402678 889.696767575 974.284402678 870.601665476 979.178525485 c 0
 840.08509278 987 840.08509278 987 791 987 c 2
 704 987 l 1
1075.4606008 722.033038993 m 1
 1155.13788851 649.933935039 1155.13788851 649.933935039 1155.99890466 517.337447156 c 2
 1155.99890466 456 l 2
 1155.99890466 412.296021878 1155.99890466 412.296021878 1159.87777532 387.931028022 c 0
 1163.75664598 363.566034166 1163.75664598 363.566034166 1168.5794486 352.785651847 c 2
 1173 342.904419307 l 1
 1173 304.816606911 l 1
 1230.3809963 361.902147284 1230.3809963 361.902147284 1270.83599969 436.62794973 c 0
 1343 569.924510802 1343 569.924510802 1343 728.480456788 c 0
 1343 887.036402773 1343 887.036402773 1270.88763363 1019.77827462 c 0
 1198.77526726 1152.52014647 1198.77526726 1152.52014647 1072.77395117 1228.76007324 c 0
 946.772635085 1305 946.772635085 1305 800.427249918 1305 c 0
 654.081864751 1305 654.081864751 1305 528.114610549 1229.69348934 c 0
 517.042182883 1223.07410323 517.042182883 1223.07410323 506.378505588 1216 c 1
 788 1216 l 2
 958.440244267 1216 958.440244267 1216 1056.70533916 1139.8300152 c 0
 1115.02238192 1094.62568028 1115.02238192 1094.62568028 1140.9846072 1026.49404175 c 0
 1161 973.968439931 1161 973.968439931 1161 909 c 0
 1161 796.119792756 1161 796.119792756 1075.4606008 722.033038993 c 1
1183.28193227 1420.20604647 m 0
 1360.25587952 1313.48539343 1360.25587952 1313.48539343 1460.12793976 1128.69537823 c 0
 1560 943.905363029 1560 943.905363029 1560 731.680692244 c 0
 1560 519.456021459 1560 519.456021459 1463.91753916 335.831762963 c 0
 1367.83507832 152.207504467 1367.83507832 152.207504467 1190.29277215 40.1037522335 c 0
 1012.75046598 -72 1012.75046598 -72 800.559570225 -72 c 0
 588.368674469 -72 588.368674469 -72 410.84742931 39.0178179696 c 0
 233.326184151 150.035635939 233.326184151 150.035635939 136.163092075 333.684557225 c 0
 39 517.33347851 39 517.33347851 39 730.619420769 c 0
 39 943.905363029 39 943.905363029 138.880813982 1128.711575 c 0
 238.761627964 1313.51778696 238.761627964 1313.51778696 416.276514548 1420.24123841 c 0
 593.850133067 1527 593.850133067 1527 800 1527 c 0
 1006.18643144 1527 1006.18643144 1527 1183.28193227 1420.20604647 c 0
1128.23567355 265 m 1
 942.103209646 265 l 1
 929.448077132 297.541769322 l 2
 912 342.408253377 912 342.408253377 912 444.5 c 0
 912 495.033901209 912 495.033901209 911.102181851 522.267718404 c 2
 909.776871773 545.09130874 l 2
 907.062446992 560.912947261 907.062446992 560.912947261 901.156999112 571.613416925 c 0
 885.052460678 600.794289984 885.052460678 600.794289984 828.050280319 603 c 2
 704 603 l 1
 704 265 l 1
 470.836184679 265 l 1
 498.229339571 243.148708312 498.229339571 243.148708312 528.679143105 224.768099633 c 0
 654.198585269 149 654.198585269 149 800.413211651 149 c 0
 946.627838034 149 946.627838034 149 1072.64991871 226.165694328 c 0
 1101.89279535 244.071658645 1101.89279535 244.071658645 1128.23567355 265 c 1
461 273.040623504 m 1
 461 1182.31161734 l 1
 381.43880471 1116.37557658 381.43880471 1116.37557658 329.065848232 1020.19379487 c 0
 256 886.009972963 256 886.009972963 256 728.016187289 c 0
 256 570.022401616 256 570.022401616 329.579850471 435.279300441 c 0
 382.072482607 339.152167842 382.072482607 339.152167842 461 273.040623504 c 1
EndSplineSet
EndChar

StartChar: macron
Encoding: 175 175 112
Width: 938
GlyphClass: 1
Flags: W
LayerCount: 2
Fore
SplineSet
865 1251 m 1
 91 1251 l 1
 91 1496 l 1
 865 1496 l 1
 865 1251 l 1
EndSplineSet
EndChar

StartChar: degree
Encoding: 176 176 113
Width: 765
GlyphClass: 1
Flags: W
LayerCount: 2
Fore
SplineSet
168.944625625 998.944625625 m 0
 79 1088.88925125 79 1088.88925125 79 1214.65874383 c 0
 79 1340.4282364 79 1340.4282364 167.620584261 1433.21220382 c 0
 257.199953691 1527 257.199953691 1527 385 1527 c 0
 510.906916489 1527 510.906916489 1527 598.953458245 1434.16180971 c 0
 687 1341.32361943 687 1341.32361943 687 1215.25705918 c 0
 687 1089.19049894 687 1089.19049894 598.706655521 999.095249468 c 0
 510.413311043 909 510.413311043 909 384.651281146 909 c 0
 258.88925125 909 258.88925125 909 168.944625625 998.944625625 c 0
329.486462492 1274.40021149 m 0
 306 1249.66113767 306 1249.66113767 306 1216.48638683 c 0
 306 1183.31163599 306 1183.31163599 328.455220941 1161.155818 c 0
 350.910441882 1139 350.910441882 1139 384.707638599 1139 c 0
 418.504835316 1139 418.504835316 1139 440.252417658 1159.8659236 c 0
 462 1180.7318472 462 1180.7318472 462 1216.91070266 c 0
 462 1253.08955812 462 1253.08955812 439.844182005 1275.54477906 c 0
 417.688364009 1298 417.688364009 1298 385 1298 c 0
 369.755154894 1298 369.755154894 1298 355.951286337 1292.86820887 c 0
 342.14741778 1287.73641773 342.14741778 1287.73641773 329.486462492 1274.40021149 c 0
EndSplineSet
EndChar

StartChar: plusminus
Encoding: 177 177 114
Width: 1094
GlyphClass: 1
Flags: W
LayerCount: 2
Fore
SplineSet
431 905 m 1
 431 1318 l 1
 700 1318 l 1
 700 905 l 1
 1064 905 l 1
 1064 652 l 1
 700 652 l 1
 700 238 l 1
 431 238 l 1
 431 652 l 1
 46 652 l 1
 46 905 l 1
 431 905 l 1
1021 -51 m 1
 84 -51 l 1
 84 203 l 1
 1021 203 l 1
 1021 -51 l 1
EndSplineSet
EndChar

StartChar: uni00B2
Encoding: 178 178 115
Width: 751
GlyphClass: 1
Flags: W
LayerCount: 2
Fore
SplineSet
734 616 m 1
 33 616 l 1
 32.9999952462 797.041132507 l 1
 349.1691998 1094.23999755 l 2
 404.181646109 1145.71953446 404.181646109 1145.71953446 427.301293366 1185.64865002 c 0
 442 1211.03426033 442 1211.03426033 442 1228 c 0
 442 1255.16828848 442 1255.16828848 425.301397233 1271.08414424 c 0
 408.602794466 1287 408.602794466 1287 369 1287 c 0
 316.134585538 1287 316.134585538 1287 295.067292769 1264.44909506 c 0
 274 1241.89819013 274 1241.89819013 274 1205 c 2
 274 1154 l 1
 15 1154 l 1
 15 1205 l 2
 15 1341.93557505 15 1341.93557505 115.697630075 1431.17658853 c 0
 213.66729031 1518 213.66729031 1518 364.485496103 1518 c 0
 515.303701897 1518 515.303701897 1518 606.41538904 1442.86243982 c 0
 702 1364.03616975 702 1364.03616975 702 1230 c 0
 702 1104.88925125 702 1104.88925125 579.49828054 982.38753179 c 1
 493.696611936 901.693105365 l 1
 426.096704735 846 l 1
 734 846 l 1
 734 616 l 1
EndSplineSet
EndChar

StartChar: uni00B3
Encoding: 179 179 116
Width: 751
GlyphClass: 1
Flags: W
LayerCount: 2
Fore
SplineSet
214 1177 m 1
 349 1177 l 2
 404.313754534 1177 404.313754534 1177 426.061943185 1195.42554872 c 0
 436.297310163 1204.09717907 436.297310163 1204.09717907 440.148655081 1213.77903227 c 0
 444 1223.46088547 444 1223.46088547 444 1234.65668543 c 0
 444 1245.85248539 444 1245.85248539 440.698481875 1254.78754635 c 0
 437.396963749 1263.72260731 437.396963749 1263.72260731 428.975520602 1271.47568195 c 0
 412.112899274 1287 412.112899274 1287 362 1287 c 0
 320.690536037 1287 320.690536037 1287 296.127379731 1270.29705371 c 0
 288.104960947 1264.84180894 288.104960947 1264.84180894 284.498466414 1259.23491211 c 0
 281 1253.79596299 281 1253.79596299 281 1246 c 2
 281 1195 l 1
 22 1195 l 1
 22 1246 l 2
 22 1300.36192443 22 1300.36192443 42.4429771874 1346.51539439 c 0
 67.930347309 1404.05743246 67.930347309 1404.05743246 123.822499811 1446.23371932 c 0
 218.927408357 1518 218.927408357 1518 360 1518 c 0
 514.448999089 1518 514.448999089 1518 606.217817239 1446.82033977 c 0
 660.382243634 1404.80818853 660.382243634 1404.80818853 684.81151389 1345.14439386 c 0
 704 1298.28020663 704 1298.28020663 704 1242 c 0
 704 1169.66506333 704 1169.66506333 658.446172002 1110.44508694 c 0
 644.255131361 1091.9967341 644.255131361 1091.9967341 626.137406906 1076.25234879 c 1
 642.965356009 1064.14433534 642.965356009 1064.14433534 656.823384282 1049.6910629 c 0
 717 986.929679795 717 986.929679795 717 887 c 0
 717 829.238653804 717 829.238653804 695.986014011 781.030097712 c 0
 669.506322678 720.282570536 669.506322678 720.282570536 611.167266559 677.386205743 c 0
 512.722026749 605 512.722026749 605 361.784803469 605 c 0
 210.847580189 605 210.847580189 605 114.207255997 678.353499085 c 0
 57.1796791279 721.639491167 57.1796791279 721.639491167 31.3819081113 782.792641137 c 0
 11 831.107585967 11 831.107585967 11 889 c 2
 11 940 l 1
 271 940 l 1
 271 889 l 2
 271 878.095121073 271 878.095121073 275.825528738 870.032212297 c 0
 280.651057475 861.96930352 280.651057475 861.96930352 290.304591764 854.637505326 c 0
 316.160640443 835 316.160640443 835 366.9520869 835 c 0
 417.743533356 835 417.743533356 835 440.1497232 853.416046447 c 0
 450.071510031 861.570939733 450.071510031 861.570939733 454.035755016 871.753075823 c 0
 458 881.935211912 458 881.935211912 458 896.936734196 c 0
 458 911.93825648 458 911.93825648 452.854507694 923.372134095 c 0
 447.709015388 934.806011709 447.709015388 934.806011709 434.915891262 942.383477538 c 0
 408.149316921 958.237525417 408.149316921 958.237525417 352.655449614 959 c 2
 214 959 l 1
 214 1177 l 1
EndSplineSet
EndChar

StartChar: acute
Encoding: 180 180 117
Width: 642
GlyphClass: 1
Flags: W
LayerCount: 2
Fore
SplineSet
288.475743152 1587 m 1
 655.486253332 1587 l 1
 294.506661495 1191 l 1
 28.5165594787 1191 l 1
 288.475743152 1587 l 1
EndSplineSet
EndChar

StartChar: mu
Encoding: 181 181 118
Width: 1160
GlyphClass: 1
Flags: W
LayerCount: 2
Fore
SplineSet
788.016647101 -2.23394387588 m 1
 695.954457556 -71 695.954457556 -71 567 -71 c 0
 465.504925886 -71 465.504925886 -71 390 -38.7936786594 c 1
 390 -467 l 1
 103 -467 l 1
 103 1133 l 1
 390 1133 l 1
 390 449.161529714 l 2
 390.930359435 301.417777423 390.930359435 301.417777423 434.090809178 236.048552569 c 0
 453.821098323 206.165784544 453.821098323 206.165784544 485.5203077 193.582892272 c 0
 517.219517077 181 517.219517077 181 559 181 c 0
 635.628423077 181 635.628423077 181 686.466330011 205.866812081 c 0
 742.055379086 233.057593929 742.055379086 233.057593929 769 292.497481493 c 1
 769 1133 l 1
 1057 1133 l 1
 1057 -51 l 1
 791.833121059 -51 l 1
 788.156954138 -4.0267560199 l 1
 788.016647101 -2.23394387588 l 1
EndSplineSet
EndChar

StartChar: paragraph
Encoding: 182 182 119
Width: 1001
GlyphClass: 1
Flags: W
LayerCount: 2
Fore
SplineSet
994 -51 m 1
 572.827697551 -51 l 1
 574.828497673 542.237236075 l 1
 338.425382605 547.841429518 338.425382605 547.841429518 197.222633281 683.182932644 c 0
 49 825 49 825 49 1023.8723092 c 0
 49 1222.74461839 49 1222.74461839 197.25868923 1364.8723092 c 0
 345.51737846 1507 345.51737846 1507 596 1507 c 2
 994 1507 l 1
 994 -51 l 1
EndSplineSet
EndChar

StartChar: periodcentered
Encoding: 183 183 120
Width: 534
GlyphClass: 1
Flags: W
LayerCount: 2
Fore
SplineSet
137.40724054 842.896726994 m 0
 181.139843061 892 181.139843061 892 260.737903136 892 c 0
 340.335963211 892 340.335963211 892 384.167981606 844.453403776 c 0
 428 796.906807551 428 796.906807551 428 729.384442833 c 0
 428 661.862078115 428 661.862078115 384.048709454 614.931039057 c 0
 340.097418908 568 340.097418908 568 260.738463501 568 c 0
 181.379508094 568 181.379508094 568 138.689754047 615.183412368 c 0
 96 662.366824735 96 662.366824735 96 729.385605737 c 0
 96 796.404386739 96 796.404386739 137.40724054 842.896726994 c 0
EndSplineSet
EndChar

StartChar: cedilla
Encoding: 184 184 121
Width: 507
GlyphClass: 2
Flags: W
LayerCount: 2
Fore
SplineSet
477 -225 m 0
 477 -279.075162959 477 -279.075162959 456.730265202 -324.111979964 c 0
 431.251897753 -380.721727639 431.251897753 -380.721727639 375.373151989 -420.186091835 c 0
 282.185317419 -486 282.185317419 -486 123 -486 c 2
 75.2257755526 -486 l 1
 61.5528783564 -277 l 1
 116 -277 l 2
 180.920650033 -277 180.920650033 -277 212.389420137 -258.191079938 c 0
 222.066053602 -252.407344994 222.066053602 -252.407344994 226.533026801 -245.876322109 c 0
 231 -239.345299225 231 -239.345299225 231 -229.554309809 c 0
 231 -219.763320393 231 -219.763320393 228.895517175 -214.765173682 c 0
 226.791034349 -209.767026972 226.791034349 -209.767026972 220.86750822 -205.87971295 c 0
 214.94398209 -201.992398927 214.94398209 -201.992398927 190.3240968 -195.70362388 c 0
 165.704211509 -189.414848833 165.704211509 -189.414848833 115.285381304 -184.7845481 c 2
 56.7133310512 -179.40548226 l 1
 111.73553577 51 l 1
 349.118889869 51 l 1
 333.849949967 -15.1654062412 l 1
 381.2550441 -31.8579157803 381.2550441 -31.8579157803 413.690112196 -62.3426399124 c 0
 477 -121.845658646 477 -121.845658646 477 -225 c 0
EndSplineSet
EndChar

StartChar: uni00B9
Encoding: 185 185 122
Width: 751
GlyphClass: 1
Flags: W
LayerCount: 2
Fore
SplineSet
546 616 m 1
 287 616 l 1
 287 1201.78573741 l 1
 71 1144.78573741 l 1
 71 1375.9003904 l 1
 468.780866731 1507 l 1
 546 1507 l 1
 546 616 l 1
EndSplineSet
EndChar

StartChar: ordmasculine
Encoding: 186 186 123
Width: 1135
GlyphClass: 1
Flags: W
LayerCount: 2
Fore
SplineSet
122 1005.79785156 m 2,0,1
 122 996.760742188 122 996.760742188 122 1072 c 2,2,3
 122 1250.56640625 122 1250.56640625 230.670898438 1363.28320312 c 128,-1,4
 339.340820312 1476 339.340820312 1476 566.396219843 1476 c 128,-1,5
 793.50390625 1476 793.50390625 1476 902.251953125 1364.359375 c 128,-1,6
 1011 1252.71972656 1011 1252.71972656 1011 1066 c 2,7,8
 1011 990.916015625 1011 990.916015625 1011 999.895507812 c 2,9,10
 1011 839.490234375 1011 839.490234375 902.831054688 739.245117188 c 128,-1,11
 794.662109375 639 794.662109375 639 568.678069635 639 c 0,12,13
 341.577148438 639 341.577148438 639 231.7890625 739.198242188 c 128,-1,14
 122 839.396484375 122 839.396484375 122 1005.79785156 c 2,0,1
393.641667795 1077.44628906 m 1,15,16
 393.641667795 1009.93261719 393.641667795 1009.93261719 393.641667795 1009.54003906 c 2,17,18
 393.641667795 944.966796875 393.641667795 944.966796875 442.547081761 911.010742188 c 0,19,20
 467.140351742 893.934570312 467.140351742 893.934570312 498.899707282 886.967773438 c 128,-1,21
 530.659062823 880 530.659062823 880 568.08297582 880 c 128,-1,22
 605.505575145 880 605.505575145 880 636.386083528 886.895507812 c 128,-1,23
 667.267905585 893.791015625 667.267905585 893.791015625 691.153105884 910.774414062 c 0,24,25
 739.358332205 945.048828125 739.358332205 945.048828125 739.358332205 1010.37011719 c 2,26,27
 739.358332205 1007.35644531 739.358332205 1007.35644531 739.358332205 1072 c 2,28,29
 739.358332205 1152.25195312 739.358332205 1152.25195312 690.452918239 1194.97851562 c 0,30,31
 665.795278287 1216.52148438 665.795278287 1216.52148438 634.394555443 1225.26074219 c 128,-1,32
 602.993832599 1234 602.993832599 1234 566.334477217 1234 c 128,-1,33
 529.675121836 1234 529.675121836 1234 498.983782347 1225.59277344 c 128,-1,34
 468.293756531 1217.18457031 468.293756531 1217.18457031 443.998690293 1196.49121094 c 0,35,36
 395.9616141 1155.57324219 395.9616141 1155.57324219 393.641667795 1077.44628906 c 1,15,16
EndSplineSet
EndChar

StartChar: guillemotright
Encoding: 187 187 124
Width: 960
GlyphClass: 1
Flags: W
LayerCount: 2
Fore
SplineSet
939 560 m 1
 939 541 l 1
 939 523.859828215 l 1
 618.322238243 101 l 1
 357.164505556 101 l 1
 648.247307724 550.03471032 l 1
 357.292308382 1000 l 1
 618.322238243 1000 l 1
 939 577.140171785 l 1
 939 560 l 1
590 560 m 1
 590 541 l 1
 590 523.859828215 l 1
 269.322238243 101 l 1
 8.16450555622 101 l 1
 299.247307724 550.03471032 l 1
 8.29230838168 1000 l 1
 269.322238243 1000 l 1
 590 577.140171785 l 1
 590 560 l 1
EndSplineSet
EndChar

StartChar: onequarter
Encoding: 188 188 125
Width: 1500
GlyphClass: 1
Flags: W
LayerCount: 2
Fore
SplineSet
1110 118 m 1
 737.910466622 118 l 1
 728.014549522 286.230590706 l 1
 1131.04749798 840 l 1
 1369 840 l 1
 1369 350 l 1
 1476 350 l 1
 1476 118 l 1
 1369 118 l 1
 1369 -51 l 1
 1110 -51 l 1
 1110 118 l 1
1110 350 m 1
 1110 434.616075585 l 1
 1043.2148982 350 l 1
 1110 350 l 1
459.037864237 47.421392534 m 1
 268.916567287 168.075292521 l 1
 1033.96213576 1392.57860747 l 1
 1224.08343271 1271.92470748 l 1
 459.037864237 47.421392534 l 1
509 613 m 1
 250 613 l 1
 250 1198.78573741 l 1
 34 1141.78573741 l 1
 34 1372.9003904 l 1
 431.780866731 1504 l 1
 509 1504 l 1
 509 613 l 1
EndSplineSet
EndChar

StartChar: onehalf
Encoding: 189 189 126
Width: 1589
GlyphClass: 1
Flags: W
LayerCount: 2
Fore
SplineSet
415.037864237 47.421392534 m 1
 224.916567287 168.075292521 l 1
 502.896766775 613 l 1
 245 613 l 1
 245 1198.78573741 l 1
 29 1141.78573741 l 1
 29 1372.9003904 l 1
 426.780866731 1504 l 1
 504 1504 l 1
 504 614.765793825 l 1
 989.962135763 1392.57860747 l 1
 1180.08343271 1271.92470748 l 1
 415.037864237 47.421392534 l 1
1532 -51 m 1
 831 -51 l 1
 830.999995246 130.041132507 l 1
 1147.1691998 427.239997549 l 2
 1202.18164611 478.719534461 1202.18164611 478.719534461 1225.30129337 518.648650022 c 0
 1240 544.034260333 1240 544.034260333 1240 561 c 0
 1240 588.168288475 1240 588.168288475 1223.30139723 604.084144238 c 0
 1206.60279447 620 1206.60279447 620 1167 620 c 0
 1114.13458554 620 1114.13458554 620 1093.06729277 597.449095064 c 0
 1072 574.898190129 1072 574.898190129 1072 538 c 2
 1072 487 l 1
 813 487 l 1
 813 538 l 2
 813 674.935575055 813 674.935575055 913.697630075 764.176588534 c 0
 1011.66729031 851 1011.66729031 851 1162.4854961 851 c 0
 1313.3037019 851 1313.3037019 851 1404.41538904 775.862439823 c 0
 1500 697.036169746 1500 697.036169746 1500 563 c 0
 1500 437.88925125 1500 437.88925125 1377.49828054 315.38753179 c 1
 1291.69661194 234.693105365 l 1
 1224.09670473 179 l 1
 1532 179 l 1
 1532 -51 l 1
EndSplineSet
EndChar

StartChar: threequarters
Encoding: 190 190 127
Width: 1593
GlyphClass: 1
Flags: W
LayerCount: 2
Fore
SplineSet
263 1177 m 1
 398 1177 l 2
 453.313754534 1177 453.313754534 1177 475.061943185 1195.42554872 c 0
 485.297310163 1204.09717907 485.297310163 1204.09717907 489.148655081 1213.77903227 c 0
 493 1223.46088547 493 1223.46088547 493 1234.65668543 c 0
 493 1245.85248539 493 1245.85248539 489.698481875 1254.78754635 c 0
 486.396963749 1263.72260731 486.396963749 1263.72260731 477.975520602 1271.47568195 c 0
 461.112899274 1287 461.112899274 1287 411 1287 c 0
 369.690536037 1287 369.690536037 1287 345.127379731 1270.29705371 c 0
 337.104960947 1264.84180894 337.104960947 1264.84180894 333.498466414 1259.23491211 c 0
 330 1253.79596299 330 1253.79596299 330 1246 c 2
 330 1195 l 1
 71 1195 l 1
 71 1246 l 2
 71 1300.36192443 71 1300.36192443 91.4429771874 1346.51539439 c 0
 116.930347309 1404.05743246 116.930347309 1404.05743246 172.822499811 1446.23371932 c 0
 267.927408357 1518 267.927408357 1518 409 1518 c 0
 563.448999089 1518 563.448999089 1518 655.217817239 1446.82033977 c 0
 709.382243634 1404.80818853 709.382243634 1404.80818853 733.81151389 1345.14439386 c 0
 753 1298.28020663 753 1298.28020663 753 1242 c 0
 753 1169.66506333 753 1169.66506333 707.446172002 1110.44508694 c 0
 693.255131361 1091.9967341 693.255131361 1091.9967341 675.137406906 1076.25234879 c 1
 691.965356009 1064.14433534 691.965356009 1064.14433534 705.823384282 1049.6910629 c 0
 766 986.929679795 766 986.929679795 766 887 c 0
 766 829.238653804 766 829.238653804 744.986014011 781.030097712 c 0
 718.506322678 720.282570536 718.506322678 720.282570536 660.167266559 677.386205743 c 0
 561.722026749 605 561.722026749 605 410.784803469 605 c 0
 259.847580189 605 259.847580189 605 163.207255997 678.353499085 c 0
 106.179679128 721.639491167 106.179679128 721.639491167 80.3819081113 782.792641137 c 0
 60 831.107585967 60 831.107585967 60 889 c 2
 60 940 l 1
 320 940 l 1
 320 889 l 2
 320 878.095121073 320 878.095121073 324.825528738 870.032212297 c 0
 329.651057475 861.96930352 329.651057475 861.96930352 339.304591764 854.637505326 c 0
 365.160640443 835 365.160640443 835 415.9520869 835 c 0
 466.743533356 835 466.743533356 835 489.1497232 853.416046447 c 0
 499.071510031 861.570939733 499.071510031 861.570939733 503.035755016 871.753075823 c 0
 507 881.935211912 507 881.935211912 507 896.936734196 c 0
 507 911.93825648 507 911.93825648 501.854507694 923.372134095 c 0
 496.709015388 934.806011709 496.709015388 934.806011709 483.915891262 942.383477538 c 0
 457.149316921 958.237525417 457.149316921 958.237525417 401.655449614 959 c 2
 263 959 l 1
 263 1177 l 1
1202 118 m 1
 829.910466622 118 l 1
 820.014549522 286.230590706 l 1
 1223.04749798 840 l 1
 1461 840 l 1
 1461 350 l 1
 1568 350 l 1
 1568 118 l 1
 1461 118 l 1
 1461 -51 l 1
 1202 -51 l 1
 1202 118 l 1
1202 350 m 1
 1202 434.616075585 l 1
 1135.2148982 350 l 1
 1202 350 l 1
586.037864237 47.421392534 m 1
 395.916567287 168.075292521 l 1
 1160.96213576 1392.57860747 l 1
 1351.08343271 1271.92470748 l 1
 586.037864237 47.421392534 l 1
EndSplineSet
EndChar

StartChar: questiondown
Encoding: 191 191 128
Width: 969
GlyphClass: 1
Flags: W
LayerCount: 2
Fore
SplineSet
478 -173 m 0
 558.379091718 -173 558.379091718 -173 606.320033916 -129.661388253 c 0
 631.662305306 -106.751974917 631.662305306 -106.751974917 641.831152653 -79.0520347434 c 0
 652 -51.3520945703 652 -51.3520945703 652 -20 c 2
 652 31 l 1
 939.637549166 31 l 1
 938.995995091 -20.6451030665 l 2
 936.720255286 -203.842157322 936.720255286 -203.842157322 808.692033221 -319.921078661 c 0
 680.663811156 -436 680.663811156 -436 478 -436 c 0
 261.819024507 -436 261.819024507 -436 139.409512253 -321.026579613 c 0
 17 -206.053159225 17 -206.053159225 17 -5 c 0
 17 187.785904636 17 187.785904636 190.819279661 377.900741765 c 1
 299.056528872 490.110000122 l 1
 352 553.877363539 352 553.877363539 352 680 c 2
 352 731 l 1
 639.483444642 731 l 1
 638.997689114 679.509913968 l 2
 637.924049896 565.704156912 637.924049896 565.704156912 614.771986715 493.989229498 c 0
 591.619923534 422.274302084 591.619923534 422.274302084 539.962563286 358.778796779 c 0
 488.305203038 295.283291473 488.305203038 295.283291473 394.912095138 197.322042427 c 0
 315.452742463 113.976090979 315.452742463 113.976090979 305.841696374 32.6721110694 c 1
 304.002483181 -1.35333300058 l 1
 304.321423798 -88.0783932427 304.321423798 -88.0783932427 347.151451553 -130.539196621 c 0
 389.981479309 -173 389.981479309 -173 478 -173 c 0
606.660007978 887.178930102 m 0
 563.9206345 839 563.9206345 839 487.137152583 839 c 0
 410.353670665 839 410.353670665 839 368.176835333 885.695781975 c 0
 326 932.391563951 326 932.391563951 326 996.739784292 c 0
 326 1061.08800463 326 1061.08800463 368.425597838 1106.54400232 c 0
 410.851195677 1152 410.851195677 1152 487.136557272 1152 c 0
 563.421918867 1152 563.421918867 1152 605.210959434 1106.41195575 c 0
 647 1060.82391149 647 1060.82391149 647 996.738507209 c 0
 647 932.653102927 647 932.653102927 606.660007978 887.178930102 c 0
EndSplineSet
EndChar

StartChar: AE
Encoding: 198 198 129
Width: 2118
GlyphClass: 2
Flags: W
LayerCount: 2
Fore
SplineSet
2122.41503906 253 m 1,0,1
 2122.41503906 177.5 2122.41503906 177.5 2122.41503906 0 c 1,2,3
 1614.73384325 51 1614.73384325 51 1090.80453871 -0 c 1,4,-1
 1074.8128964 302 l 1,5,-1
 556.938760597 302 l 1,6,-1
 338.386315699 0 l 1,7,8
 158.88671875 51 158.88671875 51 -14 -0 c 1,9,10
 471.703098863 728 471.703098863 728 973.653265326 1456 c 1,11,-1
 2060.41503906 1456 l 1,12,13
 2060.41503906 1278 2060.41503906 1278 2060.41503906 1202 c 1,14,-1
 1338.23980529 1202 l 1,15,-1
 1354.94461654 884 l 1,16,-1
 1979.41503906 884 l 1,17,-1
 1979.41503906 631 l 1,18,-1
 1365.9003491 631 l 1,19,-1
 1384.84982056 253 l 1,20,-1
 2122.41503906 253 l 1,0,1
1062.74108048 578 m 1,21,-1
 1039.96340142 1083.18066406 l 1,22,-1
 727.691187154 578 l 1,23,-1
 1062.74108048 578 l 1,21,-1
EndSplineSet
Substitution2: "Podtablica 'c2sc' Wersaliki na kapitaliki w tablicy 0" AE.c2sc
Position2: "Podtablica 'cpsp' +AVoA-wiat+AUIA-o wersalikowe w tablicy 0" dx=36 dy=0 dh=72 dv=0
EndChar

StartChar: multiply
Encoding: 215 215 130
Width: 1092
GlyphClass: 1
Flags: W
LayerCount: 2
Fore
SplineSet
539 470.232721865 m 1
 207.72437638 132.952102047 l 1
 17.7930597395 329.267664624 l 1
 347.584491215 665.055303945 l 1
 19.8465640217 999.787638121 l 1
 209.726345021 1196.04993277 l 1
 539 860.771287119 l 1
 868.273654979 1196.04993277 l 1
 1058.15343598 999.787638121 l 1
 730.415508785 665.055303945 l 1
 1060.20694026 329.267664624 l 1
 870.27562362 132.952102047 l 1
 539 470.232721865 l 1
EndSplineSet
EndChar

StartChar: Oslash
Encoding: 216 216 131
Width: 1612
GlyphClass: 2
Flags: W
LayerCount: 2
Fore
SplineSet
1492.99902344 778.338867188 m 1,0,1
 1492.99902344 732.766601562 1492.99902344 732.766601562 1492.99902344 685.171875 c 2,2,3
 1492.99902344 474.189453125 1492.99902344 474.189453125 1415.61621094 313.4375 c 128,-1,4
 1338.23242188 152.686523438 1338.23242188 152.686523438 1179.6636051 66.34375 c 0,5,6
 1017.4510815 -20 1017.4510815 -20 803.494552871 -20 c 0,7,8
 627.208246717 -20 627.208246717 -20 484.415462884 44.6435546875 c 1,9,10
 436.131057467 26.822265625 436.131057467 26.822265625 387.846652049 -93 c 1,11,12
 254.178710938 -42 254.178710938 -42 123.111328125 -93 c 1,13,14
 209.1171875 76.525390625 209.1171875 76.525390625 295.123046875 166.091796875 c 1,15,16
 118 357.700195312 118 357.700195312 118 690.091796875 c 2,17,18
 118 726.765625 118 726.765625 118 768.025390625 c 2,19,20
 118 975.5703125 118 975.5703125 196.38671875 1137.89746094 c 128,-1,21
 274.772460938 1300.22363281 274.772460938 1300.22363281 427.844440579 1388.11230469 c 0,22,23
 591.690420706 1476 591.690420706 1476 801.252381992 1476 c 0,24,25
 1025.1377425 1476 1025.1377425 1476 1191.76454003 1374.41601562 c 1,26,27
 1241.30688214 1394.20800781 1241.30688214 1394.20800781 1290.84922424 1516 c 1,28,29
 1423.30859375 1465 1423.30859375 1465 1553.90039062 1516 c 1,30,31
 1458.9609375 1334.28710938 1458.9609375 1334.28710938 1364.02148438 1230.43945312 c 1,32,33
 1491.03515625 1048.98535156 1491.03515625 1048.98535156 1492.99902344 778.338867188 c 1,0,1
472.280588847 345.450195312 m 1,34,35
 750.505748885 692.232421875 750.505748885 692.232421875 1028.72981411 1141.01464844 c 1,36,37
 938.625856326 1209 938.625856326 1209 801.252381992 1209 c 0,38,39
 722.039594082 1209 722.039594082 1209 659.022330499 1185.55078125 c 0,40,41
 581.433145819 1156.67871094 581.433145819 1156.67871094 525.729213033 1090.82519531 c 0,42,43
 419.923490231 965.740234375 419.923490231 965.740234375 416.720076172 736.6796875 c 1,44,45
 416.720076172 632.33984375 416.720076172 632.33984375 416.720076172 630 c 2,46,47
 416.720076172 460.232421875 416.720076172 460.232421875 472.280588847 345.450195312 c 1,34,35
1186.90577325 718.311523438 m 1,48,49
 1186.90577325 823.155273438 1186.90577325 823.155273438 1186.90577325 826 c 2,50,51
 1186.90577325 931.797851562 1186.90577325 931.797851562 1164.68003545 1018.78027344 c 1,52,53
 904.961543645 698.015625 904.961543645 698.015625 645.243051842 275.251953125 c 1,54,55
 715.406140294 245 715.406140294 245 800.205743632 245 c 128,-1,56
 885.00534697 245 885.00534697 245 948.814158183 268.055664062 c 0,57,58
 1026.71207928 296.203125 1026.71207928 296.203125 1080.66103164 360.129882812 c 0,59,60
 1183.70016957 482.2265625 1183.70016957 482.2265625 1186.90577325 718.311523438 c 1,48,49
EndSplineSet
Substitution2: "Podtablica 'c2sc' Wersaliki na kapitaliki w tablicy 0" Oslash.c2sc
Position2: "Podtablica 'cpsp' +AVoA-wiat+AUIA-o wersalikowe w tablicy 0" dx=36 dy=0 dh=72 dv=0
EndChar

StartChar: Thorn
Encoding: 222 222 132
Width: 1414
GlyphClass: 1
Flags: W
LayerCount: 2
Fore
SplineSet
720.806332332 292.508789062 m 2,0,-1
 454 292.508789062 l 1,1,2
 454 184.33984375 454 184.33984375 454 0 c 1,3,-1
 166 0 l 1,4,5
 166 728 166 728 166 1456 c 1,6,-1
 454 1456 l 1,7,8
 454 1280.39355469 454 1280.39355469 454 1182.18261719 c 1,9,-1
 726.788537093 1182.18261719 l 2,10,11
 916.495700372 1182.18261719 916.495700372 1182.18261719 1062.47201213 1127.76269531 c 0,12,13
 1186.57714844 1073.34375 1186.57714844 1073.34375 1253.78808594 970.9453125 c 128,-1,14
 1321 868.547851562 1321 868.547851562 1321 737.345703125 c 0,15,16
 1321 534.430664062 1321 534.430664062 1171.55859375 412.23046875 c 0,17,18
 1015.30840327 292.508789062 1015.30840327 292.508789062 720.806332332 292.508789062 c 2,0,-1
731.339452628 960 m 2,19,-1
 454 960 l 1,20,-1
 454 516 l 1,21,-1
 724.395655188 516 l 2,22,23
 870.061172715 516 870.061172715 516 947.381169248 576.990234375 c 128,-1,24
 1024.70233418 637.98046875 1024.70233418 637.98046875 1024.70233418 737.5 c 128,-1,25
 1024.70233418 837.01953125 1024.70233418 837.01953125 947.316907283 898.059570312 c 128,-1,26
 869.932648784 959.100585938 869.932648784 959.100585938 731.339452628 960 c 2,19,-1
EndSplineSet
Substitution2: "Podtablica 'c2sc' Wersaliki na kapitaliki w tablicy 0" Thorn.c2sc
Position2: "Podtablica 'cpsp' +AVoA-wiat+AUIA-o wersalikowe w tablicy 0" dx=36 dy=0 dh=72 dv=0
EndChar

StartChar: germandbls
Encoding: 223 223 133
Width: 1422
GlyphClass: 1
Flags: W
LayerCount: 2
Fore
SplineSet
432.993549245 1058 m 2,0,1
 432.993549245 529 432.993549245 529 432.993549245 0 c 1,2,-1
 139 0 l 1,3,4
 139 530 139 530 139 1060 c 2,5,6
 139 1287.24511719 139 1287.24511719 255.220703125 1419.18652344 c 0,7,8
 373.971679688 1554 373.971679688 1554 616.617875906 1554 c 0,9,10
 850.177858678 1554 850.177858678 1554 983.688350766 1450.27734375 c 0,11,12
 1113 1346.55566406 1113 1346.55566406 1113 1165 c 0,13,14
 1113 1036.34082031 1113 1036.34082031 1033.18998242 931.455078125 c 0,15,16
 967.492385449 849.4296875 967.492385449 849.4296875 967.492385449 799.463867188 c 0,17,18
 967.492385449 768.796875 967.492385449 768.796875 998.54340894 737.833007812 c 0,19,20
 1037.7483814 698.739257812 1037.7483814 698.739257812 1133.97070312 636.041015625 c 0,21,22
 1235.24609375 564.6171875 1235.24609375 564.6171875 1284.62304688 492.720703125 c 128,-1,23
 1334 420.82421875 1334 420.82421875 1334 337.249023438 c 0,24,25
 1334 169.583984375 1334 169.583984375 1215.09863281 73.5888671875 c 0,26,27
 1099.17871094 -20 1099.17871094 -20 865.738777682 -20 c 0,28,29
 763.810417961 -20 763.810417961 -20 651.036015459 3.439453125 c 0,30,31
 533.612982573 27.845703125 533.612982573 27.845703125 479.532392884 61.9169921875 c 2,32,33
 462.964080269 123.35546875 462.964080269 123.35546875 446.394625484 82.7939453125 c 1,34,35
 487.933050494 261.814453125 487.933050494 261.814453125 529.470333334 338.834960938 c 1,36,37
 563.590366614 370.783203125 563.590366614 370.783203125 597.710399894 300.731445312 c 2,38,39
 648.414736164 272.419921875 648.414736164 272.419921875 719.143590342 252.709960938 c 128,-1,40
 789.87244452 233 789.87244452 233 842.347143712 233 c 0,41,42
 945.940786749 233 945.940786749 233 995.464119625 264.697265625 c 0,43,44
 1020.02533529 280.416992188 1020.02533529 280.416992188 1030.01589302 300.7578125 c 128,-1,45
 1040.00645075 321.09765625 1040.00645075 321.09765625 1040.00645075 345.487304688 c 0,46,47
 1040.00645075 376.657226562 1040.00645075 376.657226562 1009.1119045 407.495117188 c 0,48,49
 970.500860248 446.03515625 970.500860248 446.03515625 866.006045375 508.569335938 c 0,50,51
 747.16786432 579.686523438 747.16786432 579.686523438 690.683007566 648.625 c 0,52,53
 630.652856288 721.888671875 630.652856288 721.888671875 630.652856288 808.037109375 c 0,54,55
 630.652856288 902.102539062 630.652856288 902.102539062 722.032137329 1006.80761719 c 0,56,57
 793.224712376 1088.38183594 793.224712376 1088.38183594 793.224712376 1150 c 0,58,59
 793.224712376 1223.3125 793.224712376 1223.3125 749.636092885 1261.65625 c 128,-1,60
 706.047473394 1300 706.047473394 1300 628.313692891 1300 c 0,61,62
 577.938301474 1300 577.938301474 1300 541.954247362 1286.44238281 c 0,63,64
 432.993549245 1245.38867188 432.993549245 1245.38867188 432.993549245 1058 c 2,0,1
EndSplineSet
Substitution2: "Podtablica 'smcp' Tekstowe na kapitaliki w tablicy 1" germandbls.sc
EndChar

StartChar: ae
Encoding: 230 230 134
Width: 1933
GlyphClass: 2
Flags: W
LayerCount: 2
Fore
SplineSet
1825.96777344 111.487304688 m 2,0,1
 1654.27441406 -20 1654.27441406 -20 1397.61565812 -20 c 0,2,3
 1126.69597276 -20 1126.69597276 -20 966.026040007 133.30078125 c 1,4,5
 895.666556056 69.5908203125 895.666556056 69.5908203125 794.656580784 30.8876953125 c 0,6,7
 661.843792257 -20 661.843792257 -20 497.706292768 -20 c 0,8,9
 297.119140625 -20 297.119140625 -20 187.559570312 70.216796875 c 128,-1,10
 78 160.43359375 78 160.43359375 78 315.567382812 c 0,11,12
 78 386.831054688 78 386.831054688 104.057617188 445.022460938 c 0,13,14
 137.291992188 519.239257812 137.291992188 519.239257812 211.514648438 570.150390625 c 0,15,16
 339.992961556 657.397460938 339.992961556 657.397460938 598.661143164 657.397460938 c 2,17,-1
 785.373339595 657.397460938 l 1,18,19
 785.373339595 645.416015625 785.373339595 645.416015625 785.373339595 687.822265625 c 2,20,21
 785.373339595 766.153320312 785.373339595 766.153320312 739.756444356 808.201171875 c 0,22,23
 696.579884988 848 696.579884988 848 608.430967396 848 c 0,24,25
 513.584377332 848 513.584377332 848 452.624744886 803.876953125 c 0,26,27
 427.188854845 785.465820312 427.188854845 785.465820312 412.512916621 762.329101562 c 128,-1,28
 397.836978398 739.19140625 397.836978398 739.19140625 397.836978398 708 c 2,29,30
 397.836978398 628.729492188 397.836978398 628.729492188 397.836978398 651.458984375 c 1,31,32
 249 615.225585938 249 615.225585938 106 680.991210938 c 1,33,34
 106 652.99609375 106 652.99609375 106 727 c 2,35,36
 106 801.504882812 106 801.504882812 134.356445312 864.604492188 c 0,37,38
 169.650390625 943.140625 169.650390625 943.140625 247.497070312 1001.36523438 c 0,39,40
 387.033562735 1102 387.033562735 1102 608.430967396 1102 c 0,41,42
 745.681308465 1102 745.681308465 1102 852.359605153 1055.65527344 c 0,43,44
 928.664094995 1022.50683594 928.664094995 1022.50683594 983.092489693 965.4609375 c 1,45,46
 1042.91146124 1019.14746094 1042.91146124 1019.14746094 1116.72367061 1053.14550781 c 0,47,48
 1222.79029319 1102 1222.79029319 1102 1349.85207299 1102 c 0,49,50
 1602.4066938 1102 1602.4066938 1102 1733.82714844 968.202148438 c 0,51,52
 1864 834.404296875 1864 834.404296875 1864 600.025390625 c 2,53,-1
 1864 446 l 1,54,-1
 1099.38689702 446 l 1,55,56
 1115.70810078 350.083984375 1115.70810078 350.083984375 1182.3604368 295.655273438 c 0,57,58
 1260.31337246 232 1260.31337246 232 1397.61565812 232 c 0,59,60
 1542.02799274 232 1542.02799274 232 1656.45898438 299.924804688 c 1,61,62
 1704.26953125 382.459960938 1704.26953125 382.459960938 1752.08007812 362.994140625 c 1,63,64
 1805.36816406 300.7578125 1805.36816406 300.7578125 1858.65625 136.520507812 c 1,65,66
 1842.31152344 175.00390625 1842.31152344 175.00390625 1825.96777344 111.487304688 c 2,0,1
408.269361239 259.283203125 m 0,67,68
 450.146245639 232 450.146245639 232 536.785589695 232 c 0,69,70
 602.606812195 232 602.606812195 232 677.269216779 257.966796875 c 0,71,72
 741.844829093 280.424804688 741.844829093 280.424804688 785.373339595 310.942382812 c 1,73,-1
 785.373339595 444 l 1,74,-1
 593.728526828 444 l 1,75,76
 485.6434857 442.552734375 485.6434857 442.552734375 424.400808216 406.821289062 c 0,77,78
 393.119561099 388.5703125 393.119561099 388.5703125 379.943655567 366.381835938 c 0,79,80
 369.613041728 348.984375 369.613041728 348.984375 369.613041728 328.364257812 c 128,-1,81
 369.613041728 307.744140625 369.613041728 307.744140625 378.243265152 290.483398438 c 128,-1,82
 386.874548669 273.221679688 386.874548669 273.221679688 408.269361239 259.283203125 c 0,67,68
1515.18429816 805.098632812 m 0,83,84
 1458.94102292 848 1458.94102292 848 1349.85207299 848 c 0,85,86
 1250.19371728 848 1250.19371728 848 1185.89372935 796.689453125 c 0,87,88
 1133.01625184 754.493164062 1133.01625184 754.493164062 1110.89421494 691 c 1,89,-1
 1572.99651219 691 l 1,90,91
 1568.2441118 764.625 1568.2441118 764.625 1515.18429816 805.098632812 c 0,83,84
EndSplineSet
Substitution2: "Podtablica 'smcp' Tekstowe na kapitaliki w tablicy 1" AE.c2sc
EndChar

StartChar: eth
Encoding: 240 240 135
Width: 1404
GlyphClass: 1
Flags: W
LayerCount: 2
Fore
SplineSet
1273 626.673828125 m 2,0,1
 1273 585.647460938 1273 585.647460938 1273 540.635742188 c 2,2,3
 1273 384.068359375 1273 384.068359375 1209.1328125 256.301757812 c 128,-1,4
 1145.26660156 128.53515625 1145.26660156 128.53515625 1024.41140093 54.267578125 c 0,5,6
 881.804098189 -20 881.804098189 -20 705.17625778 -20 c 128,-1,7
 528.54726084 -20 528.54726084 -20 383.917184084 45.6875 c 0,8,9
 259.900390625 111.374023438 259.900390625 111.374023438 192.950195312 225.064453125 c 128,-1,10
 126 338.754882812 126 338.754882812 126 473.504882812 c 0,11,12
 126 619.018554688 126 619.018554688 187.701171875 736.762695312 c 128,-1,13
 249.401367188 854.506835938 249.401367188 854.506835938 365.430664062 921.348632812 c 0,14,15
 424.203810718 950.505859375 424.203810718 950.505859375 491.136928644 967.010742188 c 1,16,17
 422.449352068 998.346679688 422.449352068 998.346679688 356.563476562 1111.3125 c 1,18,19
 455.027694655 1118.65332031 455.027694655 1118.65332031 556.292457284 1227.99316406 c 1,20,21
 433.991538834 1285.515625 433.991538834 1285.515625 292.79296875 1320.72949219 c 2,22,23
 266.0390625 1276.89355469 266.0390625 1276.89355469 239.28515625 1335.05664062 c 1,24,25
 284.75 1410.87988281 284.75 1410.87988281 330.21484375 1588.70214844 c 1,26,27
 352.2421875 1532.72558594 352.2421875 1532.72558594 374.733165536 1578.74804688 c 2,28,29
 647.213200031 1526.76367188 647.213200031 1526.76367188 853.649489508 1398.87695312 c 1,30,31
 971.719814853 1415.92382812 971.719814853 1415.92382812 1080.05664062 1534.97167969 c 1,32,33
 1146.61914062 1392.79101562 1146.61914062 1392.79101562 1213.18066406 1352.61035156 c 1,34,35
 1131.33886719 1245.58691406 1131.33886719 1245.58691406 1049.49609375 1240.56445312 c 1,36,37
 1273 992.3984375 1273 992.3984375 1273 626.673828125 c 2,0,1
584.537275441 971.91796875 m 1,38,39
 627.134652491 977 627.134652491 977 671.669220207 977 c 0,40,41
 787.590709578 977 787.590709578 977 889.248693 939.494140625 c 1,42,43
 844.242260335 1016.04199219 844.242260335 1016.04199219 775.551214164 1081.41699219 c 1,44,45
 680.044823068 975.66796875 680.044823068 975.66796875 584.537275441 971.91796875 c 1,38,39
887.018899805 794.317382812 m 0,46,47
 817.828231923 825 817.828231923 825 723.777914288 825 c 0,48,49
 580.012923274 825 580.012923274 825 502.206093928 747.540039062 c 0,50,51
 420.600057816 666.297851562 420.600057816 666.297851562 420.600057816 518 c 0,52,53
 420.600057816 396.767578125 420.600057816 396.767578125 505.07891877 313.047851562 c 0,54,55
 585.851095497 233 585.851095497 233 709.566452266 233 c 0,56,57
 774.135619314 233 774.135619314 233 823.820222868 259.859375 c 0,58,59
 864.899073744 282.06640625 864.899073744 282.06640625 898.150517803 323.540039062 c 0,60,61
 978.399942184 423.6328125 978.399942184 423.6328125 978.399942184 592 c 2,62,63
 978.399942184 689.537109375 978.399942184 689.537109375 978.399942184 685.07421875 c 1,64,65
 977.504786617 757.250976562 977.504786617 757.250976562 976.608474519 727.427734375 c 1,66,67
 946.471570436 767.952148438 946.471570436 767.952148438 887.018899805 794.317382812 c 0,46,47
EndSplineSet
Substitution2: "Podtablica 'smcp' Tekstowe na kapitaliki w tablicy 1" Eth.c2sc
EndChar

StartChar: divide
Encoding: 247 247 136
Width: 1169
GlyphClass: 1
Flags: W
LayerCount: 2
Fore
SplineSet
1120 549 m 1
 20 549 l 1
 20 835 l 1
 1120 835 l 1
 1120 549 l 1
451.40724054 1211.89672699 m 0
 495.139843061 1261 495.139843061 1261 574.737903136 1261 c 0
 654.335963211 1261 654.335963211 1261 698.167981606 1213.45340378 c 0
 742 1165.90680755 742 1165.90680755 742 1098.26652872 c 0
 742 1030.62624988 742 1030.62624988 697.927832717 984.313124941 c 0
 653.855665435 938 653.855665435 938 574.739090101 938 c 0
 495.622514768 938 495.622514768 938 452.811257384 984.566630839 c 0
 410 1031.13326168 410 1031.13326168 410 1098.26882421 c 0
 410 1165.40438674 410 1165.40438674 451.40724054 1211.89672699 c 0
451.40724054 394.896726994 m 0
 495.139843061 444 495.139843061 444 574.737903136 444 c 0
 654.335963211 444 654.335963211 444 698.167981606 396.453403776 c 0
 742 348.906807551 742 348.906807551 742 281.884442833 c 0
 742 214.862078115 742 214.862078115 698.048709454 167.931039057 c 0
 654.097418908 121 654.097418908 121 574.738463501 121 c 0
 495.379508094 121 495.379508094 121 452.689754047 168.183412368 c 0
 410 215.366824735 410 215.366824735 410 281.885605737 c 0
 410 348.404386739 410 348.404386739 451.40724054 394.896726994 c 0
EndSplineSet
EndChar

